<?xml version="1.0" encoding="utf-8"?>
<!-- Generator: Adobe Illustrator 27.0.0, SVG Export Plug-In . SVG Version: 6.00 Build 0)  -->
<svg version="1.1" id="Layer_1" xmlns="http://www.w3.org/2000/svg" xmlns:xlink="http://www.w3.org/1999/xlink" x="0px" y="0px"
	 viewBox="0 0 46.2 46.2" style="enable-background:new 0 0 46.2 46.2;" xml:space="preserve">
<style type="text/css">
	.st0{fill:#005AD9;}
</style>
<g>
	<g>
		<path class="st0" d="M23.1,46.2C10.4,46.2,0,35.8,0,23.1C0,10.4,10.4,0,23.1,0c12.7,0,23.1,10.4,23.1,23.1
			C46.2,35.8,35.8,46.2,23.1,46.2z M23.1,1C10.9,1,1,10.9,1,23.1c0,12.2,9.9,22.1,22.1,22.1c12.2,0,22.1-9.9,22.1-22.1
			C45.2,10.9,35.3,1,23.1,1z"/>
	</g>
	<g>
		<g>
			<path class="st0" d="M7.5,23.1c0,1.5,1,2.9,2.4,3.4l1.7,0.6v4.3h2v-3.7l11.2,3.7V14.9L10,19.7C8.5,20.2,7.5,21.6,7.5,23.1z"/>
		</g>
		<g>
			<path class="st0" d="M32.4,17.3L31,18.7c1.1,1.1,1.8,2.7,1.8,4.4c0,1.7-0.7,3.2-1.8,4.4l1.4,1.4c1.5-1.5,2.4-3.5,2.4-5.8
				C34.8,20.8,33.8,18.8,32.4,17.3z"/>
		</g>
		<g>
			<path class="st0" d="M35.1,14.6L33.7,16c1.8,1.8,2.9,4.3,2.9,7.1s-1.1,5.3-2.9,7.1l1.4,1.4c2.2-2.2,3.5-5.2,3.5-8.5
				C38.6,19.8,37.3,16.8,35.1,14.6z"/>
		</g>
		<g>
			<path class="st0" d="M26.6,18.8v4.3v0v4.3c1.2,0,2.3-0.5,3-1.3c0.8-0.8,1.3-1.8,1.3-3c0-1.2-0.5-2.3-1.3-3
				C28.9,19.3,27.8,18.8,26.6,18.8z"/>
		</g>
	</g>
</g>
</svg>
