<svg width="480" height="146" viewBox="0 0 480 146" fill="none" xmlns="http://www.w3.org/2000/svg">
<path d="M461.448 146H18.5538C8.30703 146 0 137.693 0 127.444V18.5562C0 8.30707 8.30703 1.52588e-05 18.5538 1.52588e-05H461.448C471.695 1.52588e-05 480 8.30707 480 18.5562V127.444C480 137.693 471.695 146 461.448 146Z" fill="black"/>
<path d="M43.6269 59.6545C35.8398 73.169 40.7899 93.68 49.4005 106.113C53.6989 112.332 58.0506 117.915 64.0107 117.915C64.1223 117.915 64.2355 117.912 64.3503 117.906C67.1509 117.794 69.1748 116.933 71.1308 116.101C73.3275 115.163 75.6007 114.194 79.164 114.194C82.5537 114.194 84.717 115.132 86.8081 116.037C88.8716 116.93 90.9947 117.855 94.1329 117.794C100.846 117.67 104.969 111.646 108.606 106.333C112.401 100.788 114.305 95.402 114.947 93.3419L114.973 93.2622C115.095 92.8955 114.921 92.4969 114.571 92.3342C114.571 92.3342 114.526 92.3151 114.517 92.3119C113.334 91.8272 102.963 87.2256 102.854 74.6838C102.753 64.4953 110.634 59.0997 112.215 58.1207L112.288 58.0728C112.46 57.9644 112.579 57.789 112.619 57.5913C112.66 57.3904 112.618 57.1831 112.502 57.0141C107.063 49.0515 98.7253 47.8525 95.3677 47.709C94.8818 47.6579 94.379 47.6356 93.874 47.6356C89.9314 47.6356 86.1542 49.1248 83.1193 50.3207C81.0249 51.1466 79.215 51.8609 77.9687 51.8609C76.5658 51.8609 74.7463 51.137 72.6401 50.3015C69.8217 49.1854 66.628 47.9162 63.2478 47.9162C63.1668 47.9162 63.0881 47.9162 63.0103 47.9194C55.1486 48.0342 47.7206 52.5337 43.6269 59.6545Z" fill="white"/>
<path d="M95.3752 25.7917C90.6155 25.9862 84.9049 28.9168 81.4929 32.9157C78.5909 36.2736 75.7584 41.8796 76.5042 47.5272C76.551 47.8811 76.8396 48.1522 77.1944 48.1809C77.5161 48.2064 77.8432 48.2191 78.1704 48.2191C82.8243 48.2191 87.8458 45.6425 91.2751 41.497C94.8839 37.1186 96.7089 31.4966 96.157 26.4646C96.1133 26.0691 95.7661 25.7758 95.3752 25.7917Z" fill="white"/>
<path d="M159.042 54.6225C161.149 54.6225 163.006 54.2047 164.614 53.3692C166.221 52.5306 167.46 51.3634 168.329 49.8646C169.198 48.3659 169.633 46.6471 169.633 44.7146C169.633 42.7821 169.198 41.0633 168.329 39.5645C167.46 38.0658 166.221 36.8986 164.614 36.06C163.006 35.2245 161.149 34.8067 159.042 34.8067H151.807V54.6225H159.042ZM150.146 33.3079H159.172C161.54 33.3079 163.642 33.7958 165.478 34.7748C167.313 35.7506 168.742 37.1027 169.763 38.8311C170.784 40.5595 171.295 42.5206 171.295 44.7146C171.295 46.9085 170.784 48.8697 169.763 50.5981C168.742 52.3265 167.313 53.6786 165.478 54.6544C163.642 55.6333 161.54 56.1212 159.172 56.1212H150.146V33.3079Z" fill="white"/>
<path d="M186.691 53.8731C187.723 53.264 188.538 52.4189 189.136 51.3315C189.733 50.2441 190.032 49.0068 190.032 47.6165C190.032 46.2261 189.733 44.9856 189.136 43.8982C188.538 42.814 187.723 41.9658 186.691 41.3567C185.659 40.7476 184.492 40.4447 183.188 40.4447C181.885 40.4447 180.717 40.7476 179.685 41.3567C178.653 41.9658 177.839 42.814 177.241 43.8982C176.643 44.9856 176.345 46.2261 176.345 47.6165C176.345 49.0068 176.643 50.2441 177.241 51.3315C177.839 52.4189 178.653 53.264 179.685 53.8731C180.717 54.4821 181.885 54.7851 183.188 54.7851C184.492 54.7851 185.659 54.4821 186.691 53.8731ZM178.838 55.1454C177.545 54.4056 176.529 53.3788 175.791 52.065C175.052 50.7511 174.683 49.2683 174.683 47.6165C174.683 45.9646 175.052 44.4818 175.791 43.1648C176.529 41.851 177.545 40.8242 178.838 40.0875C180.13 39.3477 181.58 38.9778 183.188 38.9778C184.796 38.9778 186.246 39.3477 187.539 40.0875C188.831 40.8242 189.847 41.851 190.586 43.1648C191.324 44.4818 191.694 45.9646 191.694 47.6165C191.694 49.2683 191.324 50.7511 190.586 52.065C189.847 53.3788 188.831 54.4056 187.539 55.1454C186.246 55.8821 184.796 56.252 183.188 56.252C181.58 56.252 180.13 55.8821 178.838 55.1454Z" fill="white"/>
<path d="M220.567 39.1085L214.114 56.1212H212.582L206.847 41.3567L201.079 56.1212H199.58L193.127 39.1085H194.692L200.362 54.2972L206.162 39.1085H207.564L213.332 54.2653L219.066 39.1085H220.567Z" fill="white"/>
<path d="M237.707 40.8369C238.944 42.0742 239.563 43.8568 239.563 46.1815V56.1212H237.934V46.3122C237.934 44.3989 237.452 42.9448 236.486 41.9435C235.517 40.9453 234.165 40.4447 232.427 40.4447C230.428 40.4447 228.853 41.0442 227.702 42.2368C226.552 43.4327 225.974 45.0399 225.974 47.0616V56.1212H224.345V39.1085H225.911V42.7917C226.497 41.5959 227.371 40.6615 228.535 39.9887C229.695 39.3158 231.069 38.9778 232.657 38.9778C234.784 38.9778 236.467 39.5964 237.707 40.8369Z" fill="white"/>
<path d="M246.277 31.9367H247.907V56.1212H246.277V31.9367Z" fill="white"/>
<path d="M264.932 53.8731C265.965 53.264 266.778 52.4189 267.378 51.3315C267.974 50.2441 268.274 49.0068 268.274 47.6165C268.274 46.2261 267.974 44.9856 267.378 43.8982C266.778 42.814 265.965 41.9658 264.932 41.3567C263.902 40.7476 262.732 40.4447 261.432 40.4447C260.128 40.4447 258.958 40.7476 257.928 41.3567C256.895 41.9658 256.082 42.814 255.482 43.8982C254.886 44.9856 254.586 46.2261 254.586 47.6165C254.586 49.0068 254.886 50.2441 255.482 51.3315C256.082 52.4189 256.895 53.264 257.928 53.8731C258.958 54.4821 260.128 54.7851 261.432 54.7851C262.732 54.7851 263.902 54.4821 264.932 53.8731ZM257.08 55.1454C255.785 54.4056 254.771 53.3788 254.032 52.065C253.295 50.7511 252.925 49.2683 252.925 47.6165C252.925 45.9646 253.295 44.4818 254.032 43.1648C254.771 41.851 255.785 40.8242 257.08 40.0875C258.371 39.3477 259.822 38.9778 261.432 38.9778C263.038 38.9778 264.486 39.3477 265.78 40.0875C267.072 40.8242 268.089 41.851 268.828 43.1648C269.565 44.4818 269.935 45.9646 269.935 47.6165C269.935 49.2683 269.565 50.7511 268.828 52.065C268.089 53.3788 267.072 54.4056 265.78 55.1454C264.486 55.8821 263.038 56.252 261.432 56.252C259.822 56.252 258.371 55.8821 257.08 55.1454Z" fill="white"/>
<path d="M283.344 53.9368C284.333 53.2863 285.076 52.3424 285.576 51.1019V47.9099H279.777C278.103 47.9099 276.891 48.2128 276.142 48.8219C275.393 49.431 275.02 50.2664 275.02 51.3315C275.02 52.4381 275.431 53.315 276.257 53.956C277.083 54.597 278.246 54.9158 279.745 54.9158C281.157 54.9158 282.356 54.5906 283.344 53.9368ZM285.512 40.5914C286.641 41.666 287.205 43.2477 287.205 45.3332V56.1212H285.643V53.0918C285.098 54.0899 284.307 54.868 283.265 55.4229C282.222 55.9746 280.972 56.252 279.515 56.252C277.625 56.252 276.133 55.8087 275.036 54.9158C273.939 54.0261 273.391 52.8526 273.391 51.3953C273.391 49.9826 273.894 48.8378 274.905 47.9577C275.916 47.0776 277.529 46.6375 279.745 46.6375H285.576V45.2695C285.576 43.6814 285.149 42.476 284.291 41.6501C283.43 40.8242 282.177 40.4128 280.526 40.4128C279.397 40.4128 278.316 40.6073 277.283 40.9995C276.25 41.3886 275.377 41.9116 274.66 42.5621L273.847 41.3886C274.691 40.6296 275.715 40.0365 276.907 39.6124C278.103 39.1882 279.353 38.9778 280.657 38.9778C282.764 38.9778 284.381 39.5167 285.512 40.5914Z" fill="white"/>
<path d="M304.103 53.8731C305.133 53.264 305.949 52.4189 306.545 51.3315C307.145 50.2441 307.441 49.0068 307.441 47.6165C307.441 46.2261 307.145 44.9856 306.545 43.8982C305.949 42.814 305.133 41.9658 304.103 41.3567C303.07 40.7476 301.903 40.4447 300.599 40.4447C299.295 40.4447 298.128 40.7476 297.095 41.3567C296.062 41.9658 295.249 42.814 294.653 43.8982C294.054 44.9856 293.757 46.2261 293.757 47.6165C293.757 49.0068 294.054 50.2441 294.653 51.3315C295.249 52.4189 296.062 53.264 297.095 53.8731C298.128 54.4821 299.295 54.7851 300.599 54.7851C301.903 54.7851 303.07 54.4821 304.103 53.8731ZM309.07 31.9367V56.1212H307.476V52.1128C306.8 53.4394 305.857 54.4598 304.639 55.1773C303.424 55.8948 302.043 56.252 300.5 56.252C298.916 56.252 297.481 55.8821 296.199 55.1454C294.918 54.4056 293.913 53.3852 293.186 52.0809C292.456 50.7767 292.093 49.2874 292.093 47.6165C292.093 45.9423 292.456 44.4499 293.186 43.1329C293.913 41.8191 294.918 40.7986 296.199 40.0684C297.481 39.3413 298.916 38.9778 300.5 38.9778C302.021 38.9778 303.386 39.3349 304.591 40.0524C305.796 40.7699 306.746 41.7713 307.441 43.0532V31.9367H309.07Z" fill="white"/>
<path d="M334.475 53.8731C335.504 53.264 336.321 52.4189 336.917 51.3315C337.513 50.2441 337.813 49.0068 337.813 47.6165C337.813 46.2261 337.513 44.9856 336.917 43.8982C336.321 42.814 335.504 41.9658 334.475 41.3567C333.442 40.7476 332.275 40.4447 330.971 40.4447C329.667 40.4447 328.5 40.7476 327.467 41.3567C326.434 41.9658 325.621 42.814 325.021 43.8982C324.425 44.9856 324.125 46.2261 324.125 47.6165C324.125 49.0068 324.425 50.2441 325.021 51.3315C325.621 52.4189 326.434 53.264 327.467 53.8731C328.5 54.4821 329.667 54.7851 330.971 54.7851C332.275 54.7851 333.442 54.4821 334.475 53.8731ZM326.619 55.1454C325.327 54.4056 324.31 53.3788 323.574 52.065C322.834 50.7511 322.464 49.2683 322.464 47.6165C322.464 45.9646 322.834 44.4818 323.574 43.1648C324.31 41.851 325.327 40.8242 326.619 40.0875C327.913 39.3477 329.361 38.9778 330.971 38.9778C332.578 38.9778 334.028 39.3477 335.319 40.0875C336.614 40.8242 337.628 41.851 338.367 43.1648C339.104 44.4818 339.474 45.9646 339.474 47.6165C339.474 49.2683 339.104 50.7511 338.367 52.065C337.628 53.3788 336.614 54.4056 335.319 55.1454C334.028 55.8821 332.578 56.252 330.971 56.252C329.361 56.252 327.913 55.8821 326.619 55.1454Z" fill="white"/>
<path d="M357.886 40.8369C359.126 42.0742 359.745 43.8568 359.745 46.1815V56.1212H358.116V46.3122C358.116 44.3989 357.631 42.9448 356.665 41.9435C355.699 40.9453 354.347 40.4447 352.606 40.4447C350.607 40.4447 349.036 41.0442 347.881 42.2368C346.73 43.4327 346.157 45.0399 346.157 47.0616V56.1212H344.527V39.1085H346.09V42.7917C346.676 41.5959 347.55 40.6615 348.714 39.9887C349.877 39.3158 351.251 38.9778 352.836 38.9778C354.966 38.9778 356.649 39.5964 357.886 40.8369Z" fill="white"/>
<path d="M383.271 55.0466C382.86 55.4388 382.343 55.7354 381.725 55.9427C381.103 56.1499 380.459 56.252 379.786 56.252C378.307 56.252 377.166 55.8438 376.362 55.0306C375.559 54.2143 375.157 53.079 375.157 51.6249V40.5084H372.029V39.1085H375.157V35.3935H376.786V39.1085H382.197V40.5084H376.786V51.4623C376.786 52.5688 377.054 53.4107 377.586 53.9879C378.119 54.5619 378.906 54.8521 379.949 54.8521C381.011 54.8521 381.891 54.5364 382.589 53.905L383.271 55.0466Z" fill="white"/>
<path d="M401.161 40.8369C402.401 42.0742 403.019 43.8568 403.019 46.1815V56.1212H401.39V46.3122C401.39 44.3989 400.906 42.9448 399.939 41.9435C398.973 40.9453 397.622 40.4447 395.884 40.4447C393.885 40.4447 392.31 41.0442 391.159 42.2368C390.005 43.4327 389.431 45.0399 389.431 47.0616V56.1212H387.802V31.9367H389.431V42.661C390.018 41.4874 390.885 40.5818 392.039 39.9408C393.19 39.2999 394.548 38.9778 396.11 38.9778C398.24 38.9778 399.924 39.5964 401.161 40.8369Z" fill="white"/>
<path d="M412.826 41.21C411.87 41.7425 411.105 42.4919 410.531 43.4582C409.954 44.4276 409.622 45.5182 409.536 46.7363H422.57C422.506 45.5182 422.181 44.4308 421.594 43.4773C421.007 42.5206 420.236 41.7712 419.279 41.2259C418.323 40.6838 417.248 40.4128 416.053 40.4128C414.857 40.4128 413.783 40.6775 412.826 41.21ZM424.135 48.0055H409.504C409.545 49.3321 409.883 50.512 410.515 51.542C411.143 52.5752 411.997 53.3724 413.072 53.9368C414.146 54.5045 415.358 54.7851 416.706 54.7851C417.813 54.7851 418.839 54.5842 419.786 54.1824C420.73 53.7806 421.517 53.1875 422.149 52.4062L423.092 53.4808C422.353 54.3737 421.425 55.0593 420.306 55.5345C419.187 56.0128 417.975 56.252 416.671 56.252C414.978 56.252 413.467 55.8821 412.144 55.1454C410.818 54.4056 409.781 53.3852 409.032 52.0809C408.283 50.7767 407.907 49.2874 407.907 47.6165C407.907 45.9646 408.261 44.4818 408.965 43.1648C409.673 41.851 410.645 40.8242 411.883 40.0875C413.12 39.3477 414.51 38.9778 416.053 38.9778C417.596 38.9778 418.98 39.3413 420.207 40.0684C421.435 40.7986 422.404 41.8127 423.108 43.117C423.813 44.4212 424.167 45.8977 424.167 47.5495L424.135 48.0055Z" fill="white"/>
<path d="M171.877 100.877L164.526 83.8358L157.23 100.877H171.877ZM174.271 106.56H154.78L150.938 115.584H143.476L161.017 76.5939H168.145L185.743 115.584H178.17L174.271 106.56Z" fill="white"/>
<path d="M212.056 107.453C213.707 105.743 214.534 103.495 214.534 100.711C214.534 97.9275 213.707 95.6794 212.056 93.9733C210.403 92.2641 208.297 91.4094 205.735 91.4094C204.064 91.4094 202.561 91.7921 201.224 92.5511C199.888 93.3132 198.83 94.4006 198.05 95.8101C197.27 97.2228 196.881 98.8555 196.881 100.711C196.881 102.571 197.27 104.203 198.05 105.613C198.83 107.025 199.888 108.11 201.224 108.872C202.561 109.634 204.064 110.013 205.735 110.013C208.297 110.013 210.403 109.159 212.056 107.453ZM214.283 87.401C216.566 88.6638 218.358 90.4464 219.659 92.7456C220.956 95.048 221.607 97.7043 221.607 100.711C221.607 103.719 220.956 106.384 219.659 108.706C218.358 111.024 216.566 112.816 214.283 114.079C212 115.342 209.41 115.973 206.515 115.973C202.505 115.973 199.331 114.637 196.992 111.962V126.388H190.031V85.8385H196.658V89.7385C197.808 88.329 199.228 87.2703 200.918 86.5655C202.607 85.8608 204.473 85.5068 206.515 85.5068C209.41 85.5068 212 86.1382 214.283 87.401Z" fill="white"/>
<path d="M250.256 107.453C251.908 105.743 252.737 103.495 252.737 100.711C252.737 97.9275 251.908 95.6794 250.256 93.9733C248.605 92.2641 246.498 91.4094 243.937 91.4094C242.267 91.4094 240.762 91.7921 239.426 92.5511C238.09 93.3132 237.032 94.4006 236.25 95.8101C235.472 97.2228 235.084 98.8555 235.084 100.711C235.084 102.571 235.472 104.203 236.25 105.613C237.032 107.025 238.09 108.11 239.426 108.872C240.762 109.634 242.267 110.013 243.937 110.013C246.498 110.013 248.605 109.159 250.256 107.453ZM252.485 87.401C254.768 88.6638 256.56 90.4464 257.861 92.7456C259.158 95.048 259.809 97.7043 259.809 100.711C259.809 103.719 259.158 106.384 257.861 108.706C256.56 111.024 254.768 112.816 252.485 114.079C250.202 115.342 247.613 115.973 244.715 115.973C240.708 115.973 237.532 114.637 235.195 111.962V126.388H228.232V85.8385H234.86V89.7385C236.011 88.329 237.43 87.2703 239.12 86.5655C240.81 85.8608 242.675 85.5068 244.715 85.5068C247.613 85.5068 250.202 86.1382 252.485 87.401Z" fill="white"/>
<path d="M285.841 114.861C283.038 114.006 280.819 112.874 279.187 111.461L281.693 105.836C283.287 107.099 285.248 108.129 287.569 108.926C289.887 109.726 292.217 110.125 294.558 110.125C297.453 110.125 299.614 109.659 301.046 108.731C302.474 107.804 303.188 106.579 303.188 105.055C303.188 103.942 302.79 103.023 301.99 102.3C301.192 101.576 300.182 101.008 298.957 100.6C297.73 100.192 296.059 99.7293 293.945 99.2063C290.974 98.5015 288.57 97.7968 286.734 97.0921C284.894 96.3873 283.316 95.2808 281.999 93.7788C280.679 92.2736 280.022 90.2391 280.022 87.6785C280.022 85.526 280.606 83.5648 281.776 81.8013C282.946 80.0379 284.709 78.638 287.065 77.5952C289.425 76.5588 292.31 76.0358 295.725 76.0358C298.103 76.0358 300.44 76.3356 302.742 76.9287C305.044 77.5219 307.03 78.3765 308.701 79.4894L306.418 85.1146C304.709 84.1133 302.927 83.3511 301.071 82.8314C299.216 82.3116 297.414 82.0533 295.67 82.0533C292.81 82.0533 290.687 82.5348 289.294 83.501C287.901 84.4673 287.206 85.7492 287.206 87.3436C287.206 88.4566 287.604 89.3686 288.404 90.0733C289.201 90.7781 290.212 91.3361 291.44 91.7443C292.664 92.1525 294.334 92.618 296.451 93.1378C299.346 93.8043 301.722 94.5027 303.577 95.2266C305.433 95.9504 307.021 97.0538 308.341 98.5398C309.657 100.026 310.317 102.032 310.317 104.554C310.317 106.71 309.731 108.658 308.564 110.402C307.394 112.15 305.621 113.54 303.246 114.58C300.867 115.619 297.972 116.139 294.558 116.139C291.548 116.139 288.643 115.712 285.841 114.861Z" fill="white"/>
<path d="M334.707 113.968C333.891 114.637 332.897 115.138 331.73 115.473C330.56 115.808 329.326 115.973 328.025 115.973C324.757 115.973 322.235 115.119 320.453 113.413C318.671 111.704 317.778 109.216 317.778 105.948V91.6327H312.877V86.0617H317.778V79.2662H324.741V86.0617H332.702V91.6327H324.741V105.782C324.741 107.23 325.092 108.333 325.796 109.095C326.504 109.857 327.524 110.237 328.86 110.237C330.419 110.237 331.72 109.828 332.759 109.012L334.707 113.968Z" fill="white"/>
<path d="M359.155 107.453C360.826 105.744 361.661 103.495 361.661 100.711C361.661 97.9275 360.826 95.6794 359.155 93.9733C357.484 92.2641 355.367 91.4095 352.807 91.4095C350.244 91.4095 348.136 92.2641 346.485 93.9733C344.833 95.6794 344.008 97.9275 344.008 100.711C344.008 103.495 344.833 105.744 346.485 107.453C348.136 109.159 350.244 110.013 352.807 110.013C355.367 110.013 357.484 109.159 359.155 107.453ZM344.677 114.025C342.264 112.724 340.379 110.916 339.024 108.594C337.669 106.273 336.99 103.645 336.99 100.711C336.99 97.7777 337.669 95.1596 339.024 92.8572C340.379 90.5548 342.264 88.7563 344.677 87.4552C347.091 86.1574 349.801 85.5068 352.807 85.5068C355.852 85.5068 358.581 86.1574 360.995 87.4552C363.405 88.7563 365.289 90.5548 366.644 92.8572C367.999 95.1596 368.678 97.7777 368.678 100.711C368.678 103.645 367.999 106.273 366.644 108.594C365.289 110.916 363.405 112.724 360.995 114.025C358.581 115.323 355.852 115.973 352.807 115.973C349.801 115.973 347.091 115.323 344.677 114.025Z" fill="white"/>
<path d="M392.568 85.5068V92.1333C391.975 92.0217 391.436 91.9675 390.955 91.9675C388.241 91.9675 386.128 92.7551 384.604 94.3336C383.083 95.9121 382.321 98.1858 382.321 101.158V115.584H375.361V85.8385H381.986V90.1849C383.991 87.0662 387.518 85.5068 392.568 85.5068Z" fill="white"/>
<path d="M405.461 93.0517C403.918 94.3719 402.981 96.1258 402.649 98.3166H419.522C419.225 96.1641 418.313 94.4166 416.793 93.0804C415.272 91.7443 413.378 91.0746 411.114 91.0746C408.886 91.0746 407.001 91.7347 405.461 93.0517ZM426.039 102.94H402.704C403.112 105.131 404.18 106.866 405.905 108.148C407.633 109.43 409.775 110.071 412.339 110.071C415.603 110.071 418.297 108.993 420.411 106.837L424.145 111.126C422.809 112.724 421.116 113.933 419.075 114.749C417.035 115.565 414.733 115.973 412.17 115.973C408.905 115.973 406.026 115.323 403.539 114.025C401.052 112.724 399.13 110.916 397.775 108.594C396.42 106.273 395.744 103.645 395.744 100.711C395.744 97.8159 396.4 95.2074 397.72 92.8859C399.037 90.5644 400.867 88.7563 403.204 87.4552C405.544 86.1574 408.181 85.5068 411.114 85.5068C414.009 85.5068 416.598 86.1446 418.881 87.4265C421.164 88.7085 422.946 90.5102 424.228 92.8317C425.509 95.15 426.15 97.8351 426.15 100.877C426.15 101.362 426.112 102.048 426.039 102.94Z" fill="white"/>
</svg>
