<?xml version="1.0" encoding="utf-8"?>
<!-- Generator: Adobe Illustrator 27.0.0, SVG Export Plug-In . SVG Version: 6.00 Build 0)  -->
<svg version="1.1" id="Layer_1" xmlns="http://www.w3.org/2000/svg" xmlns:xlink="http://www.w3.org/1999/xlink" x="0px" y="0px"
	 viewBox="0 0 32.6 32.6" style="enable-background:new 0 0 32.6 32.6;" xml:space="preserve">
<style type="text/css">
	.st0{fill:#FFFFFF;}
</style>
<g>
	<g>
		<path class="st0" d="M16.3,32.6C7.3,32.6,0,25.3,0,16.3S7.3,0,16.3,0s16.3,7.3,16.3,16.3S25.3,32.6,16.3,32.6z M16.3,1
			C7.9,1,1,7.9,1,16.3s6.9,15.3,15.3,15.3c8.4,0,15.3-6.9,15.3-15.3S24.7,1,16.3,1z"/>
	</g>
	<g>
		<polygon class="st0" points="11.3,23 14.9,23 14.9,20.2 17.7,20.2 17.7,23 21.3,23 21.3,16.5 24,16.5 16.3,8 8.5,16.5 11.3,16.5 
					"/>
	</g>
</g>
</svg>
