<svg width="24" height="24" viewBox="0 0 24 24" fill="none" xmlns="http://www.w3.org/2000/svg">
<path d="M11.5 12C9.9087 12 8.38258 11.3679 7.25736 10.2426C6.13214 9.11742 5.5 7.5913 5.5 6C5.5 4.4087 6.13214 2.88258 7.25736 1.75736C8.38258 0.632141 9.9087 0 11.5 0C13.0913 0 14.6174 0.632141 15.7426 1.75736C16.8679 2.88258 17.5 4.4087 17.5 6C17.5 7.5913 16.8679 9.11742 15.7426 10.2426C14.6174 11.3679 13.0913 12 11.5 12ZM10.8016 16.8375L9.92969 15.3844C9.62969 14.8828 9.99062 14.25 10.5719 14.25H11.5H12.4234C13.0047 14.25 13.3656 14.8875 13.0656 15.3844L12.1938 16.8375L13.7594 22.6453L15.4469 15.7594C15.5406 15.3797 15.9062 15.1312 16.2859 15.2297C19.5719 16.0547 22 19.0266 22 22.5609C22 23.3578 21.3531 24 20.5609 24H14.3828C14.2844 24 14.1953 23.9812 14.1109 23.9484L14.125 24H8.875L8.88906 23.9484C8.80469 23.9812 8.71094 24 8.61719 24H2.43906C1.64688 24 1 23.3531 1 22.5609C1 19.0219 3.43281 16.05 6.71406 15.2297C7.09375 15.1359 7.45938 15.3844 7.55313 15.7594L9.24063 22.6453L10.8062 16.8375H10.8016Z" fill="#2B3944"/>
</svg>
