<svg width="971" height="240" viewBox="0 0 971 240" fill="none" xmlns="http://www.w3.org/2000/svg">
<path d="M95.3469 0.483292C75.1158 1.91278 53.8837 10.4368 38.0255 23.4611C33.1258 27.4848 23.9585 37.0677 20.5867 41.7268C9.89163 56.4453 3.35868 72.2227 0.82979 89.6942C-0.276597 97.4241 -0.276597 111.719 0.82979 119.29C2.93719 133.267 7.78422 146.874 14.8967 158.628C16.7407 161.592 23.6951 171.44 24.0112 171.44C24.0639 171.44 23.8005 168.74 23.379 165.51C22.4307 157.463 22.8522 134.061 24.0112 126.702C27.9626 102.454 36.8137 80.2702 50.1957 61.2103C60.7854 46.1741 77.0124 30.5556 92.0277 20.9727C101.669 14.8312 113.312 9.11319 123.586 5.513C126.378 4.56 128.802 3.60699 128.96 3.44817C129.434 2.97168 117.422 0.959793 110.994 0.430359C104.093 -0.152039 103.566 -0.152039 95.3469 0.483292Z" fill="#2B3944"/>
<path d="M195.343 61.7397C194.448 69.5225 190.76 78.9466 185.439 86.9941C182.225 91.865 173.848 100.813 168.369 105.26C144.924 124.161 110.204 135.279 73.4827 135.597L63.3145 135.703V138.721C63.3145 142.585 65.5799 155.98 67.3185 162.44C72.7978 182.664 82.8606 197.065 95.5577 202.942C108.887 209.083 126.905 207.124 146.873 197.383C170.054 186.106 188.442 166.357 198.399 142.162C208.567 117.543 208.093 86.2529 197.24 61.8456L195.712 58.4043L195.343 61.7397Z" fill="#2B3944"/>
<path d="M166.61 23.6468C197.337 59.2302 161.169 101.786 127.223 114.96C107.235 122.702 85.7956 124.582 64.7346 126.734C64.4975 126.759 64.2578 126.727 64.0356 126.641C63.8133 126.555 63.6148 126.417 63.4566 126.24C63.2983 126.063 63.1849 125.851 63.1257 125.622C63.0665 125.393 63.0631 125.153 63.116 124.922C70.9917 89.5641 88.6147 36.423 123.969 18.7471C137.757 11.8514 155.2 10.4529 166.61 23.6468Z" fill="#0073E6"/>
<path d="M622.283 128.923C624.427 128.923 626.601 128.368 628.806 127.257C631.072 126.146 633.338 124.418 635.604 122.073C637.931 119.728 640.32 116.704 642.769 113.001C645.219 109.237 647.73 104.762 650.302 99.5785L651.221 97.6345L654.988 100.504L654.069 102.448C650.762 109.052 647.455 114.698 644.147 119.389C640.901 124.079 637.686 127.905 634.501 130.867C631.378 133.83 628.285 135.99 625.223 137.347C622.161 138.705 619.221 139.384 616.404 139.384C612.423 139.384 608.871 138.551 605.747 136.885C602.624 135.218 599.99 132.966 597.847 130.127C595.703 127.226 594.08 123.894 592.978 120.129C591.814 116.303 591.232 112.292 591.232 108.095C591.232 101.43 592.151 95.382 593.988 89.9511C595.764 84.4586 598.153 79.7683 601.154 75.8804C604.216 71.9924 607.676 68.9684 611.535 66.8084C615.393 64.6484 619.405 63.5684 623.569 63.5684C627.795 63.5684 631.01 64.6484 633.215 66.8084C635.481 68.9684 636.614 71.6838 636.614 74.9546C636.614 78.1021 635.726 81.0643 633.95 83.8414C632.174 86.5569 629.755 89.2414 626.693 91.8951C623.692 94.4871 620.201 97.0791 616.22 99.6711C612.239 102.201 608.044 104.824 603.634 107.54C604.063 110.749 604.798 113.68 605.839 116.334C606.88 118.926 608.197 121.178 609.789 123.092C611.382 124.943 613.219 126.393 615.301 127.442C617.384 128.43 619.711 128.923 622.283 128.923ZM625.131 77.7318C625.131 75.2632 624.457 73.3192 623.11 71.8998C621.824 70.4804 620.232 69.7707 618.333 69.7707C616.741 69.7707 615.056 70.357 613.28 71.5295C611.504 72.6404 609.881 74.4609 608.411 76.9912C606.942 79.4598 605.717 82.638 604.737 86.526C603.757 90.414 603.267 95.1351 603.267 100.689V102.818C605.349 101.708 607.646 100.257 610.157 98.4677C612.729 96.6162 615.118 94.5797 617.322 92.358C619.527 90.1363 621.365 87.7911 622.834 85.3226C624.365 82.7923 625.131 80.262 625.131 77.7318Z" fill="#0073E6"/>
<path d="M312.051 107.732C312.051 115.002 310.431 121.479 307.192 127.165C304.045 132.85 299.741 137.324 294.281 140.586C288.913 143.849 282.851 145.48 276.095 145.48C269.339 145.48 263.23 143.849 257.77 140.586C252.309 137.324 247.959 132.85 244.72 127.165C241.573 121.479 240 115.002 240 107.732C240 100.462 241.573 93.9839 244.72 88.2984C247.959 82.6129 252.309 78.139 257.77 74.8768C263.23 71.6147 269.339 69.9836 276.095 69.9836C282.851 69.9836 288.913 71.6147 294.281 74.8768C299.741 78.139 304.045 82.6129 307.192 88.2984C310.431 93.9839 312.051 100.462 312.051 107.732ZM300.944 107.732C300.944 102.326 299.834 97.5722 297.613 93.4712C295.484 89.3702 292.522 86.1546 288.728 83.8245C285.026 81.4944 280.815 80.3293 276.095 80.3293C271.375 80.3293 267.117 81.4944 263.323 83.8245C259.621 86.1546 256.659 89.3702 254.438 93.4712C252.217 97.5722 251.106 102.326 251.106 107.732C251.106 113.044 252.217 117.751 254.438 121.852C256.659 125.953 259.621 129.215 263.323 131.639C267.117 133.969 271.375 135.134 276.095 135.134C280.815 135.134 285.026 133.969 288.728 131.639C292.522 129.215 295.484 125.953 297.613 121.852C299.834 117.751 300.944 113.044 300.944 107.732Z" fill="#2B3944"/>
<path d="M364.156 70.6826C370.449 70.6826 376.095 72.2671 381.092 75.4361C386.09 78.605 390.024 82.9857 392.893 88.578C395.854 94.1703 397.335 100.601 397.335 107.871C397.335 115.048 395.854 121.479 392.893 127.165C390.024 132.757 386.09 137.184 381.092 140.447C376.187 143.615 370.634 145.2 364.433 145.2C361.009 145.2 357.77 144.687 354.716 143.662C351.754 142.544 349.024 141.146 346.525 139.468C344.119 137.697 342.082 135.74 340.417 133.596C338.751 131.359 337.547 129.169 336.807 127.025L339.861 125.068V166.311C339.861 167.895 339.352 169.247 338.334 170.365C337.316 171.484 335.974 172.043 334.308 172.043C332.735 172.043 331.393 171.484 330.282 170.365C329.264 169.34 328.755 167.989 328.755 166.311V76.974C328.755 75.3895 329.264 74.0846 330.282 73.0593C331.393 71.9409 332.735 71.3817 334.308 71.3817C335.974 71.3817 337.316 71.9409 338.334 73.0593C339.352 74.0846 339.861 75.3895 339.861 76.974V89.4168L337.779 88.2984C338.427 85.9682 339.537 83.7313 341.111 81.5876C342.777 79.4439 344.766 77.5798 347.08 75.9953C349.486 74.3176 352.124 73.0128 354.993 72.0807C357.955 71.1486 361.009 70.6826 364.156 70.6826ZM362.906 81.0284C358.279 81.0284 354.16 82.1934 350.551 84.5236C347.034 86.8537 344.257 90.0226 342.221 94.0305C340.278 98.0383 339.306 102.652 339.306 107.871C339.306 112.998 340.278 117.611 342.221 121.712C344.257 125.813 347.034 129.029 350.551 131.359C354.16 133.689 358.279 134.854 362.906 134.854C367.534 134.854 371.606 133.689 375.123 131.359C378.64 129.029 381.416 125.813 383.453 121.712C385.489 117.611 386.507 112.998 386.507 107.871C386.507 102.652 385.489 98.0383 383.453 94.0305C381.416 90.0226 378.64 86.8537 375.123 84.5236C371.606 82.1934 367.534 81.0284 362.906 81.0284Z" fill="#2B3944"/>
<path d="M447.209 145.48C439.805 145.48 433.327 143.895 427.774 140.726C422.221 137.557 417.871 133.223 414.724 127.724C411.67 122.132 410.143 115.701 410.143 108.431C410.143 100.322 411.716 93.4246 414.863 87.7391C418.102 81.9604 422.267 77.5798 427.357 74.5972C432.54 71.5215 438.001 69.9836 443.739 69.9836C447.996 69.9836 452.114 70.7758 456.094 72.3603C460.074 73.9448 463.591 76.2749 466.645 79.3507C469.699 82.3332 472.152 85.9682 474.003 90.2557C475.854 94.4499 476.825 99.1567 476.918 104.376C476.918 105.867 476.363 107.126 475.252 108.151C474.141 109.176 472.846 109.689 471.365 109.689H416.529L414.03 100.042H467.478L465.257 101.999V98.9237C464.886 95.1023 463.591 91.8401 461.37 89.1372C459.241 86.3411 456.603 84.1973 453.456 82.7061C450.402 81.2148 447.163 80.4691 443.739 80.4691C440.962 80.4691 438.186 80.9818 435.409 82.007C432.725 82.9391 430.273 84.5236 428.051 86.7605C425.923 88.9042 424.164 91.7003 422.776 95.1489C421.48 98.5975 420.832 102.745 420.832 107.592C420.832 112.998 421.897 117.751 424.025 121.852C426.247 125.953 429.301 129.215 433.188 131.639C437.075 133.969 441.61 135.134 446.793 135.134C450.032 135.134 452.855 134.714 455.261 133.876C457.668 133.037 459.75 132.011 461.508 130.8C463.267 129.495 464.748 128.19 465.951 126.885C467.154 126.046 468.311 125.627 469.421 125.627C470.81 125.627 471.92 126.093 472.753 127.025C473.679 127.957 474.141 129.076 474.141 130.38C474.141 131.965 473.401 133.363 471.92 134.575C469.329 137.464 465.812 140.027 461.37 142.264C456.927 144.408 452.207 145.48 447.209 145.48Z" fill="#2B3944"/>
<path d="M529.289 69.9836C535.582 69.9836 540.534 71.2885 544.143 73.8982C547.753 76.5079 550.298 80.0031 551.779 84.3838C553.352 88.7644 554.139 93.6576 554.139 99.0635V138.349C554.139 139.934 553.583 141.285 552.473 142.404C551.455 143.522 550.159 144.082 548.586 144.082C547.012 144.082 545.67 143.522 544.56 142.404C543.542 141.285 543.033 139.934 543.033 138.349V99.3431C543.033 95.8014 542.477 92.6324 541.367 89.8362C540.349 86.9469 538.59 84.6634 536.091 82.9857C533.685 81.2148 530.353 80.3293 526.096 80.3293C522.209 80.3293 518.646 81.2148 515.406 82.9857C512.167 84.6634 509.576 86.9469 507.632 89.8362C505.689 92.6324 504.717 95.8014 504.717 99.3431V138.349C504.717 139.934 504.161 141.285 503.051 142.404C502.033 143.522 500.737 144.082 499.164 144.082C497.59 144.082 496.248 143.522 495.138 142.404C494.12 141.285 493.611 139.934 493.611 138.349V77.3934C493.611 75.8089 494.12 74.504 495.138 73.4788C496.248 72.3603 497.59 71.8011 499.164 71.8011C500.83 71.8011 502.172 72.3603 503.19 73.4788C504.208 74.504 504.717 75.8089 504.717 77.3934V87.3197L501.94 90.3955C502.403 87.9721 503.467 85.5488 505.133 83.1255C506.799 80.6089 508.882 78.372 511.38 76.4147C513.879 74.4574 516.656 72.9195 519.71 71.8011C522.764 70.5894 525.957 69.9836 529.289 69.9836Z" fill="#2B3944"/>
<path d="M695.989 63.8017C700.705 63.8017 704.958 64.3149 708.75 65.3413C712.541 66.3677 715.546 67.7674 717.765 69.5403C719.984 71.3133 721.094 73.3194 721.094 75.5589C721.094 76.772 720.678 77.9384 719.846 79.0581C719.013 80.1778 717.904 80.7377 716.517 80.7377C715.222 80.7377 714.159 80.5044 713.327 80.0379C712.587 79.5713 711.847 78.9648 711.107 78.2183C710.46 77.4718 709.535 76.8186 708.333 76.2588C707.224 75.6056 705.606 75.0924 703.479 74.7191C701.352 74.3459 699.225 74.1593 697.099 74.1593C692.013 74.1593 687.528 75.3723 683.645 77.7984C679.853 80.2245 676.848 83.4904 674.629 87.5961C672.41 91.7018 671.3 96.3674 671.3 101.593C671.3 106.818 672.364 111.484 674.49 115.59C676.617 119.695 679.576 122.961 683.367 125.387C687.158 127.813 691.551 129.026 696.544 129.026C699.78 129.026 702.369 128.746 704.311 128.187C706.253 127.627 707.871 126.974 709.166 126.227C710.83 125.294 712.078 124.361 712.911 123.428C713.835 122.495 715.037 122.028 716.517 122.028C718.089 122.028 719.291 122.541 720.123 123.568C721.048 124.594 721.51 125.854 721.51 127.347C721.51 129.026 720.354 130.799 718.042 132.666C715.731 134.532 712.587 136.118 708.611 137.424C704.727 138.731 700.289 139.384 695.296 139.384C688.268 139.384 682.119 137.751 676.848 134.485C671.578 131.126 667.463 126.6 664.504 120.908C661.637 115.123 660.204 108.684 660.204 101.593C660.204 94.5012 661.684 88.1093 664.643 82.4173C667.694 76.7253 671.901 72.1997 677.264 68.8405C682.627 65.4813 688.869 63.8017 695.989 63.8017Z" fill="#2B3944"/>
<path d="M748.218 132.246C748.218 133.832 747.663 135.185 746.553 136.305C745.444 137.424 744.103 137.984 742.531 137.984C740.959 137.984 739.664 137.424 738.647 136.305C737.63 135.185 737.121 133.832 737.121 132.246V40.0073C737.121 38.421 737.63 37.1146 738.647 36.0882C739.757 34.9684 741.098 34.4086 742.67 34.4086C744.334 34.4086 745.675 34.9684 746.692 36.0882C747.709 37.1146 748.218 38.421 748.218 40.0073V132.246Z" fill="#2B3944"/>
<path d="M828.826 64.9214C830.398 64.9214 831.692 65.4813 832.709 66.601C833.819 67.6274 834.374 68.9338 834.374 70.5201V132.246C834.374 133.832 833.819 135.185 832.709 136.305C831.692 137.424 830.398 137.984 828.826 137.984C827.161 137.984 825.821 137.424 824.803 136.305C823.786 135.185 823.278 133.832 823.278 132.246V118.949L825.913 118.669C825.913 120.722 825.219 122.961 823.832 125.387C822.445 127.813 820.55 130.099 818.146 132.246C815.742 134.298 812.875 136.025 809.546 137.424C806.31 138.731 802.796 139.384 799.005 139.384C792.717 139.384 787.077 137.751 782.083 134.485C777.09 131.126 773.114 126.6 770.155 120.908C767.289 115.216 765.855 108.731 765.855 101.453C765.855 94.0813 767.289 87.5961 770.155 81.9974C773.114 76.3054 777.09 71.8731 782.083 68.7005C787.077 65.4346 792.625 63.8017 798.728 63.8017C802.704 63.8017 806.402 64.4549 809.824 65.7612C813.245 67.0676 816.204 68.8405 818.701 71.08C821.29 73.3195 823.278 75.7922 824.665 78.4982C826.144 81.2043 826.884 83.9103 826.884 86.6163L823.278 85.7765V70.5201C823.278 68.9338 823.786 67.6274 824.803 66.601C825.821 65.4813 827.161 64.9214 828.826 64.9214ZM800.253 129.026C804.877 129.026 808.945 127.813 812.459 125.387C816.065 122.961 818.839 119.695 820.781 115.59C822.815 111.391 823.832 106.678 823.832 101.453C823.832 96.3207 822.815 91.7018 820.781 87.5961C818.839 83.3971 816.065 80.1312 812.459 77.7984C808.945 75.3723 804.877 74.1593 800.253 74.1593C795.722 74.1593 791.654 75.3256 788.048 77.6584C784.534 79.9912 781.76 83.2105 779.725 87.3162C777.691 91.4219 776.674 96.1341 776.674 101.453C776.674 106.678 777.645 111.391 779.587 115.59C781.621 119.695 784.395 122.961 787.909 125.387C791.515 127.813 795.63 129.026 800.253 129.026Z" fill="#2B3944"/>
<path d="M850.915 126.507C850.083 125.294 849.713 124.034 849.805 122.728C849.898 121.328 850.684 120.115 852.163 119.089C853.088 118.436 854.151 118.156 855.353 118.249C856.648 118.342 857.804 118.949 858.821 120.068C861.41 123.148 864.369 125.621 867.698 127.487C871.027 129.26 875.095 130.146 879.904 130.146C882.123 130.053 884.342 129.68 886.561 129.026C888.78 128.373 890.63 127.253 892.109 125.667C893.681 123.988 894.467 121.795 894.467 119.089C894.467 116.476 893.681 114.423 892.109 112.93C890.537 111.344 888.503 110.084 886.006 109.151C883.51 108.125 880.782 107.238 877.823 106.492C874.772 105.652 871.766 104.719 868.807 103.692C865.848 102.573 863.167 101.22 860.763 99.6333C858.451 97.9537 856.555 95.9008 855.076 93.4747C853.689 90.9553 852.995 87.9227 852.995 84.3769C852.995 80.1778 854.105 76.5387 856.324 73.4594C858.636 70.3801 861.687 68.0007 865.479 66.3211C869.362 64.6415 873.569 63.8017 878.1 63.8017C880.689 63.8017 883.371 64.1283 886.145 64.7815C889.012 65.3413 891.786 66.3677 894.467 67.8607C897.149 69.2604 899.507 71.2199 901.541 73.7393C902.373 74.6725 902.835 75.8389 902.928 77.2385C903.02 78.6382 902.419 79.8979 901.125 81.0176C900.108 81.7641 898.952 82.0907 897.657 81.9974C896.455 81.9041 895.438 81.4375 894.606 80.5977C892.664 78.265 890.214 76.492 887.255 75.279C884.388 73.9726 881.198 73.3195 877.684 73.3195C875.465 73.3195 873.292 73.646 871.165 74.2992C869.039 74.9524 867.235 76.0721 865.756 77.6584C864.369 79.1514 863.675 81.2509 863.675 83.957C863.768 86.4764 864.6 88.5292 866.172 90.1155C867.744 91.7018 869.871 93.0082 872.552 94.0346C875.234 94.9677 878.193 95.9008 881.429 96.8339C884.388 97.5804 887.208 98.4669 889.89 99.4933C892.664 100.426 895.161 101.686 897.38 103.272C899.599 104.859 901.356 106.912 902.65 109.431C903.945 111.857 904.592 114.936 904.592 118.669C904.592 122.961 903.39 126.694 900.986 129.866C898.582 132.945 895.392 135.325 891.416 137.005C887.532 138.591 883.325 139.384 878.794 139.384C873.708 139.384 868.669 138.404 863.675 136.445C858.775 134.485 854.521 131.173 850.915 126.507Z" fill="#2B3944"/>
<path d="M916.608 126.507C915.776 125.294 915.406 124.034 915.499 122.728C915.591 121.328 916.377 120.115 917.857 119.089C918.781 118.436 919.845 118.156 921.047 118.249C922.341 118.342 923.497 118.949 924.514 120.068C927.103 123.148 930.062 125.621 933.391 127.487C936.72 129.26 940.789 130.146 945.597 130.146C947.816 130.053 950.035 129.68 952.255 129.026C954.474 128.373 956.323 127.253 957.803 125.667C959.375 123.988 960.161 121.795 960.161 119.089C960.161 116.476 959.375 114.423 957.803 112.93C956.231 111.344 954.196 110.084 951.7 109.151C949.203 108.125 946.475 107.238 943.516 106.492C940.465 105.652 937.46 104.719 934.501 103.692C931.542 102.573 928.86 101.22 926.456 99.6333C924.144 97.9537 922.249 95.9008 920.769 93.4747C919.382 90.9553 918.689 87.9227 918.689 84.3769C918.689 80.1778 919.798 76.5387 922.018 73.4594C924.329 70.3801 927.381 68.0007 931.172 66.3211C935.056 64.6415 939.263 63.8017 943.794 63.8017C946.383 63.8017 949.064 64.1283 951.839 64.7815C954.705 65.3413 957.479 66.3677 960.161 67.8607C962.842 69.2604 965.2 71.2199 967.234 73.7393C968.067 74.6725 968.529 75.8389 968.621 77.2385C968.714 78.6382 968.113 79.8979 966.818 81.0176C965.801 81.7641 964.645 82.0907 963.351 81.9974C962.149 81.9041 961.131 81.4375 960.299 80.5977C958.357 78.265 955.907 76.492 952.948 75.279C950.082 73.9726 946.891 73.3195 943.378 73.3195C941.159 73.3195 938.986 73.646 936.859 74.2992C934.732 74.9524 932.929 76.0721 931.449 77.6584C930.062 79.1514 929.369 81.2509 929.369 83.957C929.461 86.4764 930.294 88.5292 931.866 90.1155C933.437 91.7018 935.564 93.0082 938.246 94.0346C940.927 94.9677 943.886 95.9008 947.123 96.8339C950.082 97.5804 952.902 98.4669 955.583 99.4933C958.357 100.426 960.854 101.686 963.073 103.272C965.292 104.859 967.049 106.912 968.344 109.431C969.638 111.857 970.286 114.936 970.286 118.669C970.286 122.961 969.084 126.694 966.68 129.866C964.275 132.945 961.085 135.325 957.109 137.005C953.225 138.591 949.018 139.384 944.487 139.384C939.402 139.384 934.362 138.404 929.369 136.445C924.468 134.485 920.215 131.173 916.608 126.507Z" fill="#2B3944"/>
<path d="M373.035 223.421C369.386 223.421 366.195 222.615 363.464 221.004C360.756 219.369 358.644 217.101 357.129 214.199C355.614 211.275 354.857 207.867 354.857 203.976C354.857 199.9 355.603 196.377 357.095 193.407C358.587 190.414 360.664 188.111 363.326 186.499C366.012 184.864 369.156 184.047 372.76 184.047C376.501 184.047 379.68 184.91 382.296 186.637C384.936 188.364 386.91 190.828 388.218 194.029C389.549 197.229 390.123 201.04 389.939 205.461H383.742V203.251C383.673 198.668 382.744 195.249 380.954 192.993C379.163 190.713 376.501 189.573 372.966 189.573C369.179 189.573 366.299 190.794 364.325 193.234C362.351 195.675 361.364 199.175 361.364 203.734C361.364 208.132 362.351 211.54 364.325 213.958C366.299 216.375 369.11 217.584 372.76 217.584C375.215 217.584 377.35 217.02 379.163 215.892C380.976 214.764 382.4 213.14 383.432 211.022L389.32 213.06C387.874 216.352 385.693 218.908 382.778 220.727C379.886 222.523 376.639 223.421 373.035 223.421ZM359.298 205.461V200.522H386.772V205.461H359.298Z" fill="#74AFE9"/>
<path d="M396.916 203.147V198.07H417.573V203.147H396.916Z" fill="#74AFE9"/>
<path d="M427.207 222.385V171.613H433.336V222.385H427.207Z" fill="#74AFE9"/>
<path d="M459.778 223.421C456.129 223.421 452.938 222.615 450.207 221.004C447.499 219.369 445.387 217.101 443.872 214.199C442.357 211.275 441.6 207.867 441.6 203.976C441.6 199.9 442.346 196.377 443.838 193.407C445.33 190.414 447.407 188.111 450.069 186.499C452.755 184.864 455.899 184.047 459.503 184.047C463.244 184.047 466.423 184.91 469.039 186.637C471.679 188.364 473.653 190.828 474.961 194.029C476.292 197.229 476.866 201.04 476.682 205.461H470.485V203.251C470.416 198.668 469.487 195.249 467.696 192.993C465.906 190.713 463.244 189.573 459.709 189.573C455.922 189.573 453.042 190.794 451.068 193.234C449.094 195.675 448.107 199.175 448.107 203.734C448.107 208.132 449.094 211.54 451.068 213.958C453.042 216.375 455.853 217.584 459.503 217.584C461.958 217.584 464.093 217.02 465.906 215.892C467.719 214.764 469.142 213.14 470.175 211.022L476.063 213.06C474.617 216.352 472.436 218.908 469.521 220.727C466.629 222.523 463.381 223.421 459.778 223.421ZM446.041 205.461V200.522H473.515V205.461H446.041Z" fill="#74AFE9"/>
<path d="M494.244 223.421C491.467 223.421 489.138 222.915 487.255 221.902C485.396 220.865 483.985 219.507 483.021 217.826C482.08 216.145 481.609 214.303 481.609 212.3C481.609 210.343 481.976 208.65 482.711 207.223C483.468 205.772 484.524 204.575 485.878 203.631C487.233 202.663 488.851 201.904 490.733 201.351C492.5 200.867 494.474 200.453 496.654 200.108C498.858 199.739 501.084 199.405 503.333 199.106C505.583 198.807 507.683 198.519 509.634 198.242L507.43 199.52C507.499 196.205 506.834 193.752 505.434 192.164C504.056 190.575 501.669 189.78 498.273 189.78C496.023 189.78 494.049 190.298 492.351 191.335C490.675 192.348 489.493 194.006 488.805 196.308L482.986 194.547C483.882 191.277 485.614 188.71 488.185 186.845C490.756 184.979 494.141 184.047 498.341 184.047C501.715 184.047 504.607 184.657 507.017 185.877C509.45 187.075 511.195 188.894 512.25 191.335C512.778 192.486 513.111 193.741 513.249 195.099C513.386 196.435 513.455 197.839 513.455 199.313V222.385H508.016V213.44L509.29 214.269C507.889 217.285 505.927 219.564 503.402 221.107C500.901 222.65 497.848 223.421 494.244 223.421ZM495.174 218.275C497.377 218.275 499.282 217.884 500.889 217.101C502.519 216.295 503.827 215.247 504.814 213.958C505.801 212.645 506.443 211.218 506.742 209.675C507.086 208.524 507.27 207.246 507.293 205.841C507.339 204.413 507.362 203.32 507.362 202.56L509.496 203.492C507.499 203.769 505.537 204.033 503.609 204.287C501.681 204.54 499.856 204.816 498.135 205.116C496.413 205.392 494.864 205.726 493.487 206.117C492.477 206.44 491.525 206.854 490.629 207.361C489.757 207.867 489.046 208.524 488.495 209.329C487.967 210.112 487.703 211.091 487.703 212.265C487.703 213.278 487.956 214.245 488.46 215.167C488.988 216.088 489.792 216.836 490.87 217.412C491.972 217.987 493.407 218.275 495.174 218.275Z" fill="#74AFE9"/>
<path d="M522.407 222.385V185.083H527.881V194.098L526.986 192.923C527.422 191.772 527.984 190.713 528.673 189.746C529.384 188.779 530.176 187.984 531.048 187.363C532.012 186.58 533.102 185.981 534.319 185.567C535.535 185.152 536.775 184.91 538.037 184.841C539.299 184.749 540.481 184.83 541.583 185.083V190.851C540.298 190.506 538.886 190.414 537.349 190.575C535.811 190.736 534.388 191.3 533.079 192.267C531.886 193.119 530.956 194.155 530.291 195.376C529.648 196.596 529.201 197.92 528.948 199.348C528.696 200.752 528.569 202.191 528.569 203.665V222.385H522.407Z" fill="#74AFE9"/>
<path d="M574.569 222.385V203.7C574.569 201.927 574.408 200.223 574.087 198.588C573.788 196.953 573.249 195.491 572.469 194.201C571.711 192.889 570.678 191.853 569.37 191.093C568.085 190.333 566.455 189.953 564.481 189.953C562.943 189.953 561.543 190.218 560.281 190.747C559.042 191.254 557.974 192.037 557.079 193.096C556.184 194.155 555.484 195.491 554.979 197.103C554.497 198.691 554.256 200.568 554.256 202.732L550.228 201.489C550.228 197.874 550.871 194.777 552.156 192.198C553.464 189.596 555.289 187.604 557.63 186.223C559.994 184.818 562.771 184.116 565.962 184.116C568.372 184.116 570.426 184.496 572.124 185.256C573.823 186.016 575.234 187.029 576.359 188.295C577.484 189.539 578.367 190.943 579.01 192.509C579.653 194.052 580.1 195.629 580.353 197.241C580.628 198.83 580.766 200.338 580.766 201.765V222.385H574.569ZM548.059 222.385V185.083H553.567V195.065H554.256V222.385H548.059Z" fill="#74AFE9"/>
<path d="M590.405 178.486V172.131H596.533V178.486H590.405ZM590.405 222.385V185.083H596.533V222.385H590.405Z" fill="#74AFE9"/>
<path d="M633.339 222.385V203.7C633.339 201.927 633.178 200.223 632.857 198.588C632.558 196.953 632.019 195.491 631.239 194.201C630.481 192.889 629.448 191.853 628.14 191.093C626.855 190.333 625.225 189.953 623.251 189.953C621.713 189.953 620.313 190.218 619.051 190.747C617.812 191.254 616.744 192.037 615.849 193.096C614.954 194.155 614.254 195.491 613.749 197.103C613.267 198.691 613.026 200.568 613.026 202.732L608.998 201.489C608.998 197.874 609.641 194.777 610.926 192.198C612.234 189.596 614.059 187.604 616.4 186.223C618.764 184.818 621.541 184.116 624.732 184.116C627.142 184.116 629.196 184.496 630.894 185.256C632.593 186.016 634.004 187.029 635.129 188.295C636.254 189.539 637.137 190.943 637.78 192.509C638.423 194.052 638.87 195.629 639.123 197.241C639.398 198.83 639.536 200.338 639.536 201.765V222.385H633.339ZM606.829 222.385V185.083H612.337V195.065H613.026V222.385H606.829Z" fill="#74AFE9"/>
<path d="M663.532 240C661.581 240 659.676 239.701 657.817 239.102C655.957 238.503 654.248 237.594 652.687 236.373C651.149 235.176 649.864 233.656 648.831 231.814L654.443 228.844C655.361 230.663 656.658 231.987 658.333 232.816C660.031 233.645 661.776 234.059 663.566 234.059C665.93 234.059 667.893 233.622 669.453 232.747C671.014 231.895 672.162 230.617 672.896 228.913C673.654 227.209 674.021 225.091 673.998 222.558V212.369H674.721V185.083H680.161V222.627C680.161 223.64 680.126 224.619 680.057 225.563C680.011 226.507 679.897 227.439 679.713 228.36C679.231 231.008 678.278 233.184 676.855 234.888C675.432 236.615 673.596 237.893 671.347 238.722C669.098 239.574 666.493 240 663.532 240ZM663.084 223.421C659.618 223.421 656.646 222.558 654.167 220.831C651.688 219.081 649.772 216.721 648.418 213.75C647.086 210.78 646.421 207.43 646.421 203.7C646.421 199.969 647.086 196.619 648.418 193.649C649.772 190.678 651.688 188.341 654.167 186.637C656.646 184.91 659.607 184.047 663.05 184.047C666.561 184.047 669.511 184.899 671.898 186.603C674.285 188.307 676.087 190.644 677.303 193.614C678.542 196.585 679.162 199.946 679.162 203.7C679.162 207.407 678.542 210.757 677.303 213.75C676.087 216.721 674.285 219.081 671.898 220.831C669.511 222.558 666.573 223.421 663.084 223.421ZM663.842 217.791C666.343 217.791 668.398 217.193 670.004 215.995C671.611 214.775 672.793 213.106 673.55 210.987C674.331 208.846 674.721 206.417 674.721 203.7C674.721 200.936 674.331 198.507 673.55 196.412C672.793 194.293 671.622 192.647 670.039 191.473C668.455 190.275 666.447 189.677 664.014 189.677C661.489 189.677 659.4 190.298 657.748 191.542C656.118 192.785 654.902 194.466 654.098 196.585C653.318 198.703 652.928 201.075 652.928 203.7C652.928 206.348 653.329 208.742 654.133 210.884C654.936 213.002 656.141 214.683 657.748 215.926C659.377 217.17 661.409 217.791 663.842 217.791Z" fill="#74AFE9"/>
<path d="M720.635 223.421C717.146 223.421 714.208 222.558 711.821 220.831C709.434 219.081 707.621 216.721 706.381 213.75C705.165 210.757 704.557 207.407 704.557 203.7C704.557 199.946 705.165 196.585 706.381 193.614C707.621 190.644 709.434 188.307 711.821 186.603C714.231 184.899 717.18 184.047 720.669 184.047C724.112 184.047 727.073 184.91 729.552 186.637C732.053 188.341 733.97 190.678 735.301 193.649C736.632 196.619 737.298 199.969 737.298 203.7C737.298 207.43 736.632 210.78 735.301 213.75C733.97 216.721 732.053 219.081 729.552 220.831C727.073 222.558 724.1 223.421 720.635 223.421ZM703.524 238.964V185.083H708.998V212.542H709.686V238.964H703.524ZM719.877 217.791C722.333 217.791 724.364 217.17 725.971 215.926C727.578 214.683 728.783 213.002 729.586 210.884C730.389 208.742 730.791 206.348 730.791 203.7C730.791 201.075 730.389 198.703 729.586 196.585C728.806 194.466 727.589 192.785 725.937 191.542C724.307 190.298 722.23 189.677 719.705 189.677C717.295 189.677 715.298 190.275 713.715 191.473C712.131 192.647 710.949 194.293 710.168 196.412C709.388 198.507 708.998 200.936 708.998 203.7C708.998 206.417 709.377 208.846 710.134 210.987C710.914 213.106 712.108 214.775 713.715 215.995C715.321 217.193 717.375 217.791 719.877 217.791Z" fill="#74AFE9"/>
<path d="M745.534 222.385V171.613H751.662V222.385H745.534Z" fill="#74AFE9"/>
<path d="M772.562 223.421C769.784 223.421 767.455 222.915 765.573 221.902C763.714 220.865 762.302 219.507 761.338 217.826C760.397 216.145 759.926 214.303 759.926 212.3C759.926 210.343 760.294 208.65 761.028 207.223C761.786 205.772 762.841 204.575 764.195 203.631C765.55 202.663 767.168 201.904 769.05 201.351C770.817 200.867 772.791 200.453 774.972 200.108C777.175 199.739 779.401 199.405 781.651 199.106C783.9 198.807 786 198.519 787.951 198.242L785.748 199.52C785.816 196.205 785.151 193.752 783.751 192.164C782.374 190.575 779.987 189.78 776.59 189.78C774.34 189.78 772.366 190.298 770.668 191.335C768.993 192.348 767.81 194.006 767.122 196.308L761.304 194.547C762.199 191.277 763.932 188.71 766.502 186.845C769.073 184.979 772.458 184.047 776.659 184.047C780.033 184.047 782.924 184.657 785.334 185.877C787.767 187.075 789.512 188.894 790.568 191.335C791.095 192.486 791.428 193.741 791.566 195.099C791.704 196.435 791.773 197.839 791.773 199.313V222.385H786.333V213.44L787.607 214.269C786.207 217.285 784.244 219.564 781.719 221.107C779.218 222.65 776.165 223.421 772.562 223.421ZM773.491 218.275C775.695 218.275 777.6 217.884 779.206 217.101C780.836 216.295 782.144 215.247 783.131 213.958C784.118 212.645 784.761 211.218 785.059 209.675C785.403 208.524 785.587 207.246 785.61 205.841C785.656 204.413 785.679 203.32 785.679 202.56L787.813 203.492C785.816 203.769 783.854 204.033 781.926 204.287C779.998 204.54 778.173 204.816 776.452 205.116C774.731 205.392 773.181 205.726 771.804 206.117C770.794 206.44 769.842 206.854 768.947 207.361C768.074 207.867 767.363 208.524 766.812 209.329C766.284 210.112 766.02 211.091 766.02 212.265C766.02 213.278 766.273 214.245 766.778 215.167C767.306 216.088 768.109 216.836 769.188 217.412C770.289 217.987 771.724 218.275 773.491 218.275Z" fill="#74AFE9"/>
<path d="M821.484 222.385C819.281 222.823 817.1 222.995 814.943 222.903C812.808 222.834 810.903 222.408 809.228 221.625C807.552 220.819 806.278 219.576 805.406 217.895C804.672 216.421 804.27 214.936 804.201 213.44C804.155 211.92 804.132 210.204 804.132 208.293V174.721H810.26V208.017C810.26 209.537 810.272 210.838 810.295 211.92C810.341 213.002 810.582 213.935 811.018 214.718C811.844 216.191 813.152 217.055 814.943 217.308C816.756 217.561 818.936 217.492 821.484 217.101V222.385ZM796.592 190.16V185.083H821.484V190.16H796.592Z" fill="#74AFE9"/>
<path d="M832.579 222.385V183.045C832.579 182.078 832.625 181.1 832.717 180.109C832.809 179.096 833.015 178.118 833.336 177.174C833.658 176.207 834.186 175.32 834.92 174.514C835.769 173.57 836.699 172.902 837.709 172.511C838.719 172.096 839.74 171.843 840.773 171.751C841.829 171.659 842.827 171.613 843.768 171.613H848.485V176.725H844.113C842.299 176.725 840.945 177.174 840.05 178.072C839.155 178.947 838.707 180.282 838.707 182.078V222.385H832.579ZM826.279 190.16V185.083H848.485V190.16H826.279Z" fill="#74AFE9"/>
<path d="M868.472 223.421C864.777 223.421 861.586 222.581 858.901 220.9C856.239 219.219 854.184 216.893 852.738 213.923C851.292 210.953 850.569 207.545 850.569 203.7C850.569 199.785 851.304 196.354 852.773 193.407C854.242 190.46 856.319 188.169 859.004 186.534C861.69 184.876 864.846 184.047 868.472 184.047C872.19 184.047 875.392 184.887 878.078 186.568C880.763 188.226 882.817 190.54 884.24 193.511C885.686 196.458 886.409 199.854 886.409 203.7C886.409 207.591 885.686 211.022 884.24 213.992C882.794 216.94 880.729 219.254 878.043 220.935C875.358 222.592 872.167 223.421 868.472 223.421ZM868.472 217.584C872.328 217.584 875.197 216.295 877.079 213.716C878.961 211.137 879.902 207.798 879.902 203.7C879.902 199.486 878.95 196.136 877.045 193.649C875.14 191.139 872.282 189.884 868.472 189.884C865.879 189.884 863.744 190.471 862.068 191.645C860.393 192.82 859.142 194.443 858.316 196.515C857.49 198.588 857.076 200.983 857.076 203.7C857.076 207.89 858.04 211.252 859.968 213.785C861.896 216.318 864.731 217.584 868.472 217.584Z" fill="#74AFE9"/>
<path d="M893.989 222.385V185.083H899.463V194.098L898.568 192.923C899.004 191.772 899.567 190.713 900.255 189.746C900.967 188.779 901.759 187.984 902.631 187.363C903.595 186.58 904.685 185.981 905.902 185.567C907.118 185.152 908.357 184.91 909.62 184.841C910.882 184.749 912.064 184.83 913.166 185.083V190.851C911.881 190.506 910.469 190.414 908.931 190.575C907.393 190.736 905.97 191.3 904.662 192.267C903.469 193.119 902.539 194.155 901.873 195.376C901.231 196.596 900.783 197.92 900.531 199.348C900.278 200.752 900.152 202.191 900.152 203.665V222.385H893.989Z" fill="#74AFE9"/>
<path d="M964.123 222.385L964.157 198.519C964.157 195.733 963.411 193.557 961.919 191.991C960.451 190.402 958.534 189.608 956.17 189.608C954.793 189.608 953.484 189.93 952.245 190.575C951.006 191.196 949.996 192.187 949.215 193.545C948.435 194.881 948.045 196.596 948.045 198.691L944.809 197.379C944.763 194.731 945.302 192.417 946.427 190.437C947.574 188.433 949.135 186.879 951.109 185.774C953.083 184.669 955.309 184.116 957.788 184.116C961.667 184.116 964.72 185.302 966.946 187.674C969.172 190.022 970.286 193.188 970.286 197.172L970.251 222.385H964.123ZM919.642 222.385V185.083H925.116V195.065H925.804V222.385H919.642ZM941.917 222.385L941.951 198.761C941.951 195.905 941.217 193.672 939.748 192.06C938.279 190.425 936.328 189.608 933.895 189.608C931.485 189.608 929.534 190.437 928.042 192.095C926.55 193.752 925.804 195.951 925.804 198.691L922.568 196.757C922.568 194.34 923.142 192.175 924.289 190.264C925.437 188.353 926.998 186.856 928.972 185.774C930.946 184.669 933.183 184.116 935.685 184.116C938.187 184.116 940.367 184.646 942.227 185.705C944.086 186.764 945.52 188.284 946.53 190.264C947.54 192.221 948.045 194.558 948.045 197.275L948.01 222.385H941.917Z" fill="#74AFE9"/>
</svg>
