<?xml version="1.0" encoding="utf-8"?>
<!-- Generator: Adobe Illustrator 27.0.0, SVG Export Plug-In . SVG Version: 6.00 Build 0)  -->
<svg version="1.1" id="Layer_1" xmlns="http://www.w3.org/2000/svg" xmlns:xlink="http://www.w3.org/1999/xlink" x="0px" y="0px"
	 viewBox="0 0 53.2 53.2" style="enable-background:new 0 0 53.2 53.2;" xml:space="preserve">
<style type="text/css">
	.st0{fill:#005ED7;}
	.st1{fill:#FFFFFF;}
</style>
<g>
	<circle class="st0" cx="26.6" cy="26.6" r="26.6"/>
	<g>
		<path class="st1" d="M29.8,24.1c-0.9,0.7-2,1.1-3.2,1.1c-1.2,0-2.3-0.4-3.2-1.1c-2.2,1.2-3.7,3.4-3.7,6.1v2.9
			c0,0.6,0.5,1.1,1.1,1.1h11.6c0.6,0,1.1-0.5,1.1-1.1v-2.9C33.5,27.6,32,25.3,29.8,24.1z"/>
		<path class="st1" d="M25.1,23.5c0.5,0.2,1,0.3,1.5,0.3c0.5,0,1.1-0.1,1.5-0.3c1.3-0.6,2.2-1.9,2.2-3.4c0-2.1-1.7-3.7-3.7-3.7
			c-2.1,0-3.7,1.7-3.7,3.7C22.9,21.6,23.8,22.9,25.1,23.5z"/>
	</g>
</g>
</svg>
