<?xml version="1.0" encoding="UTF-8"?>
<!DOCTYPE svg>
<svg xmlns="http://www.w3.org/2000/svg" version="1.1" width="2000px" height="1254px" style="shape-rendering:geometricPrecision; text-rendering:geometricPrecision; image-rendering:optimizeQuality; fill-rule:evenodd; clip-rule:evenodd" xmlns:xlink="http://www.w3.org/1999/xlink">
<g><path style="opacity:0.971" fill="#e7ecf8" d="M 1223.5,0.5 C 1231.22,-0.129884 1233.22,2.87012 1229.5,9.5C 1225.3,10.8996 1222.64,9.39965 1221.5,5C 1222.04,3.415 1222.71,1.915 1223.5,0.5 Z"/></g>
<g><path style="opacity:0.976" fill="#e7ecf8" d="M 1214.5,12.5 C 1220.82,12.3196 1223.32,15.3196 1222,21.5C 1215.86,29.6101 1209.36,37.4434 1202.5,45C 1200.5,45.6667 1198.5,45.6667 1196.5,45C 1187.96,34.9488 1178.8,34.1154 1169,42.5C 1163.69,54.2551 1166.86,62.7551 1178.5,68C 1180.5,68.1667 1182.5,68.3333 1184.5,68.5C 1189.96,67.5815 1195.3,66.4149 1200.5,65C 1204.21,66.6912 1205.38,69.5245 1204,73.5C 1196.31,79.9645 1187.47,82.1311 1177.5,80C 1160.65,75.1288 1153.15,63.9622 1155,46.5C 1159.09,30.0345 1169.59,22.8678 1186.5,25C 1190.97,26.1491 1195.13,27.9825 1199,30.5C 1204.43,24.5745 1209.6,18.5745 1214.5,12.5 Z"/></g>
<g><path style="opacity:0.999" fill="#2b3944" d="M 1074.5,234.5 C 1073.83,234.5 1073.5,234.833 1073.5,235.5C 1072.83,235.5 1072.5,235.833 1072.5,236.5C 1072.17,236.5 1071.83,236.5 1071.5,236.5C 1070.83,236.5 1070.5,236.833 1070.5,237.5C 1069.83,237.5 1069.5,237.833 1069.5,238.5C 1064.97,240.595 1060.64,242.928 1056.5,245.5C 1055.5,245.5 1054.5,245.5 1053.5,245.5C 1027.25,252.235 1001.58,250.401 976.5,240C 959.468,230.318 941.802,221.984 923.5,215C 909.946,209.775 895.946,207.442 881.5,208C 878.667,209.5 876.5,211.667 875,214.5C 869.26,229.887 860.094,242.72 847.5,253C 842.596,255.871 837.429,258.038 832,259.5C 831.478,276.303 828.478,292.636 823,308.5C 820.223,315.446 815.39,320.113 808.5,322.5C 809.457,315.523 809.623,308.523 809,301.5C 803.125,299.015 796.958,297.682 790.5,297.5C 789.991,282.373 790.991,267.373 793.5,252.5C 787.132,249.654 781.132,246.32 775.5,242.5C 763.842,227.625 765.175,214.125 779.5,202C 782.089,200.803 784.756,199.803 787.5,199C 780.46,194.745 777.96,188.578 780,180.5C 783.39,174.577 788.557,171.41 795.5,171C 788.727,153.414 794.893,143.581 814,141.5C 817.151,142.093 820.318,142.593 823.5,143C 835.719,147.442 847.719,152.442 859.5,158C 873.598,161.598 887.265,160.265 900.5,154C 917.833,144.333 935.167,134.667 952.5,125C 970.074,118.075 988.074,116.741 1006.5,121C 1031.63,126.477 1053.13,138.31 1071,156.5C 1085.75,174.159 1090.42,194.159 1085,216.5C 1082.26,222.988 1078.76,228.988 1074.5,234.5 Z"/></g>
<g><path style="opacity:0.985" fill="#2b3944" d="M 638.5,275.5 C 638.665,278.85 638.498,282.183 638,285.5C 634.74,290.285 631.073,290.619 627,286.5C 626.814,283.964 626.314,281.631 625.5,279.5C 626.264,265.191 626.764,250.858 627,236.5C 627.18,233.044 627.847,229.711 629,226.5C 636.753,226.201 644.586,226.035 652.5,226C 674.946,220.25 684.112,206.084 680,183.5C 669.515,159.454 652.015,151.954 627.5,161C 616.496,167.005 608.663,175.838 604,187.5C 600.545,191.413 597.045,191.413 593.5,187.5C 592.269,184.462 592.436,181.462 594,178.5C 609.101,149.865 632.268,139.698 663.5,148C 686.674,159.848 696.507,178.681 693,204.5C 683.866,229.088 666.032,240.754 639.5,239.5C 639.499,251.512 639.166,263.512 638.5,275.5 Z"/></g>
<g><path style="opacity:1" fill="#fceee8" d="M 1053.5,245.5 C 1053.5,249.833 1053.5,254.167 1053.5,258.5C 1049.92,299.648 1046.75,340.981 1044,382.5C 1041.8,401.477 1039.8,420.477 1038,439.5C 1034.62,472.092 1017.79,494.592 987.5,507C 978.962,509.571 970.295,511.405 961.5,512.5C 960.448,518.796 959.781,525.13 959.5,531.5C 951.406,537.391 943.072,543.058 934.5,548.5C 934.719,539.644 934.219,530.644 933,521.5C 930.647,507.067 922.147,500.4 907.5,501.5C 907.667,520.17 907.5,538.836 907,557.5C 903.536,569.428 898.202,580.428 891,590.5C 881,603.833 871,617.167 861,630.5C 860.184,631.823 859.017,632.489 857.5,632.5C 824.205,624.038 803.372,603.038 795,569.5C 794.502,566.518 794.335,563.518 794.5,560.5C 794.498,554.982 794.165,549.482 793.5,544C 796.889,485.163 800.222,426.33 803.5,367.5C 772.653,368.152 759.153,353.152 763,322.5C 765.759,306.9 774.926,298.566 790.5,297.5C 796.958,297.682 803.125,299.015 809,301.5C 809.623,308.523 809.457,315.523 808.5,322.5C 815.39,320.113 820.223,315.446 823,308.5C 828.478,292.636 831.478,276.303 832,259.5C 837.429,258.038 842.596,255.871 847.5,253C 860.094,242.72 869.26,229.887 875,214.5C 876.5,211.667 878.667,209.5 881.5,208C 895.946,207.442 909.946,209.775 923.5,215C 941.802,221.984 959.468,230.318 976.5,240C 1001.58,250.401 1027.25,252.235 1053.5,245.5 Z"/></g>
<g><path style="opacity:0.87" fill="#4e6792" d="M 1066.5,244.5 C 1063.99,244.927 1061.66,245.593 1059.5,246.5C 1058.39,246.443 1057.39,246.11 1056.5,245.5C 1060.64,242.928 1064.97,240.595 1069.5,238.5C 1070.17,238.5 1070.5,238.167 1070.5,237.5C 1071.17,237.5 1071.5,237.167 1071.5,236.5C 1071.83,236.5 1072.17,236.5 1072.5,236.5C 1073.17,236.5 1073.5,236.167 1073.5,235.5C 1074.17,235.5 1074.5,235.167 1074.5,234.5C 1084.5,228.161 1092.5,219.828 1098.5,209.5C 1099.6,212.19 1099.44,214.857 1098,217.5C 1091.31,231.028 1080.81,240.028 1066.5,244.5 Z"/></g>
<g><path style="opacity:0.998" fill="#eef5fe" d="M 775.5,242.5 C 781.132,246.32 787.132,249.654 793.5,252.5C 790.991,267.373 789.991,282.373 790.5,297.5C 774.926,298.566 765.759,306.9 763,322.5C 759.153,353.152 772.653,368.152 803.5,367.5C 800.222,426.33 796.889,485.163 793.5,544C 794.165,549.482 794.498,554.982 794.5,560.5C 793.521,557.375 793.187,554.042 793.5,550.5C 775.663,553.876 757.996,558.042 740.5,563C 703.979,574.396 667.646,586.396 631.5,599C 596.745,615.425 569.245,639.925 549,672.5C 545.333,679.167 541.667,685.833 538,692.5C 502.149,784.537 463.815,875.537 423,965.5C 416.273,988.382 413.273,1011.72 414,1035.5C 417.587,1076.87 438.087,1106.37 475.5,1124C 508.161,1137.22 541.495,1139.06 575.5,1129.5C 574.833,1130.17 574.167,1130.83 573.5,1131.5C 583.414,1129.37 592.414,1125.37 600.5,1119.5C 609.145,1115.51 617.145,1110.51 624.5,1104.5C 624.831,1133.67 624.498,1162.67 623.5,1191.5C 481.167,1192.36 338.833,1192.86 196.5,1193C 185.46,1159.23 182.293,1124.73 187,1089.5C 192.386,1060.14 206.219,1035.64 228.5,1016C 236.5,1010 244.5,1004 252.5,998C 271.244,986.933 290.244,976.266 309.5,966C 326.034,957.47 340.201,945.97 352,931.5C 362.304,913.816 364.304,895.15 358,875.5C 354.921,865.929 351.255,856.596 347,847.5C 322.524,808.418 304.858,766.418 294,721.5C 276.443,632.076 294.11,550.41 347,476.5C 386.624,423.536 434.457,379.703 490.5,345C 533.449,318.858 578.449,297.025 625.5,279.5C 626.314,281.631 626.814,283.964 627,286.5C 631.073,290.619 634.74,290.285 638,285.5C 638.498,282.183 638.665,278.85 638.5,275.5C 683.046,259.947 728.713,248.947 775.5,242.5 Z"/></g>
<g><path style="opacity:0.958" fill="#2c3a45" d="M 1066.5,244.5 C 1074.14,249.771 1078.14,257.105 1078.5,266.5C 1077.78,269.083 1076.94,271.749 1076,274.5C 1075.7,270.996 1074.86,267.662 1073.5,264.5C 1071.44,256.446 1066.78,250.446 1059.5,246.5C 1061.66,245.593 1063.99,244.927 1066.5,244.5 Z"/></g>
<g><path style="opacity:0.998" fill="#eef5fe" d="M 1053.5,258.5 C 1060.23,260.297 1066.89,262.297 1073.5,264.5C 1074.86,267.662 1075.7,270.996 1076,274.5C 1076.94,271.749 1077.78,269.083 1078.5,266.5C 1199.86,311.029 1279.7,395.029 1318,518.5C 1326.03,554.986 1334.7,591.319 1344,627.5C 1350.31,648.777 1359.31,668.777 1371,687.5C 1384,705.581 1400.83,718.747 1421.5,727C 1437.42,732.864 1453.42,738.53 1469.5,744C 1509.43,759.285 1544.76,781.619 1575.5,811C 1683.29,913.914 1702.12,1031.41 1632,1163.5C 1626.79,1172.76 1620.95,1181.6 1614.5,1190C 1491.17,1190.5 1367.83,1190.67 1244.5,1190.5C 1274.18,1151.93 1286.35,1108.26 1281,1059.5C 1261.26,964.778 1241.26,870.111 1221,775.5C 1203.27,720.163 1173.1,672.996 1130.5,634C 1113.52,619.831 1094.85,608.164 1074.5,599C 1053.57,591.858 1032.57,585.025 1011.5,578.5C 1013.66,562.49 1006.66,555.656 990.5,558C 983.308,560.847 975.975,562.847 968.5,564C 987.633,547.202 1006.47,530.036 1025,512.5C 1029.23,506.961 1029.39,501.461 1025.5,496C 1023.09,495.516 1020.75,495.85 1018.5,497C 998.41,507.957 978.743,519.457 959.5,531.5C 959.781,525.13 960.448,518.796 961.5,512.5C 970.295,511.405 978.962,509.571 987.5,507C 1017.79,494.592 1034.62,472.092 1038,439.5C 1039.8,420.477 1041.8,401.477 1044,382.5C 1046.75,340.981 1049.92,299.648 1053.5,258.5 Z"/></g>
<g><path style="opacity:1" fill="#313f4a" d="M 628.5,307.5 C 637.658,305.835 641.825,309.501 641,318.5C 637.086,325.096 632.086,326.096 626,321.5C 623.418,316.12 624.251,311.453 628.5,307.5 Z"/></g>
<g><path style="opacity:0.917" fill="#b2d0ff" d="M 215.5,436.5 C 231.622,435.164 242.789,441.83 249,456.5C 250.942,470.782 245.775,481.615 233.5,489C 237.234,495.634 240.567,502.467 243.5,509.5C 241.457,515.775 237.624,517.109 232,513.5C 227.547,504.264 223.381,494.931 219.5,485.5C 219.577,483.701 220.077,482.034 221,480.5C 233.21,478.057 238.544,470.723 237,458.5C 231.038,448.735 222.872,446.235 212.5,451C 205.236,457.117 202.069,464.95 203,474.5C 198.54,478.687 194.873,478.02 192,472.5C 191.09,454.624 198.924,442.624 215.5,436.5 Z"/></g>
<g><path style="opacity:0.982" fill="#2a3943" d="M 1609.5,459.5 C 1628.17,457.422 1642.67,464.089 1653,479.5C 1659.97,499.637 1655.13,516.304 1638.5,529.5C 1645.19,538.36 1651.69,547.36 1658,556.5C 1658.52,565.308 1654.85,567.642 1647,563.5C 1639,552.167 1631,540.833 1623,529.5C 1622.33,527.5 1622.33,525.5 1623,523.5C 1627.84,520.412 1632.51,517.079 1637,513.5C 1644.74,503.238 1645.41,492.571 1639,481.5C 1626.47,469.713 1613.3,468.879 1599.5,479C 1590.79,488.808 1588.12,500.142 1591.5,513C 1591.75,517.346 1589.75,519.846 1585.5,520.5C 1580.43,519.214 1577.93,515.881 1578,510.5C 1575.38,485.021 1585.88,468.021 1609.5,459.5 Z"/></g>
<g><path style="opacity:1" fill="#fceee8" d="M 978.5,675.5 C 957.833,691.5 937.167,707.5 916.5,723.5C 893.493,699.159 870.827,674.493 848.5,649.5C 862.403,630.722 876.57,612.055 891,593.5C 899.114,582.605 905.114,570.605 909,557.5C 909.5,539.503 909.667,521.503 909.5,503.5C 918.497,502.911 924.997,506.578 929,514.5C 932.566,527.409 933.233,540.409 931,553.5C 954.742,537.376 978.909,521.876 1003.5,507C 1010.18,503.409 1017.01,500.243 1024,497.5C 1027.22,502.251 1026.89,506.918 1023,511.5C 1002.26,530.783 981.428,549.95 960.5,569C 972.487,565.454 984.654,562.287 997,559.5C 1006.32,560.158 1010.66,565.158 1010,574.5C 1009.53,576.246 1008.86,577.913 1008,579.5C 1000.13,587.039 991.963,594.206 983.5,601C 989.315,598.898 995.315,597.064 1001.5,595.5C 1011.5,596.82 1015.67,602.487 1014,612.5C 1007.54,620.629 1000.71,628.463 993.5,636C 997.441,635.201 1001.11,633.534 1004.5,631C 1013.49,630.328 1017.33,634.494 1016,643.5C 1015.04,644.579 1014.21,645.745 1013.5,647C 1001.35,655.986 989.688,665.486 978.5,675.5 Z"/></g>
<g><path style="opacity:0.832" fill="#b2d0ff" d="M 242.5,519.5 C 249.632,519.789 251.298,522.956 247.5,529C 243.515,530.334 240.848,529.001 239.5,525C 240.223,522.982 241.223,521.148 242.5,519.5 Z"/></g>
<g><path style="opacity:1" fill="#b4bed1" d="M 485.5,521.5 C 507.158,520.567 522.325,529.9 531,549.5C 534.268,569.799 527.101,585.299 509.5,596C 513.257,605.015 517.424,613.848 522,622.5C 523.82,630.669 520.653,634.502 512.5,634C 510.714,633.215 509.214,632.049 508,630.5C 502.333,618.5 496.667,606.5 491,594.5C 489.773,590.409 490.606,586.909 493.5,584C 510.218,580.617 517.718,570.451 516,553.5C 511.005,543.158 502.672,537.824 491,537.5C 479.976,539.182 472.309,545.182 468,555.5C 467,562.167 466,568.833 465,575.5C 459.471,580.044 454.804,579.377 451,573.5C 448.831,546.875 460.331,529.541 485.5,521.5 Z"/></g>
<g><path style="opacity:1" fill="#b4d1ff" d="M 1271.5,525.5 C 1278.16,524.997 1280.66,527.997 1279,534.5C 1272.83,542 1266.67,549.5 1260.5,557C 1258.5,557.667 1256.5,557.667 1254.5,557C 1247.18,548.004 1238.51,546.338 1228.5,552C 1220.03,564.346 1222.36,574.013 1235.5,581C 1237.67,581.167 1239.83,581.333 1242,581.5C 1247.66,580.73 1253.16,579.564 1258.5,578C 1261.29,580.167 1262.12,583.001 1261,586.5C 1251.58,592.547 1241.42,594.047 1230.5,591C 1216.55,584.169 1210.71,573.003 1213,557.5C 1218.2,542.48 1228.7,535.98 1244.5,538C 1248.88,539.023 1252.88,540.856 1256.5,543.5C 1261.97,537.878 1266.97,531.878 1271.5,525.5 Z"/></g>
<g><path style="opacity:1" fill="#313e49" d="M 399.5,539.5 C 408.745,538.899 411.411,542.732 407.5,551C 400.388,553.554 396.888,551.054 397,543.5C 397.662,542.016 398.496,540.683 399.5,539.5 Z"/></g>
<g><path style="opacity:1" fill="#382653" d="M 794.5,560.5 C 794.335,563.518 794.502,566.518 795,569.5C 803.372,603.038 824.205,624.038 857.5,632.5C 857.611,633.117 857.944,633.617 858.5,634C 854.934,638.991 851.268,643.825 847.5,648.5C 843.668,645.501 840.335,642.001 837.5,638C 836.092,637.685 834.759,638.018 833.5,639C 737.186,720.828 640.186,801.661 542.5,881.5C 574.227,857.285 605.561,832.452 636.5,807C 703,751.167 769.5,695.333 836,639.5C 862.351,667.683 888.517,696.016 914.5,724.5C 833.973,833.55 752.473,941.883 670,1049.5C 658.333,1063.83 646.667,1078.17 635,1092.5C 624.46,1102.89 612.96,1111.89 600.5,1119.5C 592.428,1123.63 584.095,1126.97 575.5,1129.5C 541.495,1139.06 508.161,1137.22 475.5,1124C 438.087,1106.37 417.587,1076.87 414,1035.5C 413.273,1011.72 416.273,988.382 423,965.5C 463.815,875.537 502.149,784.537 538,692.5C 541.667,685.833 545.333,679.167 549,672.5C 569.245,639.925 596.745,615.425 631.5,599C 667.646,586.396 703.979,574.396 740.5,563C 757.996,558.042 775.663,553.876 793.5,550.5C 793.187,554.042 793.521,557.375 794.5,560.5 Z"/></g>
<g><path style="opacity:1" fill="#2e3c47" d="M 389.5,562.5 C 396.442,560.943 399.275,563.61 398,570.5C 391.467,583.737 384.3,596.57 376.5,609C 375.167,609.667 373.833,609.667 372.5,609C 361.005,599.46 348.672,598.126 335.5,605C 326.547,613.073 324.047,622.907 328,634.5C 334.74,649.62 346.24,655.286 362.5,651.5C 366.389,650.556 370.056,649.056 373.5,647C 376.032,644.906 378.699,643.073 381.5,641.5C 387.003,643.14 388.503,646.473 386,651.5C 370.084,665.285 352.584,667.785 333.5,659C 319.035,648.649 312.868,634.482 315,616.5C 321.823,596.162 335.99,586.996 357.5,589C 362.541,590.576 367.541,591.909 372.5,593C 378.038,582.757 383.704,572.591 389.5,562.5 Z"/></g>
<g><path style="opacity:0.976" fill="#2a3843" d="M 1664.5,571.5 C 1675.1,572.254 1677.1,576.754 1670.5,585C 1662.67,586.5 1659.5,583.333 1661,575.5C 1661.69,573.65 1662.86,572.316 1664.5,571.5 Z"/></g>
<g><path style="opacity:1" fill="#382653" d="M 1011.5,578.5 C 1032.57,585.025 1053.57,591.858 1074.5,599C 1094.85,608.164 1113.52,619.831 1130.5,634C 1173.1,672.996 1203.27,720.163 1221,775.5C 1241.26,870.111 1261.26,964.778 1281,1059.5C 1286.35,1108.26 1274.18,1151.93 1244.5,1190.5C 1241.86,1193.47 1239.2,1196.47 1236.5,1199.5C 1235.17,1200.17 1234.17,1201.17 1233.5,1202.5C 1201.38,1234.22 1162.71,1251.22 1117.5,1253.5C 1116.17,1253.5 1114.83,1253.5 1113.5,1253.5C 1111.5,1252.83 1109.5,1252.17 1107.5,1251.5C 1103.34,1249.89 1098.34,1249.22 1092.5,1249.5C 997.345,1235.4 902.678,1218.07 808.5,1197.5C 779.484,1190.25 750.15,1183.92 720.5,1178.5C 720.832,1139.33 720.499,1100.33 719.5,1061.5C 714.945,1060.42 710.278,1059.25 705.5,1058C 698.3,1049.97 690.967,1042.14 683.5,1034.5C 760.885,933.277 837.719,831.611 914,729.5C 915.559,727.783 916.392,725.783 916.5,723.5C 937.167,707.5 957.833,691.5 978.5,675.5C 991.991,666.002 1004.82,655.668 1017,644.5C 1019.64,639.027 1018.47,634.527 1013.5,631C 1009.46,629.543 1005.46,629.043 1001.5,629.5C 1006.56,624.606 1011.06,619.273 1015,613.5C 1016.32,598.482 1009.48,591.982 994.5,594C 1000.39,588.939 1006.05,583.772 1011.5,578.5 Z"/></g>
<g><path style="opacity:1" fill="#bcc4d4" d="M 1011.5,578.5 C 1006.05,583.772 1000.39,588.939 994.5,594C 1009.48,591.982 1016.32,598.482 1015,613.5C 1011.06,619.273 1006.56,624.606 1001.5,629.5C 1005.46,629.043 1009.46,629.543 1013.5,631C 1018.47,634.527 1019.64,639.027 1017,644.5C 1004.82,655.668 991.991,666.002 978.5,675.5C 989.688,665.486 1001.35,655.986 1013.5,647C 1014.21,645.745 1015.04,644.579 1016,643.5C 1017.33,634.494 1013.49,630.328 1004.5,631C 1001.11,633.534 997.441,635.201 993.5,636C 1000.71,628.463 1007.54,620.629 1014,612.5C 1015.67,602.487 1011.5,596.82 1001.5,595.5C 995.315,597.064 989.315,598.898 983.5,601C 991.963,594.206 1000.13,587.039 1008,579.5C 1008.86,577.913 1009.53,576.246 1010,574.5C 1010.66,565.158 1006.32,560.158 997,559.5C 984.654,562.287 972.487,565.454 960.5,569C 981.428,549.95 1002.26,530.783 1023,511.5C 1026.89,506.918 1027.22,502.251 1024,497.5C 1017.01,500.243 1010.18,503.409 1003.5,507C 978.909,521.876 954.742,537.376 931,553.5C 933.233,540.409 932.566,527.409 929,514.5C 924.997,506.578 918.497,502.911 909.5,503.5C 909.667,521.503 909.5,539.503 909,557.5C 905.114,570.605 899.114,582.605 891,593.5C 876.57,612.055 862.403,630.722 848.5,649.5C 847.833,649.5 847.5,649.167 847.5,648.5C 851.268,643.825 854.934,638.991 858.5,634C 857.944,633.617 857.611,633.117 857.5,632.5C 859.017,632.489 860.184,631.823 861,630.5C 871,617.167 881,603.833 891,590.5C 898.202,580.428 903.536,569.428 907,557.5C 907.5,538.836 907.667,520.17 907.5,501.5C 922.147,500.4 930.647,507.067 933,521.5C 934.219,530.644 934.719,539.644 934.5,548.5C 943.072,543.058 951.406,537.391 959.5,531.5C 978.743,519.457 998.41,507.957 1018.5,497C 1020.75,495.85 1023.09,495.516 1025.5,496C 1029.39,501.461 1029.23,506.961 1025,512.5C 1006.47,530.036 987.633,547.202 968.5,564C 975.975,562.847 983.308,560.847 990.5,558C 1006.66,555.656 1013.66,562.49 1011.5,578.5 Z"/></g>
<g><path style="opacity:1" fill="#ced5e0" d="M 522.5,641.5 C 532.267,641.073 534.6,644.906 529.5,653C 523.648,655.04 520.315,653.04 519.5,647C 519.863,644.808 520.863,642.974 522.5,641.5 Z"/></g>
<g><path style="opacity:1" fill="#364a5c" d="M 691.5,723.5 C 690.566,722.432 690.232,721.099 690.5,719.5C 692.356,691.086 689.856,663.086 683,635.5C 680.356,622.219 675.022,610.219 667,599.5C 664.555,598.023 662.388,596.19 660.5,594C 662.631,594.398 664.631,595.398 666.5,597C 675.099,607.03 680.932,618.53 684,631.5C 692.12,661.698 694.62,692.365 691.5,723.5 Z"/></g>
<g><path style="opacity:1" fill="#496987" d="M 1074.5,661.5 C 1073.83,678.167 1073.17,694.833 1072.5,711.5C 1072.1,683.143 1072.6,654.809 1074,626.5C 1074.5,638.162 1074.67,649.829 1074.5,661.5 Z"/></g>
<g><path style="opacity:1" fill="#ced5e1" d="M 1305.5,713.5 C 1313.3,713.096 1315.63,716.263 1312.5,723C 1305.75,725.909 1302.59,723.743 1303,716.5C 1303.7,715.309 1304.53,714.309 1305.5,713.5 Z"/></g>
<g><path style="opacity:1" fill="#5781a8" d="M 690.5,719.5 C 690.232,721.099 690.566,722.432 691.5,723.5C 691.162,725.854 690.662,728.187 690,730.5C 689.19,726.642 689.357,722.976 690.5,719.5 Z"/></g>
<g><path style="opacity:1" fill="#cdd4e0" d="M 1316.5,730.5 C 1320.27,729.822 1323.11,731.156 1325,734.5C 1330.64,746.286 1336.14,758.119 1341.5,770C 1341.3,772.406 1340.3,774.406 1338.5,776C 1323.09,779.404 1316.25,788.904 1318,804.5C 1325.08,817.566 1335.58,821.399 1349.5,816C 1360.31,807.937 1365.14,797.104 1364,783.5C 1369.46,780.084 1373.8,781.084 1377,786.5C 1378.47,806.072 1370.63,820.572 1353.5,830C 1333.02,836.618 1317.18,830.785 1306,812.5C 1299.99,798.604 1301.99,785.937 1312,774.5C 1315.85,771.309 1319.69,768.143 1323.5,765C 1320.05,756.663 1316.22,748.496 1312,740.5C 1311.08,736.017 1312.58,732.683 1316.5,730.5 Z"/></g>
<g><path style="opacity:1" fill="#334757" d="M 1074.5,661.5 C 1074.5,761.5 1074.5,861.5 1074.5,961.5C 1073.83,939.833 1073.17,918.167 1072.5,896.5C 1072.5,834.833 1072.5,773.167 1072.5,711.5C 1073.17,694.833 1073.83,678.167 1074.5,661.5 Z"/></g>
<g><path style="opacity:1" fill="#334453" d="M 847.5,648.5 C 847.5,649.167 847.833,649.5 848.5,649.5C 870.827,674.493 893.493,699.159 916.5,723.5C 916.392,725.783 915.559,727.783 914,729.5C 837.719,831.611 760.885,933.277 683.5,1034.5C 665.908,1056.77 647.908,1078.77 629.5,1100.5C 627.246,1101.12 625.579,1102.46 624.5,1104.5C 617.145,1110.51 609.145,1115.51 600.5,1119.5C 612.96,1111.89 624.46,1102.89 635,1092.5C 646.667,1078.17 658.333,1063.83 670,1049.5C 752.473,941.883 833.973,833.55 914.5,724.5C 888.517,696.016 862.351,667.683 836,639.5C 769.5,695.333 703,751.167 636.5,807C 605.561,832.452 574.227,857.285 542.5,881.5C 640.186,801.661 737.186,720.828 833.5,639C 834.759,638.018 836.092,637.685 837.5,638C 840.335,642.001 843.668,645.501 847.5,648.5 Z"/></g>
<g><path style="opacity:1" fill="#3d566c" d="M 542.5,881.5 C 540.051,884.556 537.051,886.889 533.5,888.5C 535.949,885.444 538.949,883.111 542.5,881.5 Z"/></g>
<g><path style="opacity:1" fill="#324555" d="M 533.5,888.5 C 532.421,890.543 530.754,891.876 528.5,892.5C 516.846,891.862 505.513,894.029 494.5,899C 488.833,901.833 483.167,904.667 477.5,907.5C 476.304,907.154 476.304,906.654 477.5,906C 494.65,895.004 513.317,889.17 533.5,888.5 Z"/></g>
<g><path style="opacity:1" fill="#3f5972" d="M 528.5,892.5 C 527.738,894.262 526.404,895.262 524.5,895.5C 525.262,893.738 526.596,892.738 528.5,892.5 Z"/></g>
<g><path style="opacity:1" fill="#3f5971" d="M 524.5,895.5 C 523.738,897.262 522.404,898.262 520.5,898.5C 521.262,896.738 522.596,895.738 524.5,895.5 Z"/></g>
<g><path style="opacity:1" fill="#415c75" d="M 520.5,898.5 C 519.438,900.757 517.772,901.923 515.5,902C 516.789,900.198 518.456,899.031 520.5,898.5 Z"/></g>
<g><path style="opacity:1" fill="#486885" d="M 501.5,911.5 C 502.239,911.369 502.906,911.536 503.5,912C 502.234,913.983 500.568,914.983 498.5,915C 499.71,913.961 500.71,912.794 501.5,911.5 Z"/></g>
<g><path style="opacity:1" fill="#4e7193" d="M 1072.5,896.5 C 1073.17,918.167 1073.83,939.833 1074.5,961.5C 1074.5,964.833 1074.5,968.167 1074.5,971.5C 1074.5,974.833 1074.5,978.167 1074.5,981.5C 1073.68,978.023 1073.18,974.356 1073,970.5C 1072.5,945.836 1072.33,921.169 1072.5,896.5 Z"/></g>
<g><path style="opacity:1" fill="#ebf3fe" d="M 1076.5,981.5 C 1080.87,1010.45 1084.87,1039.45 1088.5,1068.5C 1084.17,1068.5 1079.83,1068.5 1075.5,1068.5C 1075.5,1050.5 1075.5,1032.5 1075.5,1014.5C 1075.17,1003.32 1075.51,992.321 1076.5,981.5 Z"/></g>
<g><path style="opacity:1" fill="#b1d1f4" d="M 1074.5,971.5 C 1075.58,974.627 1076.25,977.96 1076.5,981.5C 1075.51,992.321 1075.17,1003.32 1075.5,1014.5C 1074.51,1003.68 1074.17,992.679 1074.5,981.5C 1074.5,978.167 1074.5,974.833 1074.5,971.5 Z"/></g>
<g><path style="opacity:1" fill="#334657" d="M 1103.5,1067.5 C 1120.38,1047.04 1142.04,1034.21 1168.5,1029C 1175.79,1027.65 1183.13,1027.31 1190.5,1028C 1156.32,1030.1 1127.32,1043.27 1103.5,1067.5 Z"/></g>
<g><path style="opacity:1" fill="#fbede7" d="M 683.5,1034.5 C 690.967,1042.14 698.3,1049.97 705.5,1058C 710.278,1059.25 714.945,1060.42 719.5,1061.5C 719.83,1082.01 719.497,1102.34 718.5,1122.5C 698.164,1122.67 677.831,1122.5 657.5,1122C 648.272,1114.59 638.939,1107.43 629.5,1100.5C 647.908,1078.77 665.908,1056.77 683.5,1034.5 Z"/></g>
<g><path style="opacity:1" fill="#3f5971" d="M 771.5,1063.5 C 769.265,1063.21 767.265,1063.54 765.5,1064.5C 752.465,1063.8 739.465,1062.63 726.5,1061C 741.684,1061.01 756.684,1061.84 771.5,1063.5 Z"/></g>
<g><path style="opacity:1" fill="#344858" d="M 765.5,1064.5 C 767.265,1063.54 769.265,1063.21 771.5,1063.5C 872.777,1068.08 974.11,1069.75 1075.5,1068.5C 1079.83,1068.5 1084.17,1068.5 1088.5,1068.5C 1093.59,1068.78 1098.59,1068.45 1103.5,1067.5C 1123.33,1068.33 1143.33,1068.83 1163.5,1069C 1076.51,1071.33 989.513,1071.99 902.5,1071C 856.77,1069.88 811.104,1067.72 765.5,1064.5 Z"/></g>
<g><path style="opacity:1" fill="#382653" d="M 629.5,1100.5 C 638.939,1107.43 648.272,1114.59 657.5,1122C 677.831,1122.5 698.164,1122.67 718.5,1122.5C 718.5,1141.5 718.5,1160.5 718.5,1179.5C 747.892,1185.62 777.225,1191.95 806.5,1198.5C 806.833,1198.5 807.167,1198.5 807.5,1198.5C 746.669,1199.5 685.669,1199.83 624.5,1199.5C 624.167,1199.5 623.833,1199.5 623.5,1199.5C 623.5,1196.83 623.5,1194.17 623.5,1191.5C 624.498,1162.67 624.831,1133.67 624.5,1104.5C 625.579,1102.46 627.246,1101.12 629.5,1100.5 Z"/></g>
<g><path style="opacity:1" fill="#5b6873" d="M 600.5,1119.5 C 592.414,1125.37 583.414,1129.37 573.5,1131.5C 574.167,1130.83 574.833,1130.17 575.5,1129.5C 584.095,1126.97 592.428,1123.63 600.5,1119.5 Z"/></g>
<g><path style="opacity:1" fill="#6f7a85" d="M 573.5,1131.5 C 563.405,1135.85 552.739,1138.19 541.5,1138.5C 541.5,1138.17 541.5,1137.83 541.5,1137.5C 552.297,1136.14 562.964,1134.14 573.5,1131.5 Z"/></g>
<g><path style="opacity:1" fill="#939ca6" d="M 541.5,1137.5 C 541.5,1137.83 541.5,1138.17 541.5,1138.5C 524.657,1140.35 508.324,1138.18 492.5,1132C 500.654,1134.12 508.988,1135.78 517.5,1137C 525.493,1137.5 533.493,1137.67 541.5,1137.5 Z"/></g>
<g><path style="opacity:1" fill="#3a5165" d="M 719.5,1061.5 C 720.499,1100.33 720.832,1139.33 720.5,1178.5C 750.15,1183.92 779.484,1190.25 808.5,1197.5C 807.508,1197.33 806.842,1197.66 806.5,1198.5C 777.225,1191.95 747.892,1185.62 718.5,1179.5C 718.5,1160.5 718.5,1141.5 718.5,1122.5C 719.497,1102.34 719.83,1082.01 719.5,1061.5 Z"/></g>
<g><path style="opacity:0.873" fill="#2b3945" d="M 806.5,1198.5 C 806.842,1197.66 807.508,1197.33 808.5,1197.5C 902.678,1218.07 997.345,1235.4 1092.5,1249.5C 1002.7,1238.71 913.697,1223.21 825.5,1203C 618.499,1202.7 411.499,1202.04 204.5,1201C 344.162,1199.62 483.829,1199.12 623.5,1199.5C 623.833,1199.5 624.167,1199.5 624.5,1199.5C 686.999,1200.67 749.665,1200.83 812.5,1200C 810.975,1198.99 809.308,1198.49 807.5,1198.5C 807.167,1198.5 806.833,1198.5 806.5,1198.5 Z"/></g>
<g><path style="opacity:1" fill="#466481" d="M 807.5,1198.5 C 809.308,1198.49 810.975,1198.99 812.5,1200C 749.665,1200.83 686.999,1200.67 624.5,1199.5C 685.669,1199.83 746.669,1199.5 807.5,1198.5 Z"/></g>
<g><path style="opacity:0.765" fill="#2a3843" d="M 1236.5,1199.5 C 1366.5,1199.13 1496.5,1199.63 1626.5,1201C 1495.5,1201.87 1364.5,1202.37 1233.5,1202.5C 1234.17,1201.17 1235.17,1200.17 1236.5,1199.5 Z"/></g>
<g><path style="opacity:1" fill="#466581" d="M 1092.5,1249.5 C 1098.34,1249.22 1103.34,1249.89 1107.5,1251.5C 1102.29,1251.39 1097.29,1250.72 1092.5,1249.5 Z"/></g>
</svg>
