<?xml version="1.0" encoding="UTF-8"?>
<!DOCTYPE svg>
<svg xmlns="http://www.w3.org/2000/svg" version="1.1" width="2000px" height="1512px" style="shape-rendering:geometricPrecision; text-rendering:geometricPrecision; image-rendering:optimizeQuality; fill-rule:evenodd; clip-rule:evenodd" xmlns:xlink="http://www.w3.org/1999/xlink">
<g><path style="opacity:0.972" fill="#D5C9E7" d="M 1203.5,19.5 C 1098,19.8328 992.665,19.4995 887.5,18.5C 993.047,-5.80577 1098.38,-5.47243 1203.5,19.5 Z"/></g>
<g><path style="opacity:0.997" fill="#fefefe" d="M 887.5,18.5 C 992.665,19.4995 1098,19.8328 1203.5,19.5C 1271.5,19.3333 1339.5,19.5 1407.5,20C 1410.33,21.5 1412.5,23.6667 1414,26.5C 1414.5,52.1645 1414.67,77.8312 1414.5,103.5C 1414.33,111.84 1414.5,120.173 1415,128.5C 1445.35,135.845 1465.01,154.512 1474,184.5C 1481.84,256.316 1487.51,328.316 1491,400.5C 1499.04,559.742 1504.37,719.075 1507,878.5C 1509.12,1007.33 1510.95,1135.99 1512.5,1264.5C 1512.67,1315.5 1512.5,1366.5 1512,1417.5C 1504.03,1459.8 1479.2,1486.3 1437.5,1497C 1397.24,1500.5 1356.91,1502.83 1316.5,1504C 1165.04,1508.89 1013.54,1511.05 862,1510.5C 781.496,1510.51 700.996,1510.01 620.5,1509C 597.715,1504.87 582.215,1492.04 574,1470.5C 571.985,1462.63 571.152,1454.63 571.5,1446.5C 571.5,1441.83 571.5,1437.17 571.5,1432.5C 576.697,1423.94 582.031,1415.44 587.5,1407C 603.366,1406.72 618.866,1404.22 634,1399.5C 643.394,1405.55 652.227,1412.39 660.5,1420C 662.044,1421.19 663.711,1421.52 665.5,1421C 676.748,1413.46 688.248,1406.29 700,1399.5C 699.472,1390.04 697.972,1380.71 695.5,1371.5C 876.482,1378.63 1057.48,1379.13 1238.5,1373C 1266.15,1371.1 1293.82,1369.43 1321.5,1368C 1342.28,1366.64 1362.95,1364.31 1383.5,1361C 1415.26,1349.22 1432.76,1326.39 1436,1292.5C 1443.93,1000.22 1447.26,707.884 1446,415.5C 1445.54,360.101 1443.54,304.767 1440,249.5C 1436.47,232.42 1428.3,218.087 1415.5,206.5C 1415.44,205.957 1415.11,205.624 1414.5,205.5C 1413.5,570.166 1413.17,934.833 1413.5,1299.5C 1412.43,1305.07 1409.1,1308.57 1403.5,1310C 1188.83,1310.5 974.167,1310.67 759.5,1310.5C 760.881,1302.23 762.881,1294.23 765.5,1286.5C 973.834,1286.67 1182.17,1286.5 1390.5,1286C 1394.59,1284.25 1397.75,1281.41 1400,1277.5C 1401,867.779 1400.66,458.112 1399,48.5C 1396.71,45.5379 1393.88,43.3712 1390.5,42C 1142.5,41.3333 894.5,41.3333 646.5,42C 646,42.5 645.5,43 645,43.5C 644.168,393.089 643.002,742.422 641.5,1091.5C 637.833,1090.83 634.167,1090.17 630.5,1089.5C 630.833,791.499 630.5,493.499 629.5,195.5C 628.702,195.957 628.369,196.624 628.5,197.5C 621.802,207.092 617.968,217.759 617,229.5C 612.661,514.488 611.494,799.488 613.5,1084.5C 609.837,1083.89 606.17,1083.72 602.5,1084C 596.251,1093.16 590.251,1102.5 584.5,1112C 577.5,1112.58 570.5,1113.08 563.5,1113.5C 559.133,806.347 557.466,499.013 558.5,191.5C 554.161,154.34 568.161,126.84 600.5,109C 609.777,105.097 619.444,102.931 629.5,102.5C 629.333,76.1646 629.5,49.8312 630,23.5C 631.167,22.3333 632.333,21.1667 633.5,20C 718.237,19.8306 802.903,19.3306 887.5,18.5 Z"/></g>
<g><path style="opacity:1" fill="#382653" d="M 765.5,1286.5 C 766.013,1283.55 766.013,1280.72 765.5,1278C 755.833,1272.17 746.167,1266.33 736.5,1260.5C 735.999,1244.49 732.999,1228.99 727.5,1214C 734.541,1204.76 741.708,1195.59 749,1186.5C 749.667,1185.5 749.667,1184.5 749,1183.5C 745.995,1180.15 743.495,1176.48 741.5,1172.5C 771.877,1172.83 802.211,1172.49 832.5,1171.5C 833.667,1134.84 833.833,1098.17 833,1061.5C 795.238,1060.34 757.405,1060.17 719.5,1061C 718.505,1090.43 718.171,1119.93 718.5,1149.5C 708.875,1151.83 699.209,1153.66 689.5,1155C 678.353,1144.02 665.686,1135.19 651.5,1128.5C 649.963,1117.17 648.463,1105.84 647,1094.5C 645.351,1093.05 643.518,1092.05 641.5,1091.5C 643.002,742.422 644.168,393.089 645,43.5C 645.5,43 646,42.5 646.5,42C 894.5,41.3333 1142.5,41.3333 1390.5,42C 1393.88,43.3712 1396.71,45.5379 1399,48.5C 1400.66,458.112 1401,867.779 1400,1277.5C 1397.75,1281.41 1394.59,1284.25 1390.5,1286C 1182.17,1286.5 973.834,1286.67 765.5,1286.5 Z"/></g>
<g><path style="opacity:0.998" fill="#D5C9E7" d="M 1414.5,103.5 C 1533.38,173.546 1622.54,270.879 1682,395.5C 1731.02,505.596 1752.68,620.93 1747,741.5C 1740.79,897.463 1692.46,1038.46 1602,1164.5C 1574.9,1200.11 1545.06,1233.45 1512.5,1264.5C 1510.95,1135.99 1509.12,1007.33 1507,878.5C 1504.37,719.075 1499.04,559.742 1491,400.5C 1487.51,328.316 1481.84,256.316 1474,184.5C 1465.01,154.512 1445.35,135.845 1415,128.5C 1414.5,120.173 1414.33,111.84 1414.5,103.5 Z"/></g>
<g><path style="opacity:1" fill="#fefeff" d="M 796.5,140.5 C 950.5,140.333 1104.5,140.5 1258.5,141C 1259.66,178.762 1259.83,216.595 1259,254.5C 1258.5,255 1258,255.5 1257.5,256C 1104.17,256.667 950.833,256.667 797.5,256C 797,255.5 796.5,255 796,254.5C 795.173,216.429 795.34,178.429 796.5,140.5 Z"/></g>
<g><path style="opacity:0.998" fill="#D5C9E7" d="M 558.5,191.5 C 557.466,499.013 559.133,806.347 563.5,1113.5C 554.591,1115.07 545.758,1117.41 537,1120.5C 527.76,1113.46 518.594,1106.29 509.5,1099C 506.983,1098.74 504.65,1099.41 502.5,1101C 492.084,1107.63 481.584,1114.13 471,1120.5C 472.296,1132.19 474.796,1143.69 478.5,1155C 467.408,1166.43 458.241,1179.26 451,1193.5C 440.97,1195.44 430.803,1196.61 420.5,1197C 417.993,1197.09 415.826,1197.93 414,1199.5C 410.358,1213.38 407.692,1227.38 406,1241.5C 415.401,1247.9 425.068,1253.9 435,1259.5C 436.072,1275.34 438.905,1290.84 443.5,1306C 436.755,1315.92 429.421,1325.42 421.5,1334.5C 427.772,1344.05 433.772,1353.72 439.5,1363.5C 383.659,1313.84 340.493,1254.84 310,1186.5C 268.827,1089.97 248.661,989.137 249.5,884C 251.548,700.225 300.715,530.391 397,374.5C 441.259,305.385 495.093,244.385 558.5,191.5 Z"/></g>
<g><path style="opacity:1" fill="#9fcbf5" d="M 630.5,1089.5 C 629.833,1089.5 629.5,1089.17 629.5,1088.5C 629.833,791.333 629.5,494.333 628.5,197.5C 628.369,196.624 628.702,195.957 629.5,195.5C 630.5,493.499 630.833,791.499 630.5,1089.5 Z"/></g>
<g><path style="opacity:1" fill="#382653" d="M 628.5,197.5 C 629.5,494.333 629.833,791.333 629.5,1088.5C 623.906,1087.79 618.573,1086.45 613.5,1084.5C 611.494,799.488 612.661,514.488 617,229.5C 617.968,217.759 621.802,207.092 628.5,197.5 Z"/></g>
<g><path style="opacity:1" fill="#bedbf7" d="M 1415.5,206.5 C 1414.83,570.833 1414.17,935.167 1413.5,1299.5C 1413.17,934.833 1413.5,570.166 1414.5,205.5C 1415.11,205.624 1415.44,205.957 1415.5,206.5 Z"/></g>
<g><path style="opacity:1" fill="#382653" d="M 1415.5,206.5 C 1428.3,218.087 1436.47,232.42 1440,249.5C 1443.54,304.767 1445.54,360.101 1446,415.5C 1447.26,707.884 1443.93,1000.22 1436,1292.5C 1432.76,1326.39 1415.26,1349.22 1383.5,1361C 1362.95,1364.31 1342.28,1366.64 1321.5,1368C 1293.82,1369.43 1266.15,1371.1 1238.5,1373C 1057.48,1379.13 876.482,1378.63 695.5,1371.5C 693.797,1369.15 693.297,1366.48 694,1363.5C 704.777,1352.39 713.61,1339.89 720.5,1326C 732.158,1324.6 743.825,1323.27 755.5,1322C 757.267,1318.36 758.6,1314.53 759.5,1310.5C 974.167,1310.67 1188.83,1310.5 1403.5,1310C 1409.1,1308.57 1412.43,1305.07 1413.5,1299.5C 1414.17,935.167 1414.83,570.833 1415.5,206.5 Z"/></g>
<g><path style="opacity:1" fill="#fefeff" d="M 721.5,408.5 C 758.835,408.333 796.168,408.5 833.5,409C 834,409.5 834.5,410 835,410.5C 835.667,446.5 835.667,482.5 835,518.5C 834.5,519 834,519.5 833.5,520C 796.167,520.667 758.833,520.667 721.5,520C 721,519.5 720.5,519 720,518.5C 719.333,482.5 719.333,446.5 720,410.5C 720.717,409.956 721.217,409.289 721.5,408.5 Z"/></g>
<g><path style="opacity:1" fill="#fefeff" d="M 877.5,432.5 C 1025.83,432.333 1174.17,432.5 1322.5,433C 1323.66,453.76 1323.83,474.594 1323,495.5C 1174.57,496.666 1026.07,496.832 877.5,496C 876.172,474.833 876.172,453.667 877.5,432.5 Z"/></g>
<g><path style="opacity:1" fill="#fefeff" d="M 721.5,571.5 C 758.835,571.333 796.168,571.5 833.5,572C 834,572.5 834.5,573 835,573.5C 835.667,609.5 835.667,645.5 835,681.5C 834.5,682 834,682.5 833.5,683C 796.167,683.667 758.833,683.667 721.5,683C 721,682.5 720.5,682 720,681.5C 719.333,645.5 719.333,609.5 720,573.5C 720.717,572.956 721.217,572.289 721.5,571.5 Z"/></g>
<g><path style="opacity:1" fill="#fefeff" d="M 877.5,595.5 C 1025.83,595.333 1174.17,595.5 1322.5,596C 1323.66,616.76 1323.83,637.594 1323,658.5C 1174.57,659.666 1026.07,659.832 877.5,659C 876.172,637.833 876.172,616.667 877.5,595.5 Z"/></g>
<g><path style="opacity:1" fill="#fefeff" d="M 719.5,734.5 C 757.168,734.333 794.835,734.5 832.5,735C 833.663,771.762 833.829,808.595 833,845.5C 795.238,846.663 757.405,846.829 719.5,846C 718.17,808.833 718.17,771.667 719.5,734.5 Z"/></g>
<g><path style="opacity:1" fill="#fefeff" d="M 876.5,758.5 C 1024.5,758.333 1172.5,758.5 1320.5,759C 1321,759.5 1321.5,760 1322,760.5C 1322.67,780.5 1322.67,800.5 1322,820.5C 1321.5,821 1321,821.5 1320.5,822C 1172.17,822.667 1023.83,822.667 875.5,822C 874.839,811.574 874.506,801.074 874.5,790.5C 874.523,779.607 875.19,768.94 876.5,758.5 Z"/></g>
<g><path style="opacity:1" fill="#B2A0CE" d="M 428.5,837.5 C 437.929,837.9 447.263,839.066 456.5,841C 457.721,848.249 459.387,855.416 461.5,862.5C 470.62,866.307 478.953,871.307 486.5,877.5C 493.162,874.108 500.162,872.275 507.5,872C 512.867,878.567 517.867,885.4 522.5,892.5C 518.892,898.772 514.892,904.772 510.5,910.5C 514.258,919.864 516.924,929.53 518.5,939.5C 524.412,942.372 530.245,945.372 536,948.5C 535.909,957.569 534.909,966.569 533,975.5C 525.931,977.43 518.764,979.097 511.5,980.5C 508.022,988.792 503.522,996.459 498,1003.5C 497.333,1005.17 497.333,1006.83 498,1008.5C 500.009,1013.69 501.509,1019.03 502.5,1024.5C 502.167,1025.5 501.833,1026.5 501.5,1027.5C 495.085,1032.59 488.419,1037.26 481.5,1041.5C 475.392,1037.7 469.225,1034.03 463,1030.5C 454.078,1033.69 444.911,1035.86 435.5,1037C 431.785,1042.93 428.452,1049.09 425.5,1055.5C 424.833,1055.83 424.167,1056.17 423.5,1056.5C 415.5,1055.33 407.5,1054.17 399.5,1053C 398.107,1051.83 397.273,1050.33 397,1048.5C 396.479,1042.75 395.479,1037.08 394,1031.5C 385.446,1027.81 377.613,1022.97 370.5,1017C 368.833,1016.33 367.167,1016.33 365.5,1017C 359.475,1019 353.475,1020.67 347.5,1022C 341.871,1015.23 336.871,1008.06 332.5,1000.5C 336.389,994.449 340.056,988.282 343.5,982C 340.313,973.084 338.146,963.917 337,954.5C 330.912,951.206 324.745,948.039 318.5,945C 317.919,944.107 317.585,943.107 317.5,942C 318.946,934.209 320.113,926.376 321,918.5C 328.143,915.636 335.643,913.969 343.5,913.5C 344.763,908.968 346.597,904.635 349,900.5C 352.288,896.227 355.121,891.727 357.5,887C 355.503,880.681 353.503,874.347 351.5,868C 358.373,862.128 365.54,856.628 373,851.5C 379.235,855.369 385.402,859.369 391.5,863.5C 400.483,859.754 409.816,857.254 419.5,856C 422.912,850.011 425.912,843.844 428.5,837.5 Z"/></g>
<g><path style="opacity:1" fill="#edf4ff" d="M 418.5,882.5 C 454.792,880.881 478.625,897.214 490,931.5C 495.343,966.322 482.176,991.155 450.5,1006C 434.676,1012.18 419.01,1011.85 403.5,1005C 401.733,1001.58 402.733,999.41 406.5,998.5C 435.195,1007.32 458.362,999.657 476,975.5C 489.722,947.012 484.889,922.179 461.5,901C 442.708,889.063 423.042,887.397 402.5,896C 376.1,911.86 366.933,934.694 375,964.5C 375.667,967.167 375.667,969.833 375,972.5C 372.733,973.935 370.733,973.602 369,971.5C 357.681,937.792 366.514,910.958 395.5,891C 402.88,887.044 410.547,884.211 418.5,882.5 Z"/></g>
<g><path style="opacity:1" fill="#fefeff" d="M 721.5,897.5 C 758.835,897.333 796.168,897.5 833.5,898C 834,898.5 834.5,899 835,899.5C 835.667,935.5 835.667,971.5 835,1007.5C 834.5,1008 834,1008.5 833.5,1009C 796.167,1009.67 758.833,1009.67 721.5,1009C 720.17,971.833 720.17,934.667 721.5,897.5 Z"/></g>
<g><path style="opacity:1" fill="#ecf4ff" d="M 422.5,920.5 C 443.845,920.675 454.011,931.342 453,952.5C 445.976,970.064 433.476,975.897 415.5,970C 402.246,961.237 398.412,949.403 404,934.5C 408.538,927.502 414.704,922.835 422.5,920.5 Z"/></g>
<g><path style="opacity:1" fill="#fefeff" d="M 877.5,921.5 C 1025.83,921.333 1174.17,921.5 1322.5,922C 1323.66,942.76 1323.83,963.594 1323,984.5C 1174.57,985.666 1026.07,985.832 877.5,985C 876.172,963.833 876.172,942.667 877.5,921.5 Z"/></g>
<g><path style="opacity:1" fill="#B2A0CE" d="M 422.5,928.5 C 438.178,927.679 445.678,935.012 445,950.5C 439.906,963.869 430.74,967.702 417.5,962C 409.188,954.925 407.354,946.425 412,936.5C 414.975,932.952 418.475,930.286 422.5,928.5 Z"/></g>
<g><path style="opacity:1" fill="#fefefe" d="M 741.5,1172.5 C 736.677,1164.86 731.844,1157.19 727,1149.5C 724.204,1148.32 721.371,1148.32 718.5,1149.5C 718.171,1119.93 718.505,1090.43 719.5,1061C 757.405,1060.17 795.238,1060.34 833,1061.5C 833.833,1098.17 833.667,1134.84 832.5,1171.5C 802.211,1172.49 771.877,1172.83 741.5,1172.5 Z"/></g>
<g><path style="opacity:1" fill="#B2A0CE" d="M 613.5,1084.5 C 618.573,1086.45 623.906,1087.79 629.5,1088.5C 629.5,1089.17 629.833,1089.5 630.5,1089.5C 634.167,1090.17 637.833,1090.83 641.5,1091.5C 643.518,1092.05 645.351,1093.05 647,1094.5C 648.463,1105.84 649.963,1117.17 651.5,1128.5C 665.686,1135.19 678.353,1144.02 689.5,1155C 699.209,1153.66 708.875,1151.83 718.5,1149.5C 721.371,1148.32 724.204,1148.32 727,1149.5C 731.844,1157.19 736.677,1164.86 741.5,1172.5C 743.495,1176.48 745.995,1180.15 749,1183.5C 749.667,1184.5 749.667,1185.5 749,1186.5C 741.708,1195.59 734.541,1204.76 727.5,1214C 732.999,1228.99 735.999,1244.49 736.5,1260.5C 746.167,1266.33 755.833,1272.17 765.5,1278C 766.013,1280.72 766.013,1283.55 765.5,1286.5C 762.881,1294.23 760.881,1302.23 759.5,1310.5C 758.6,1314.53 757.267,1318.36 755.5,1322C 743.825,1323.27 732.158,1324.6 720.5,1326C 713.61,1339.89 704.777,1352.39 694,1363.5C 693.297,1366.48 693.797,1369.15 695.5,1371.5C 697.972,1380.71 699.472,1390.04 700,1399.5C 688.248,1406.29 676.748,1413.46 665.5,1421C 663.711,1421.52 662.044,1421.19 660.5,1420C 652.227,1412.39 643.394,1405.55 634,1399.5C 618.866,1404.22 603.366,1406.72 587.5,1407C 582.031,1415.44 576.697,1423.94 571.5,1432.5C 570.454,1434.54 568.787,1435.87 566.5,1436.5C 557.229,1434.18 547.896,1432.18 538.5,1430.5C 533.751,1429.65 529.084,1428.48 524.5,1427C 523.62,1425.64 523.286,1424.14 523.5,1422.5C 523.13,1413.13 522.296,1403.8 521,1394.5C 520.751,1393.38 520.251,1392.38 519.5,1391.5C 506.251,1384.75 494.251,1376.25 483.5,1366C 482.127,1365.13 480.627,1364.63 479,1364.5C 468.687,1366.79 458.521,1369.12 448.5,1371.5C 447.127,1371.66 445.793,1371.49 444.5,1371C 442.699,1368.56 441.032,1366.06 439.5,1363.5C 433.772,1353.72 427.772,1344.05 421.5,1334.5C 429.421,1325.42 436.755,1315.92 443.5,1306C 438.905,1290.84 436.072,1275.34 435,1259.5C 425.068,1253.9 415.401,1247.9 406,1241.5C 407.692,1227.38 410.358,1213.38 414,1199.5C 415.826,1197.93 417.993,1197.09 420.5,1197C 430.803,1196.61 440.97,1195.44 451,1193.5C 458.241,1179.26 467.408,1166.43 478.5,1155C 474.796,1143.69 472.296,1132.19 471,1120.5C 481.584,1114.13 492.084,1107.63 502.5,1101C 504.65,1099.41 506.983,1098.74 509.5,1099C 518.594,1106.29 527.76,1113.46 537,1120.5C 545.758,1117.41 554.591,1115.07 563.5,1113.5C 570.5,1113.08 577.5,1112.58 584.5,1112C 590.251,1102.5 596.251,1093.16 602.5,1084C 606.17,1083.72 609.837,1083.89 613.5,1084.5 Z"/></g>
<g><path style="opacity:1" fill="#fefeff" d="M 875.5,1084.5 C 1024.17,1084.33 1172.83,1084.5 1321.5,1085C 1322.66,1105.43 1322.83,1125.93 1322,1146.5C 1321.5,1147 1321,1147.5 1320.5,1148C 1172.5,1148.67 1024.5,1148.67 876.5,1148C 875.179,1137.73 874.512,1127.23 874.5,1116.5C 874.511,1105.76 874.844,1095.09 875.5,1084.5 Z"/></g>
<g><path style="opacity:1" fill="#eaf3fe" d="M 577.5,1158.5 C 624.201,1157.58 658.368,1177.58 680,1218.5C 697.411,1262.78 689.244,1301.61 655.5,1335C 620.565,1362.26 582.731,1367.1 542,1349.5C 541.333,1347.83 541.333,1346.17 542,1344.5C 542.725,1343.94 543.558,1343.61 544.5,1343.5C 583.763,1360.04 619.763,1354.87 652.5,1328C 682.146,1297.51 689.313,1262.34 674,1222.5C 655.318,1186.23 625.485,1167.23 584.5,1165.5C 539.288,1168.22 509.122,1190.89 494,1233.5C 489.027,1251.98 489.527,1270.31 495.5,1288.5C 494.658,1292.92 492.492,1293.59 489,1290.5C 477.343,1250.04 486.176,1214.87 515.5,1185C 533.49,1169.84 554.157,1161 577.5,1158.5 Z"/></g>
<g><path style="opacity:1" fill="#eaf3fe" d="M 578.5,1220.5 C 610.044,1220.54 625.544,1236.21 625,1267.5C 618.461,1290.2 603.295,1300.7 579.5,1299C 553.926,1291.69 543.093,1274.86 547,1248.5C 552.711,1233.61 563.211,1224.28 578.5,1220.5 Z"/></g>
<g><path style="opacity:1" fill="#B2A0CE" d="M 578.5,1227.5 C 598.498,1226.07 611.665,1234.73 618,1253.5C 619.71,1273.58 610.876,1286.41 591.5,1292C 570.749,1293.25 557.916,1283.75 553,1263.5C 552.32,1245.01 560.82,1233.01 578.5,1227.5 Z"/></g>
<g><path style="opacity:0.99" fill="#edf5fe" d="M 523.5,1422.5 C 496.586,1408.22 471.586,1391.22 448.5,1371.5C 458.521,1369.12 468.687,1366.79 479,1364.5C 480.627,1364.63 482.127,1365.13 483.5,1366C 494.251,1376.25 506.251,1384.75 519.5,1391.5C 520.251,1392.38 520.751,1393.38 521,1394.5C 522.296,1403.8 523.13,1413.13 523.5,1422.5 Z"/></g>
<g><path style="opacity:0.963" fill="#ebf3fe" d="M 538.5,1430.5 C 547.896,1432.18 557.229,1434.18 566.5,1436.5C 568.787,1435.87 570.454,1434.54 571.5,1432.5C 571.5,1437.17 571.5,1441.83 571.5,1446.5C 560.081,1441.92 549.081,1436.59 538.5,1430.5 Z"/></g>
</svg>
