<?xml version="1.0" encoding="UTF-8" standalone="no"?>
<!-- Created with Inkscape (http://www.inkscape.org/) -->
<svg id="svg4250" xmlns="http://www.w3.org/2000/svg" height="800" width="800" version="1.0" xmlns:xlink="http://www.w3.org/1999/xlink">
 <defs id="defs4252">
  <linearGradient id="linearGradient4243" y2="2.5" gradientUnits="userSpaceOnUse" x2="8.2682" gradientTransform="matrix(-1 0 0 1 1.527 -.016971)" y1="2.5" x1="-5.1203">
   <stop id="stop3528" stop-color="#918300" offset="0"/>
   <stop id="stop3530" stop-color="#918300" stop-opacity="0" offset="1"/>
  </linearGradient>
  <linearGradient id="linearGradient4241" y2="1.2532" gradientUnits="userSpaceOnUse" x2="2.9494" y1="1.2532" x1="-11.053">
   <stop id="stop3362" stop-color="#ffb52a" offset="0"/>
   <stop id="stop3364" stop-color="#ffb52a" stop-opacity="0" offset="1"/>
  </linearGradient>
  <linearGradient id="linearGradient4239" y2="1.2532" gradientUnits="userSpaceOnUse" x2="2.9494" y1="1.2532" x1="-11.053">
   <stop id="stop3346" stop-color="#ffcd00" offset="0"/>
   <stop id="stop3348" stop-color="#ffcd00" stop-opacity="0" offset="1"/>
  </linearGradient>
  <linearGradient id="linearGradient3269" y2="2.5" gradientUnits="userSpaceOnUse" x2="17.958" gradientTransform="matrix(.68683 .72682 -.72682 .68683 1.7701 .76596)" y1="2.5" x1="-17.958">
   <stop id="stop3330" stop-color="#ffcd00" offset="0"/>
   <stop id="stop3342" stop-color="#ffcd00" stop-opacity=".49804" offset="1"/>
   <stop id="stop3332" stop-color="#ffcd00" stop-opacity="0" offset="1"/>
  </linearGradient>
 </defs>
 <g id="layer1">
  <g id="g4245" transform="matrix(21.02 0 0 21.02 401.28 348.33)">
   <path id="path4" d="m-0.54335 20.03c-9.6446-0.273-17.241-8.35-16.967-18.041 0.274-9.6909 8.3149-17.326 17.959-17.053 9.645 0.273 17.241 8.3501 16.967 18.041-0.274 9.691-8.3148 17.326-17.959 17.053z" stroke="#000" stroke-width="2.04" fill="url(#linearGradient3269)"/>
   <path id="path3156" d="m2.6494 1.2532a6.7013 6.7013 0 1 1 -13.402 0 6.7013 6.7013 0 1 1 13.402 0z" transform="matrix(1.4909 1.4909 -1.4909 1.4909 7.8625 6.6556)" stroke="url(#linearGradient4241)" stroke-width=".83716" fill="url(#linearGradient4239)"/>
   <path id="path3458" d="m-4.6876-3.8816v2.4715l3.8719 5.5925-0.01583 4.6653h-2.8638m8.7532-12.729v2.4715l-3.8719 5.5925 0.0158 4.6653h2.8638m-9.7848-11.709h11.344m-7.3625 3.8608c-1.0522-1.519-1.9007-2.7741-1.8857-2.7892 0.0151-0.0151 1.7443-0.0195 3.8426-0.0099l3.8152 0.0176-1.8776 2.7153c-1.0327 1.4934-1.901 2.7406-1.9295 2.7716-0.02863 0.0311-0.91288-1.1864-1.965-2.7054v0.00003zm1.1585-0.19147c-0.4195-0.60317-0.82513-1.196-0.90133-1.3173l-0.1387-0.22061h1.8096c1.4284 0 1.7992 0.01787 1.7607 0.08485-0.069 0.11975-1.52 2.2263-1.6556 2.4034-0.10981 0.1436-0.12644 0.1255-0.87467-0.95034z" stroke="url(#linearGradient4243)" stroke-width="2.044" fill="none"/>
  </g>
 </g>
</svg>