<?xml version="1.0" encoding="UTF-8"?>
<!DOCTYPE svg>
<svg xmlns="http://www.w3.org/2000/svg" version="1.1" width="2000px" height="1512px" style="shape-rendering:geometricPrecision; text-rendering:geometricPrecision; image-rendering:optimizeQuality; fill-rule:evenodd; clip-rule:evenodd" xmlns:xlink="http://www.w3.org/1999/xlink">
<g><path style="opacity:0.998" fill="#eef5fe" d="M 1458.5,-0.5 C 1479.83,-0.5 1501.17,-0.5 1522.5,-0.5C 1607.06,4.47403 1685.73,28.6407 1758.5,72C 1884.45,155.833 1923.62,269.999 1876,414.5C 1863.17,449.496 1846.17,482.162 1825,512.5C 1814.04,526.725 1802.38,540.391 1790,553.5C 1772.6,570.398 1755.77,587.731 1739.5,605.5C 1706.82,593.081 1673.16,584.247 1638.5,579C 1584.66,571.201 1531.33,573.701 1478.5,586.5C 1477.83,455.833 1477.17,325.167 1476.5,194.5C 1474.29,180.455 1466.29,171.621 1452.5,168C 1344,167.833 1235.67,167.333 1127.5,166.5C 1150.33,142.84 1173.66,119.673 1197.5,97C 1257.72,48.3395 1326.39,18.0061 1403.5,6C 1421.91,3.19618 1440.24,1.02952 1458.5,-0.5 Z"/></g>
<g><path style="opacity:1" fill="#cdd4e0" d="M 1127.5,166.5 C 1235.67,167.333 1344,167.833 1452.5,168C 1466.29,171.621 1474.29,180.455 1476.5,194.5C 1476.5,229.833 1476.5,265.167 1476.5,300.5C 984.167,300.5 491.833,300.5 -0.5,300.5C -0.5,263.833 -0.5,227.167 -0.5,190.5C 3.85631,177.98 12.523,170.147 25.5,167C 392.833,166.5 760.167,166.333 1127.5,166.5 Z"/></g>
<g><path style="opacity:1" fill="#fcfcfd" d="M 78.5,207.5 C 95.1313,205.342 106.298,212.008 112,227.5C 114.207,243.614 107.707,254.447 92.5,260C 72.4738,261.97 61.4738,252.97 59.5,233C 60.1487,220.181 66.482,211.681 78.5,207.5 Z"/></g>
<g><path style="opacity:1" fill="#fcfdfd" d="M 163.5,207.5 C 180.053,205.353 191.22,212.02 197,227.5C 198.176,250.324 187.343,261.157 164.5,260C 148.544,253.928 142.044,242.428 145,225.5C 148.441,216.557 154.608,210.557 163.5,207.5 Z"/></g>
<g><path style="opacity:1" fill="#fcfdfd" d="M 247.5,207.5 C 264.44,205.046 275.94,211.713 282,227.5C 283.372,249.795 272.872,260.629 250.5,260C 233.656,255.171 226.823,244.004 230,226.5C 232.928,217.408 238.762,211.075 247.5,207.5 Z"/></g>
<g><path style="opacity:1" fill="#cdd4e0" d="M 81.5,212.5 C 92.8911,211.61 101.058,216.277 106,226.5C 108.349,246.484 99.5154,255.651 79.5,254C 64.6037,246.38 61.1037,235.213 69,220.5C 72.6715,216.923 76.8381,214.256 81.5,212.5 Z"/></g>
<g><path style="opacity:1" fill="#cdd4e0" d="M 165.5,212.5 C 177.784,211.221 186.284,216.221 191,227.5C 191.925,250.235 181.425,258.401 159.5,252C 147.024,240.929 146.357,229.262 157.5,217C 160.099,215.205 162.766,213.705 165.5,212.5 Z"/></g>
<g><path style="opacity:1" fill="#cdd4e0" d="M 250.5,212.5 C 270.675,212.832 278.841,222.832 275,242.5C 267.78,254.737 257.614,257.904 244.5,252C 231.95,240.962 231.283,229.296 242.5,217C 245.099,215.205 247.766,213.705 250.5,212.5 Z"/></g>
<g><path style="opacity:1" fill="#e7ecf7" d="M 1476.5,194.5 C 1477.17,325.167 1477.83,455.833 1478.5,586.5C 1350.27,621.227 1256.77,698.227 1198,817.5C 1160.09,900.852 1149.92,987.519 1167.5,1077.5C 1126.85,1093.31 1098.69,1121.65 1083,1162.5C 1070.71,1200.73 1073.55,1237.73 1091.5,1273.5C 796.498,1272.83 501.831,1273.5 207.5,1275.5C 147.57,1274.67 87.5704,1274.17 27.5,1274C 12.9549,1271.61 3.6216,1263.45 -0.5,1249.5C -0.5,933.167 -0.5,616.833 -0.5,300.5C 491.833,300.5 984.167,300.5 1476.5,300.5C 1476.5,265.167 1476.5,229.833 1476.5,194.5 Z"/></g>
<g><path style="opacity:1" fill="#f8f9fc" d="M 8.5,328.5 C 495,327.5 981.666,327.167 1468.5,327.5C 1468.83,391.002 1468.5,454.336 1467.5,517.5C 1467.5,454.5 1467.5,391.5 1467.5,328.5C 981.167,328.5 494.833,328.5 8.5,328.5 Z"/></g>
<g><path style="opacity:1" fill="#fefefe" d="M 8.5,328.5 C 494.833,328.5 981.167,328.5 1467.5,328.5C 1467.5,391.5 1467.5,454.5 1467.5,517.5C 1335.29,552.57 1235.12,629.237 1167,747.5C 1112.98,847.975 1096.31,954.308 1117,1066.5C 1079.89,1089.71 1053.39,1121.71 1037.5,1162.5C 694.5,1162.5 351.5,1162.5 8.5,1162.5C 8.5,884.5 8.5,606.5 8.5,328.5 Z"/></g>
<g><path style="opacity:1" fill="#cfd6e1" d="M 164.5,414.5 C 215.676,411.239 251.51,432.906 272,479.5C 284.4,522.071 274.567,558.571 242.5,589C 215.079,610.461 184.412,616.794 150.5,608C 105.639,591.792 82.3061,559.792 80.5,512C 82.3551,470.282 102.022,440.282 139.5,422C 147.806,418.949 156.14,416.449 164.5,414.5 Z"/></g>
<g><path style="opacity:1" fill="#fefefe" d="M 165.5,419.5 C 211.176,416.416 244.343,435.082 265,475.5C 278.923,512.542 273.256,546.208 248,576.5C 220.891,603.321 188.724,612.155 151.5,603C 103.491,584.282 81.6572,549.115 86,497.5C 96.2249,454.774 122.725,428.774 165.5,419.5 Z"/></g>
<g><path style="opacity:1" fill="#cdd4e0" d="M 173.5,448.5 C 195.461,447.962 209.294,458.295 215,479.5C 214.81,508.357 200.31,522.191 171.5,521C 150.332,514.162 140.832,499.662 143,477.5C 147.569,461.76 157.736,452.093 173.5,448.5 Z"/></g>
<g><path style="opacity:1" fill="#e8edf8" d="M 373.5,465.5 C 562.5,465.333 751.5,465.5 940.5,466C 946.247,468.079 950.414,471.912 953,477.5C 953.667,506.167 953.667,534.833 953,563.5C 951.264,570.237 947.097,574.737 940.5,577C 751.5,577.667 562.5,577.667 373.5,577C 367.026,574.526 362.526,570.026 360,563.5C 359.333,535.5 359.333,507.5 360,479.5C 362.017,472.318 366.517,467.652 373.5,465.5 Z"/></g>
<g><path style="opacity:1" fill="#cdd4e0" d="M 161.5,530.5 C 193.832,527.062 223.498,534.229 250.5,552C 229.951,584.873 200.284,598.54 161.5,593C 137.6,587.255 119.6,573.755 107.5,552.5C 113.803,547.341 120.803,543.174 128.5,540C 139.44,536.171 150.44,533.005 161.5,530.5 Z"/></g>
<g><path style="opacity:0.997" fill="#B2A0CE" d="M 1739.5,605.5 C 1850.38,654.212 1928.21,734.879 1973,847.5C 1988.59,890.636 1997.43,934.97 1999.5,980.5C 1999.5,989.5 1999.5,998.5 1999.5,1007.5C 1991.89,1144.46 1933.56,1253.96 1824.5,1336C 1722.52,1406.46 1610.52,1429.46 1488.5,1405C 1452.92,1397.09 1418.92,1384.92 1386.5,1368.5C 1372.4,1360.28 1358.4,1351.78 1344.5,1343C 1331.27,1332.92 1317.94,1323.09 1304.5,1313.5C 1314.67,1304.14 1323.67,1293.81 1331.5,1282.5C 1332.2,1284.72 1333.54,1286.55 1335.5,1288C 1439.96,1370.61 1556.96,1395.28 1686.5,1362C 1780.22,1333.76 1853.38,1278.6 1906,1196.5C 1962.64,1100.98 1977.31,999.311 1950,891.5C 1915.33,777.5 1844.17,695 1736.5,644C 1640.16,603.7 1542.83,601.033 1444.5,636C 1324.06,685.773 1245.89,773.273 1210,898.5C 1196.37,955.161 1194.87,1012.16 1205.5,1069.5C 1210.69,1069.18 1215.69,1069.51 1220.5,1070.5C 1202.34,1069.38 1184.67,1071.71 1167.5,1077.5C 1149.92,987.519 1160.09,900.852 1198,817.5C 1256.77,698.227 1350.27,621.227 1478.5,586.5C 1531.33,573.701 1584.66,571.201 1638.5,579C 1673.16,584.247 1706.82,593.081 1739.5,605.5 Z"/></g>
<g><path style="opacity:1" fill="#fefefe" d="M 1331.5,1282.5 C 1357.67,1236.63 1359.17,1189.96 1336,1142.5C 1310.11,1098.62 1271.61,1074.62 1220.5,1070.5C 1215.69,1069.51 1210.69,1069.18 1205.5,1069.5C 1194.87,1012.16 1196.37,955.161 1210,898.5C 1245.89,773.273 1324.06,685.773 1444.5,636C 1542.83,601.033 1640.16,603.7 1736.5,644C 1844.17,695 1915.33,777.5 1950,891.5C 1977.31,999.311 1962.64,1100.98 1906,1196.5C 1853.38,1278.6 1780.22,1333.76 1686.5,1362C 1556.96,1395.28 1439.96,1370.61 1335.5,1288C 1333.54,1286.55 1332.2,1284.72 1331.5,1282.5 Z"/></g>
<g><path style="opacity:1" fill="#2c3944" d="M 1656.5,771.5 C 1651.66,762.153 1644,758.653 1633.5,761C 1628.96,762.521 1624.79,764.688 1621,767.5C 1613.06,757.782 1609.23,746.615 1609.5,734C 1609.4,722.413 1611.4,711.247 1615.5,700.5C 1595.82,700.663 1576.82,697.163 1558.5,690C 1554.04,687.7 1549.7,685.2 1545.5,682.5C 1532.89,694.468 1523.89,708.801 1518.5,725.5C 1517.52,721.702 1517.18,717.702 1517.5,713.5C 1518.19,697.236 1524.52,683.736 1536.5,673C 1532.47,666.507 1531.63,659.674 1534,652.5C 1536.93,648.619 1540.76,646.119 1545.5,645C 1566.86,643.961 1587.86,646.295 1608.5,652C 1613.5,652.667 1618.5,652.667 1623.5,652C 1628.79,648.708 1630.95,643.875 1630,637.5C 1640.41,645.91 1649.41,655.577 1657,666.5C 1662.09,675.112 1661.59,683.279 1655.5,691C 1675.41,705.411 1681.25,724.244 1673,747.5C 1668.72,756.398 1663.22,764.398 1656.5,771.5 Z"/></g>
<g><path style="opacity:1" fill="#cfd6e1" d="M 167.5,651.5 C 213.685,649.502 247.519,668.835 269,709.5C 286.436,755.586 276.936,795.086 240.5,828C 208.997,851.094 174.997,855.428 138.5,841C 94.8038,818.242 75.8038,782.242 81.5,733C 92.5523,687.111 121.219,659.945 167.5,651.5 Z"/></g>
<g><path style="opacity:1" fill="#fefefe" d="M 169.5,656.5 C 214.522,655.416 246.689,675.083 266,715.5C 279.954,757.297 270.787,793.13 238.5,823C 199.385,851.287 160.052,851.621 120.5,824C 89.5409,796.698 79.0409,762.864 89,722.5C 103.109,684.884 129.942,662.884 169.5,656.5 Z"/></g>
<g><path style="opacity:1" fill="#fceee8" d="M 1656.5,771.5 C 1657.95,781.649 1654.62,789.816 1646.5,796C 1639.67,801.082 1632,803.916 1623.5,804.5C 1620.39,824.938 1620.89,845.272 1625,865.5C 1626.22,871.105 1628.39,876.271 1631.5,881C 1615.16,909.642 1590.66,927.142 1558,933.5C 1541.59,928.794 1534.59,918.128 1537,901.5C 1541.84,892.994 1548.34,886.161 1556.5,881C 1567.05,870.336 1571.21,857.503 1569,842.5C 1568.76,840.236 1568.26,838.069 1567.5,836C 1535.65,834.152 1516.15,817.652 1509,786.5C 1507.38,766.612 1510.21,747.446 1517.5,729C 1516.94,728.617 1516.61,728.117 1516.5,727.5C 1517.5,727.167 1518.17,726.5 1518.5,725.5C 1523.89,708.801 1532.89,694.468 1545.5,682.5C 1549.7,685.2 1554.04,687.7 1558.5,690C 1576.82,697.163 1595.82,700.663 1615.5,700.5C 1611.4,711.247 1609.4,722.413 1609.5,734C 1609.23,746.615 1613.06,757.782 1621,767.5C 1624.79,764.688 1628.96,762.521 1633.5,761C 1644,758.653 1651.66,762.153 1656.5,771.5 Z"/></g>
<g><path style="opacity:1" fill="#cdd4e0" d="M 170.5,686.5 C 194.049,684.576 208.883,694.909 215,717.5C 215.902,737.868 206.736,751.368 187.5,758C 156.538,760.038 141.704,745.538 143,714.5C 147.016,699.985 156.183,690.652 170.5,686.5 Z"/></g>
<g><path style="opacity:1" fill="#e8edf8" d="M 374.5,712.5 C 562.834,712.333 751.167,712.5 939.5,713C 946.237,714.736 950.737,718.903 953,725.5C 953.667,754.167 953.667,782.833 953,811.5C 950.432,818.401 945.598,822.901 938.5,825C 750.5,825.667 562.5,825.667 374.5,825C 367.427,822.928 362.594,818.428 360,811.5C 359.333,783.167 359.333,754.833 360,726.5C 362.808,719.522 367.641,714.855 374.5,712.5 Z"/></g>
<g><path style="opacity:1" fill="#889096" d="M 1517.5,713.5 C 1517.18,717.702 1517.52,721.702 1518.5,725.5C 1518.17,726.5 1517.5,727.167 1516.5,727.5C 1516.18,722.637 1516.51,717.97 1517.5,713.5 Z"/></g>
<g><path style="opacity:1" fill="#fceee8" d="M 1389.5,926.5 C 1392.33,948.442 1394.99,970.442 1397.5,992.5C 1378.15,990.924 1358.81,988.09 1339.5,984C 1320.74,970.752 1312.57,952.585 1315,929.5C 1319.47,907.889 1327.81,887.889 1340,869.5C 1356.69,843.801 1376.02,820.134 1398,798.5C 1399.94,794.89 1402.28,791.557 1405,788.5C 1413.33,780.833 1421.67,773.167 1430,765.5C 1436.85,755.804 1444.18,746.47 1452,737.5C 1459.08,747.997 1465.92,758.664 1472.5,769.5C 1467.25,779.661 1461.75,789.661 1456,799.5C 1445.64,806.696 1435.14,813.696 1424.5,820.5C 1406.99,848.515 1391.82,877.848 1379,908.5C 1376.65,914.705 1374.82,921.038 1373.5,927.5C 1378.88,927.676 1384.21,927.342 1389.5,926.5 Z"/></g>
<g><path style="opacity:1" fill="#cdd4e0" d="M 165.5,767.5 C 196.409,765.135 224.742,772.468 250.5,789.5C 237.214,812.981 217.214,826.814 190.5,831C 154.077,834.621 126.411,820.955 107.5,790C 115.028,784.065 123.362,779.398 132.5,776C 143.363,772.09 154.363,769.257 165.5,767.5 Z"/></g>
<g><path style="opacity:1" fill="#B2A0CE" d="M 1819.5,1023.5 C 1804.14,1038.53 1788.81,1053.53 1773.5,1068.5C 1768.68,1072.42 1764.01,1076.59 1759.5,1081C 1758.83,1081.67 1758.17,1081.67 1757.5,1081C 1737.67,1059.83 1717.83,1038.67 1698,1017.5C 1693.04,1067.36 1691.21,1117.36 1692.5,1167.5C 1692.5,1170.83 1692.5,1174.17 1692.5,1177.5C 1683.1,1178.12 1673.77,1179.29 1664.5,1181C 1654.94,1186.61 1645.94,1192.94 1637.5,1200C 1643.38,1212.26 1649.38,1224.43 1655.5,1236.5C 1667.35,1228.4 1680.35,1223.4 1694.5,1221.5C 1695.27,1241.16 1695.61,1260.82 1695.5,1280.5C 1645.5,1281.66 1595.5,1282.66 1545.5,1283.5C 1535.62,1200.99 1534.12,1118.32 1541,1035.5C 1544.13,1002.79 1549.46,970.454 1557,938.5C 1557.37,937.584 1557.87,936.75 1558.5,936C 1563.35,933.166 1567.18,933.999 1570,938.5C 1573.59,948.239 1574.43,958.239 1572.5,968.5C 1595.82,959.678 1617.15,947.511 1636.5,932C 1647.58,920.685 1654.58,907.185 1657.5,891.5C 1657.51,889.407 1656.85,887.574 1655.5,886C 1676.17,889.266 1696.84,892.933 1717.5,897C 1733.11,903.135 1747.11,911.802 1759.5,923C 1787.39,948.858 1812.72,976.858 1835.5,1007C 1830.65,1013.02 1825.31,1018.52 1819.5,1023.5 Z"/></g>
<g><path style="opacity:1" fill="#B2A0CE" d="M 1542.5,1283.5 C 1514.84,1284.29 1487.17,1284.62 1459.5,1284.5C 1446.66,1212.74 1440.83,1140.41 1442,1067.5C 1442.58,1047.42 1444.08,1027.42 1446.5,1007.5C 1430.92,1010.3 1415.25,1012.63 1399.5,1014.5C 1399.05,1007.15 1398.39,999.812 1397.5,992.5C 1394.99,970.442 1392.33,948.442 1389.5,926.5C 1389.14,924.089 1390.14,922.589 1392.5,922C 1428.27,908.742 1464.94,898.742 1502.5,892C 1504.83,891.333 1507.17,891.333 1509.5,892C 1499.57,902.761 1496.74,915.261 1501,929.5C 1505.07,944.06 1513.91,954.394 1527.5,960.5C 1527.12,946.572 1533.29,936.905 1546,931.5C 1549.11,932.951 1551.94,934.785 1554.5,937C 1541.9,991.41 1535.07,1046.58 1534,1102.5C 1533.39,1163 1536.22,1223.33 1542.5,1283.5 Z"/></g>
<g><path style="opacity:1" fill="#382653" d="M 372.5,960.5 C 561.834,960.333 751.167,960.5 940.5,961C 946.693,963.193 950.859,967.359 953,973.5C 953.667,1002.17 953.667,1030.83 953,1059.5C 950.859,1065.64 946.693,1069.81 940.5,1072C 751.167,1072.67 561.833,1072.67 372.5,1072C 366.608,1069.11 362.441,1064.61 360,1058.5C 359.333,1030.5 359.333,1002.5 360,974.5C 362.636,968.369 366.803,963.703 372.5,960.5 Z"/></g>
<g><path style="opacity:1" fill="#fefefe" d="M 1773.5,1068.5 C 1779.32,1075.83 1784.98,1083.33 1790.5,1091C 1784.09,1103.09 1775.76,1113.75 1765.5,1123C 1744.9,1141.29 1723.57,1158.62 1701.5,1175C 1698.94,1176.08 1696.27,1176.58 1693.5,1176.5C 1693.81,1173.29 1693.48,1170.29 1692.5,1167.5C 1691.21,1117.36 1693.04,1067.36 1698,1017.5C 1717.83,1038.67 1737.67,1059.83 1757.5,1081C 1758.17,1081.67 1758.83,1081.67 1759.5,1081C 1764.01,1076.59 1768.68,1072.42 1773.5,1068.5 Z"/></g>
<g><path style="opacity:1" fill="#fceee8" d="M 1819.5,1023.5 C 1826.98,1035.11 1834.48,1046.78 1842,1058.5C 1853.75,1079.53 1853.09,1100.19 1840,1120.5C 1827.91,1137.8 1813.08,1152.3 1795.5,1164C 1770.15,1181.18 1743.15,1195.51 1714.5,1207C 1709.05,1213.56 1702.38,1218.39 1694.5,1221.5C 1680.35,1223.4 1667.35,1228.4 1655.5,1236.5C 1649.38,1224.43 1643.38,1212.26 1637.5,1200C 1645.94,1192.94 1654.94,1186.61 1664.5,1181C 1673.77,1179.29 1683.1,1178.12 1692.5,1177.5C 1692.5,1174.17 1692.5,1170.83 1692.5,1167.5C 1693.48,1170.29 1693.81,1173.29 1693.5,1176.5C 1696.27,1176.58 1698.94,1176.08 1701.5,1175C 1723.57,1158.62 1744.9,1141.29 1765.5,1123C 1775.76,1113.75 1784.09,1103.09 1790.5,1091C 1784.98,1083.33 1779.32,1075.83 1773.5,1068.5C 1788.81,1053.53 1804.14,1038.53 1819.5,1023.5 Z"/></g>
<g><path style="opacity:1" fill="#382653" d="M 1220.5,1070.5 C 1271.61,1074.62 1310.11,1098.62 1336,1142.5C 1359.17,1189.96 1357.67,1236.63 1331.5,1282.5C 1323.67,1293.81 1314.67,1304.14 1304.5,1313.5C 1270.43,1341.79 1231.43,1352.29 1187.5,1345C 1144.75,1335.4 1112.75,1311.56 1091.5,1273.5C 1073.55,1237.73 1070.71,1200.73 1083,1162.5C 1098.69,1121.65 1126.85,1093.31 1167.5,1077.5C 1184.67,1071.71 1202.34,1069.38 1220.5,1070.5 Z"/></g>
<g><path style="opacity:1" fill="#f9fbfe" d="M 1210.5,1119.5 C 1218.41,1118.87 1223.91,1122.21 1227,1129.5C 1227.5,1151.5 1227.67,1173.5 1227.5,1195.5C 1249.17,1195.33 1270.84,1195.5 1292.5,1196C 1303.38,1200.25 1305.88,1207.42 1300,1217.5C 1298.07,1219.1 1295.9,1220.27 1293.5,1221C 1271.5,1221.5 1249.5,1221.67 1227.5,1221.5C 1227.67,1243.5 1227.5,1265.5 1227,1287.5C 1222.5,1297.33 1215.34,1299.83 1205.5,1295C 1203.62,1292.75 1202.12,1290.25 1201,1287.5C 1200.5,1265.5 1200.33,1243.5 1200.5,1221.5C 1178.16,1221.67 1155.83,1221.5 1133.5,1221C 1121.51,1212.72 1121.51,1204.39 1133.5,1196C 1155.83,1195.5 1178.16,1195.33 1200.5,1195.5C 1200.33,1173.5 1200.5,1151.5 1201,1129.5C 1203.05,1124.96 1206.21,1121.62 1210.5,1119.5 Z"/></g>
<g><path style="opacity:0.999" fill="#eef5fe" d="M 1091.5,1273.5 C 1112.75,1311.56 1144.75,1335.4 1187.5,1345C 1231.43,1352.29 1270.43,1341.79 1304.5,1313.5C 1317.94,1323.09 1331.27,1332.92 1344.5,1343C 1358.4,1351.78 1372.4,1360.28 1386.5,1368.5C 1332.09,1411.21 1271.42,1442.71 1204.5,1463C 1118.98,1488.36 1031.64,1503.36 942.5,1508C 812.432,1516.6 683.765,1506.93 556.5,1479C 483.401,1462.86 414.068,1436.86 348.5,1401C 307.07,1377.5 269.903,1348.34 237,1313.5C 226.187,1301.53 216.354,1288.86 207.5,1275.5C 501.831,1273.5 796.498,1272.83 1091.5,1273.5 Z"/></g>
<g><path style="opacity:1" fill="#2b3944" d="M 1695.5,1280.5 C 1695.82,1293.41 1695.49,1306.25 1694.5,1319C 1615.3,1342.97 1536.3,1342.31 1457.5,1317C 1456.89,1315.77 1456.56,1314.44 1456.5,1313C 1458.21,1303.57 1459.21,1294.07 1459.5,1284.5C 1487.17,1284.62 1514.84,1284.29 1542.5,1283.5C 1543.5,1283.5 1544.5,1283.5 1545.5,1283.5C 1595.5,1282.66 1645.5,1281.66 1695.5,1280.5 Z"/></g>
</svg>
