<?xml version="1.0" standalone="no"?>
<!DOCTYPE svg PUBLIC "-//W3C//DTD SVG 20010904//EN"
 "http://www.w3.org/TR/2001/REC-SVG-20010904/DTD/svg10.dtd">
<svg version="1.0" xmlns="http://www.w3.org/2000/svg"
 width="900.000000pt" height="833.000000pt" viewBox="0 0 900.000000 833.000000"
 preserveAspectRatio="xMidYMid meet">

<g transform="translate(0.000000,833.000000) scale(0.100000,-0.100000)"
fill="#000000" stroke="none">
<path d="M4465 6880 c-90 -14 -133 -37 -169 -94 -17 -28 -44 -87 -59 -131 -44
-132 -110 -462 -127 -635 -6 -58 -13 -113 -16 -122 -11 -35 -6 -259 6 -273 8
-10 8 -15 -1 -20 -8 -5 -8 -9 0 -14 8 -5 8 -100 3 -337 -5 -181 -5 -333 0
-338 4 -6 8 -21 7 -35 l-1 -26 -8 25 c-8 25 -8 25 -9 2 -1 -13 4 -33 10 -44 8
-15 8 -19 0 -14 -8 5 -11 -10 -9 -46 l1 -53 7 45 c6 43 7 44 17 20 10 -21 12
-13 13 55 2 56 4 73 10 55 7 -23 8 -21 9 12 1 21 -4 38 -11 41 -10 3 -10 9 -1
25 7 12 10 28 7 37 -4 8 -1 22 6 30 6 8 10 18 7 22 -3 4 1 62 9 128 7 66 13
145 14 175 0 30 5 62 10 70 10 15 9 -53 -6 -332 -4 -82 -3 -128 4 -128 5 0 10
41 11 98 1 111 19 252 32 252 4 0 6 -21 4 -47 -3 -27 -10 -102 -16 -168 -6
-66 -13 -127 -16 -135 -3 -8 -7 -55 -9 -105 -3 -49 -9 -112 -14 -140 -7 -39
-8 -23 -6 75 3 98 2 111 -4 59 -12 -102 -18 -329 -9 -335 5 -3 9 -2 10 3 0 4
2 32 4 61 1 30 8 59 15 65 10 9 11 8 7 -8 -3 -11 -9 -65 -12 -120 -4 -55 -10
-102 -14 -105 -4 -3 -8 -21 -9 -39 -5 -69 -12 -43 -13 45 0 52 -3 81 -8 69 -4
-11 -7 -80 -7 -153 1 -72 -2 -132 -5 -132 -4 0 -7 -75 -6 -166 0 -188 11 -199
21 -19 8 151 11 178 25 201 9 17 10 16 11 -8 0 -15 4 -30 10 -33 5 -3 8 -76 6
-183 -2 -97 -1 -141 3 -97 l6 80 18 -52 c10 -29 23 -55 28 -59 6 -3 9 -109 9
-261 -1 -140 1 -258 4 -261 9 -9 7 -24 -2 -18 -5 3 -12 -106 -17 -242 -4 -136
-10 -276 -12 -312 -2 -36 -6 -96 -7 -135 -2 -62 -2 -63 1 -5 2 35 7 59 11 52
10 -15 55 454 56 585 1 56 4 94 8 85 4 -9 7 11 7 46 1 40 -3 61 -9 57 -6 -4
-11 21 -12 67 l-2 73 -6 -80 c-5 -60 -7 -37 -7 95 -1 192 13 292 18 130 l3
-95 3 78 c3 47 8 77 15 77 7 0 9 -50 5 -167 l-5 -168 13 155 c15 179 13 163
24 156 4 -3 5 -29 0 -58 -4 -29 -13 -129 -19 -223 -6 -93 -18 -246 -26 -340
-7 -93 -13 -186 -13 -205 2 -46 24 164 43 410 22 274 27 324 33 330 3 3 3 -33
-1 -80 -3 -47 -11 -159 -16 -250 -6 -91 -17 -241 -26 -334 -8 -92 -13 -170
-11 -173 8 -7 40 329 63 667 8 123 17 226 19 228 17 17 26 -465 12 -703 l-6
-110 13 110 c8 61 17 164 21 230 4 66 9 131 11 145 1 14 3 45 5 70 l2 45 8
-35 c5 -26 6 -19 3 27 -2 35 0 65 6 68 6 3 10 24 10 46 0 72 20 41 21 -33 1
-60 3 -67 9 -38 8 36 6 -194 -4 -355 -4 -65 -3 -79 3 -50 5 22 15 119 21 215
7 104 18 187 26 204 8 16 14 37 14 48 0 10 4 18 9 18 12 0 20 -143 17 -315
l-3 -150 13 100 c6 55 13 126 13 158 1 32 5 56 9 53 16 -9 -1 -403 -23 -540
-8 -55 -15 -118 -14 -140 1 -28 5 -13 15 49 8 50 21 124 30 165 28 131 61 331
74 445 15 134 18 145 30 125 19 -30 5 -208 -35 -442 -2 -16 -1 -28 3 -28 8 0
21 68 43 220 13 96 41 241 46 237 2 -2 -1 -35 -6 -73 -6 -38 -15 -132 -21
-209 -6 -77 -15 -156 -20 -175 -5 -19 -11 -69 -14 -110 -5 -84 3 -51 24 90 6
41 13 84 14 95 2 11 9 61 15 110 13 102 45 231 66 272 15 28 15 28 17 -27 6
-144 -29 -464 -69 -640 -3 -14 -2 -22 2 -18 9 8 95 451 99 508 4 57 6 61 16
55 6 -3 10 5 10 19 0 19 4 24 15 20 12 -5 13 -10 4 -20 -9 -11 -8 -18 1 -29 8
-9 10 -33 6 -67 -9 -86 10 -3 30 127 8 61 22 117 30 125 12 12 14 10 14 -15 0
-35 -25 -175 -86 -480 -44 -218 -48 -242 -40 -234 6 6 71 303 95 434 46 242
65 330 72 339 19 21 19 -6 0 -80 -27 -110 -83 -394 -79 -406 2 -6 12 32 22 83
40 203 89 415 102 439 18 34 18 10 -1 -87 -36 -188 -94 -502 -99 -539 -3 -23
-17 -99 -31 -170 -14 -70 -25 -132 -24 -138 3 -25 46 172 139 634 105 518 138
677 154 730 17 56 31 140 46 265 10 92 -8 152 -62 201 l-39 35 39 82 c21 45
49 108 62 139 13 31 27 55 32 52 4 -3 5 3 1 12 -5 13 -3 15 7 9 10 -6 12 -4 7
8 -3 10 -2 17 3 17 5 0 13 15 19 33 18 62 77 227 84 233 10 10 -38 -161 -68
-244 -15 -41 -24 -76 -21 -80 3 -3 6 -1 6 5 0 5 7 10 15 10 11 0 14 -6 9 -16
-3 -9 -9 -24 -11 -33 -3 -10 -9 -15 -14 -12 -5 3 -6 -2 -3 -11 4 -9 8 -15 9
-13 8 8 144 371 160 428 11 38 37 90 62 125 58 81 71 105 87 167 8 29 19 67
25 83 32 99 43 146 65 290 48 310 57 441 37 509 -5 17 -14 54 -21 81 -15 66
-67 152 -99 164 -66 24 -332 86 -416 96 -27 4 -77 13 -110 20 -236 53 -552 77
-700 55z m445 -39 c71 -8 143 -20 255 -42 28 -6 88 -17 134 -25 46 -8 115 -23
155 -33 39 -11 85 -21 101 -24 17 -3 55 -12 86 -21 53 -16 57 -19 83 -74 l27
-57 -10 -170 c-11 -176 -23 -237 -85 -440 -19 -60 -47 -154 -61 -207 -32 -113
-66 -164 -140 -212 -95 -62 -196 -82 -405 -81 -135 1 -261 11 -325 25 -22 5
-89 16 -150 25 -60 9 -123 21 -140 26 -16 4 -45 11 -64 14 -43 7 -175 75 -220
113 -33 27 -33 28 -34 117 -1 89 14 239 34 345 6 30 15 89 20 130 17 127 104
468 126 493 11 12 23 30 26 39 6 18 73 56 122 69 34 9 350 2 465 -10z m-757
-1311 c3 -13 0 -20 -9 -20 -8 0 -14 9 -14 20 0 11 4 20 9 20 5 0 11 -9 14 -20z
m-18 -107 c-5 -43 -9 -90 -10 -105 -2 -16 1 -28 6 -28 5 0 9 21 10 48 1 26 5
58 10 72 10 29 1 -206 -11 -285 l-7 -50 -3 45 c-2 25 -2 71 -1 103 2 39 -1 57
-9 57 -12 0 -11 28 6 173 10 78 16 53 9 -30z m95 -39 c0 -8 -4 -14 -10 -14 -5
0 -10 9 -10 21 0 11 5 17 10 14 6 -3 10 -13 10 -21z m1267 -96 c-3 -8 -6 -5
-6 6 -1 11 2 17 5 13 3 -3 4 -12 1 -19z m-1023 -77 c-7 -80 -45 -294 -61 -339
-8 -24 -12 -46 -10 -48 3 -3 9 9 15 25 13 35 27 43 17 9 -10 -31 -46 -90 -52
-84 -2 2 7 62 20 133 34 174 45 237 53 311 8 72 24 65 18 -7z m-40 26 c-7 -18
-24 -23 -24 -8 0 22 13 42 22 33 5 -5 6 -16 2 -25z m976 23 c0 -34 -97 -303
-160 -445 -15 -33 -35 -79 -45 -102 -18 -40 -35 -56 -35 -33 0 6 15 50 34 98
49 127 125 337 148 412 19 60 31 79 51 80 4 0 7 -5 7 -10z m69 -34 c-6 -21
-13 -36 -16 -33 -3 3 0 22 7 42 7 20 14 35 16 33 2 -2 -1 -21 -7 -42z m-1362
12 c-3 -8 -6 -5 -6 6 -1 11 2 17 5 13 3 -3 4 -12 1 -19z m1384 -9 c-5 -13 -10
-19 -10 -12 -1 15 10 45 15 40 3 -2 0 -15 -5 -28z m-1101 11 c0 -5 -4 -10 -10
-10 -5 0 -10 5 -10 10 0 6 5 10 10 10 6 0 10 -4 10 -10z m305 -42 c-2 -29 -13
-88 -24 -131 -10 -43 -17 -87 -14 -97 3 -10 -2 -43 -11 -73 -18 -61 -20 -80
-7 -57 12 19 68 250 77 313 6 45 18 66 31 53 7 -7 -11 -91 -37 -181 -10 -33
-28 -93 -40 -132 -20 -69 -23 -73 -51 -73 -34 0 -33 -3 -15 52 30 88 77 303
80 361 0 9 4 17 8 17 5 0 6 -24 3 -52z m565 -98 c-49 -137 -152 -386 -164
-397 -3 -3 -16 -3 -30 1 -27 7 -27 36 0 36 8 0 14 5 14 11 0 5 4 8 9 5 13 -9
98 189 168 394 25 74 42 105 50 96 3 -3 -18 -68 -47 -146z m81 122 c-5 -9 -28
-73 -52 -142 -73 -214 -147 -395 -161 -395 -18 0 -16 7 48 158 31 73 75 186
99 252 57 159 56 156 66 149 5 -3 5 -12 0 -22z m-431 -6 c0 -14 -5 -37 -11
-53 -6 -15 -15 -48 -20 -73 -5 -25 -24 -101 -42 -170 l-33 -125 -32 -3 c-26
-3 -34 1 -41 20 -8 20 -10 20 -10 4 -1 -11 -4 -17 -7 -13 -10 9 19 109 33 114
7 3 13 13 13 23 0 10 7 31 16 46 16 28 15 12 -1 -31 -6 -14 -5 -17 2 -10 6 6
24 50 41 98 32 94 48 125 31 61 -11 -39 -66 -224 -76 -253 -4 -11 -3 -13 4 -6
14 13 72 213 107 368 8 34 26 36 26 3z m335 -66 c-15 -45 -29 -80 -31 -78 -1
2 8 41 22 87 14 45 28 80 31 77 3 -2 -7 -41 -22 -86z m-681 69 c-3 -6 -8 -34
-10 -62 -2 -29 -12 -83 -22 -122 -11 -38 -28 -103 -38 -142 -11 -40 -22 -73
-26 -73 -11 0 -10 7 7 70 8 30 22 89 31 130 21 97 20 96 29 158 5 36 11 52 22
52 8 0 11 -5 7 -11z m377 -40 c-9 -23 -10 -23 -10 -2 -1 12 2 30 6 40 6 15 8
15 11 2 1 -8 -2 -26 -7 -40z m283 -8 c-9 -29 -18 -51 -20 -48 -2 2 3 27 12 56
8 29 17 51 19 49 2 -2 -3 -28 -11 -57z m-68 8 c-8 -19 -15 -29 -15 -22 -1 18
19 67 25 61 3 -3 -2 -21 -10 -39z m-911 4 c-2 -15 -10 -83 -16 -150 -7 -68
-15 -121 -17 -118 -5 5 16 259 23 283 8 23 15 12 10 -15z m42 -5 c-3 -7 -5 -2
-5 12 0 14 2 19 5 13 2 -7 2 -19 0 -25z m98 24 c-6 -4 -10 -18 -9 -31 1 -13
-2 -40 -6 -60 -5 -20 -10 -74 -13 -121 l-6 -85 20 115 c11 63 22 124 24 135 2
11 4 28 4 38 2 28 18 19 19 -10 1 -42 -36 -301 -52 -363 -8 -30 -12 -58 -10
-62 3 -4 -4 -34 -14 -65 -11 -32 -26 -78 -33 -103 -6 -25 -17 -54 -24 -65 -12
-22 -24 -73 -51 -210 -9 -49 -21 -94 -25 -99 -20 -22 4 233 33 354 16 69 34
148 40 175 33 165 68 357 74 400 7 57 10 65 27 65 8 0 8 -3 2 -8z m102 -14
c-3 -8 -6 -5 -6 6 -1 11 2 17 5 13 3 -3 4 -12 1 -19z m173 -33 c-57 -252 -80
-325 -106 -325 -11 0 -14 5 -9 18 16 39 74 226 91 291 19 73 40 87 24 16z
m-160 -98 c-29 -152 -64 -276 -75 -265 -3 2 4 36 15 74 33 111 65 257 70 319
2 18 3 18 7 2 3 -10 -5 -69 -17 -130z m100 116 c0 -16 -15 -84 -59 -263 -12
-48 -21 -66 -35 -68 -15 -3 -17 0 -12 14 15 39 54 181 60 218 7 42 15 84 22
104 5 18 24 15 24 -5z m230 -48 c-10 -33 -19 -53 -19 -44 -1 18 30 112 35 107
2 -2 -5 -31 -16 -63z m266 -41 c-31 -100 -88 -257 -112 -306 -34 -72 -33 -37
2 60 20 53 42 117 49 141 16 52 77 192 82 188 2 -2 -8 -39 -21 -83z m355 32
c-9 -19 -10 -18 -6 9 5 28 5 29 -5 6 -6 -13 -8 -33 -5 -45 5 -20 4 -20 -6 1
-16 30 8 96 24 68 6 -11 5 -25 -2 -39z m-1167 -8 c-3 -29 -9 -66 -15 -81 -5
-16 -12 -59 -15 -95 -9 -91 -9 -91 -17 -98 -4 -4 -7 -20 -7 -35 0 -15 -4 -31
-10 -34 -11 -7 -6 42 16 170 8 44 20 113 26 153 14 83 29 97 22 20z m51 30
c-2 -13 -6 -44 -10 -70 -7 -53 -20 -65 -20 -19 0 16 3 27 8 24 4 -2 7 16 7 41
0 25 4 46 9 46 5 0 8 -10 6 -22z m572 -91 c-14 -45 -38 -124 -53 -174 -15 -51
-31 -93 -37 -93 -5 0 -6 7 -3 17 4 9 20 68 37 132 17 63 40 131 50 150 11 20
19 45 20 56 0 11 3 14 6 7 2 -7 -7 -49 -20 -95z m126 78 c-3 -9 -8 -14 -10
-11 -3 3 -2 9 2 15 9 16 15 13 8 -4z m94 -63 c-8 -26 -28 -84 -45 -129 -24
-62 -28 -83 -18 -83 8 0 25 31 41 75 16 42 30 73 33 71 2 -3 -12 -47 -32 -99
-21 -55 -34 -102 -30 -113 4 -14 3 -16 -4 -5 -8 11 -14 6 -27 -23 -18 -37 -33
-44 -52 -25 -9 9 -8 19 2 39 18 36 135 345 136 362 1 7 3 5 6 -5 2 -9 -2 -38
-10 -65z m-144 23 c-3 -9 -8 -14 -10 -11 -3 3 -2 9 2 15 9 16 15 13 8 -4z m34
-7 c-3 -8 -6 -5 -6 6 -1 11 2 17 5 13 3 -3 4 -12 1 -19z m407 -42 c-3 -9 -10
-13 -15 -10 -9 5 -13 -15 -11 -51 2 -16 0 -17 -8 -5 -8 13 -10 12 -10 -4 0
-11 -3 -16 -6 -13 -4 3 4 34 16 68 17 45 25 57 32 46 4 -8 5 -22 2 -31z m-623
-3 c-12 -20 -14 -14 -5 12 4 9 9 14 11 11 3 -2 0 -13 -6 -23z m159 -25 c-19
-69 -20 -71 -26 -65 -3 3 2 30 12 61 20 65 31 68 14 4z m-60 -103 c-24 -74
-48 -135 -53 -135 -5 0 -6 8 -2 18 4 9 25 73 47 140 22 68 42 121 45 118 3 -3
-13 -67 -37 -141z m-223 113 c-3 -8 -6 -5 -6 6 -1 11 2 17 5 13 3 -3 4 -12 1
-19z m515 -10 c-8 -8 -9 -4 -5 13 4 13 8 18 11 10 2 -7 -1 -18 -6 -23z m-882
-36 c0 -7 -4 -11 -8 -8 -5 3 -14 -41 -21 -97 -13 -112 -59 -310 -60 -262 0 17
9 80 19 140 11 61 25 137 31 170 14 87 19 101 30 84 5 -8 9 -20 9 -27z m671 1
c-12 -20 -14 -14 -5 12 4 9 9 14 11 11 3 -2 0 -13 -6 -23z m-261 -69 c-29 -87
-34 -78 -7 14 12 41 23 69 25 63 2 -6 -6 -40 -18 -77z m-273 34 c-3 -8 -6 -5
-6 6 -1 11 2 17 5 13 3 -3 4 -12 1 -19z m514 -29 c-5 -13 -10 -19 -10 -12 -1
15 10 45 15 40 3 -2 0 -15 -5 -28z m-57 -74 c-4 -8 -8 -15 -10 -15 -2 0 -4 7
-4 15 0 8 4 15 10 15 5 0 7 -7 4 -15z m29 -10 c-3 -9 -8 -14 -10 -11 -3 3 -2
9 2 15 9 16 15 13 8 -4z m23 -39 c-8 -20 -20 -36 -25 -36 -15 0 -14 15 3 29 8
7 17 24 21 39 4 15 9 22 12 15 2 -6 -3 -27 -11 -47z m-294 -2 c73 -14 153 -32
178 -40 25 -7 104 -32 175 -55 163 -51 194 -66 222 -108 28 -41 29 -79 4 -157
-29 -92 -65 -216 -112 -384 -61 -214 -78 -230 -249 -230 -43 0 -122 9 -176 21
-195 42 -236 53 -281 77 -91 47 -102 57 -119 101 -18 46 -15 86 18 281 13 77
71 310 99 397 21 65 65 123 93 123 9 0 76 -12 148 -26z m244 -32 c-3 -3 -6 0
-6 7 0 7 -4 10 -9 6 -14 -8 -22 10 -14 30 5 15 8 13 20 -10 8 -15 12 -29 9
-33z m-711 -261 c-16 -15 -17 -14 -6 6 6 12 12 37 13 55 1 31 2 31 5 -6 3 -27
-1 -44 -12 -55z m-5 -61 c0 -16 -4 -30 -8 -30 -5 0 -7 14 -4 30 2 17 6 30 8
30 2 0 4 -13 4 -30z m-31 -134 c-7 -36 -16 -66 -21 -66 -5 0 -6 10 -3 23 3 12
7 36 8 54 1 17 5 29 10 26 4 -2 7 6 7 18 0 12 2 20 5 17 3 -3 0 -35 -6 -72z
m38 32 c-3 -7 -5 -2 -5 12 0 14 2 19 5 13 2 -7 2 -19 0 -25z m237 -640 c-9
-84 -14 -86 -14 -5 0 40 4 67 10 67 7 0 9 -21 4 -62z m443 -70 c-3 -8 -6 -5
-6 6 -1 11 2 17 5 13 3 -3 4 -12 1 -19z m-450 -95 c-2 -16 -4 -3 -4 27 0 30 2
43 4 28 2 -16 2 -40 0 -55z m267 10 c-9 -88 -54 -366 -60 -372 -7 -7 4 134 17
219 12 82 40 210 45 210 2 0 2 -26 -2 -57z m-407 -110 c-3 -10 -5 -4 -5 12 0
17 2 24 5 18 2 -7 2 -21 0 -30z m-25 -190 c-5 -163 -8 -179 -10 -45 -1 72 1
132 6 132 4 0 6 -39 4 -87z m-15 -245 c-3 -7 -5 -2 -5 12 0 14 2 19 5 13 2 -7
2 -19 0 -25z m0 -50 c-3 -7 -5 -2 -5 12 0 14 2 19 5 13 2 -7 2 -19 0 -25z"/>
<path d="M5460 6662 c0 -4 -16 -14 -35 -21 -49 -17 -181 -124 -200 -161 -13
-26 -15 -51 -9 -148 6 -114 6 -119 -20 -170 -15 -29 -43 -71 -63 -92 -88 -98
-310 -207 -401 -197 -29 3 -67 21 -120 56 -43 28 -85 51 -94 51 -39 0 -133
-54 -188 -108 -66 -64 -76 -97 -44 -152 23 -38 152 -104 235 -119 64 -12 72
-11 175 18 139 39 192 60 312 120 169 85 303 190 441 346 161 182 235 326 212
413 -14 50 -139 172 -177 172 -13 0 -24 -4 -24 -8z m113 -85 c66 -64 78 -101
53 -174 -51 -150 -247 -379 -454 -531 -89 -65 -243 -148 -335 -181 -202 -71
-222 -76 -290 -64 -84 14 -122 33 -179 88 -25 25 -49 41 -52 36 -3 -5 18 -31
46 -57 l53 -47 -45 26 c-66 37 -85 66 -71 109 19 57 112 136 188 158 40 12 45
11 83 -13 22 -15 44 -27 50 -27 5 0 10 -4 10 -9 0 -5 27 -19 61 -31 59 -23 61
-23 122 -6 180 49 344 166 407 290 l33 66 -7 115 c-8 138 -4 149 85 221 129
104 161 108 242 31z"/>
<path d="M4750 4894 c0 -8 5 -12 10 -9 6 3 10 10 10 16 0 5 -4 9 -10 9 -5 0
-10 -7 -10 -16z"/>
<path d="M4741 4854 c0 -11 3 -14 6 -6 3 7 2 16 -1 19 -3 4 -6 -2 -5 -13z"/>
<path d="M4312 4765 c0 -16 2 -22 5 -12 2 9 2 23 0 30 -3 6 -5 -1 -5 -18z"/>
<path d="M4292 4693 c-16 -54 -24 -163 -12 -163 6 0 10 17 10 38 0 20 4 64 10
96 11 70 8 82 -8 29z"/>
<path d="M4261 4494 c0 -11 3 -14 6 -6 3 7 2 16 -1 19 -3 4 -6 -2 -5 -13z"/>
<path d="M4252 4450 c0 -14 2 -19 5 -12 2 6 2 18 0 25 -3 6 -5 1 -5 -13z"/>
<path d="M5061 4813 c-10 -26 -10 -27 4 -9 8 11 15 23 15 28 0 15 -7 8 -19
-19z"/>
<path d="M4950 4567 c-66 -29 -380 -181 -420 -202 -25 -13 -46 -30 -48 -37 -4
-22 116 -155 243 -270 179 -161 179 -161 195 -81 5 21 31 128 60 238 63 241
72 290 65 333 -5 28 -9 32 -38 31 -18 0 -43 -5 -57 -12z m68 -64 c-4 -38 -124
-531 -132 -540 -1 -2 -61 46 -132 105 -107 90 -254 244 -254 266 0 3 6 6 14 6
12 0 114 45 271 120 163 78 192 90 213 90 22 0 24 -3 20 -47z"/>
<path d="M2925 5804 c-11 -3 -33 -11 -50 -19 -16 -7 -43 -17 -60 -21 -69 -16
-234 -86 -483 -205 -68 -33 -127 -59 -130 -59 -9 0 -130 -62 -197 -100 -53
-31 -66 -43 -106 -105 -33 -51 -40 -73 -29 -80 6 -4 10 -21 10 -39 0 -36 48
-215 79 -293 19 -48 35 -85 87 -201 13 -28 36 -80 50 -115 14 -34 51 -108 82
-165 64 -118 120 -177 179 -188 21 -4 43 -12 48 -19 6 -6 48 -24 95 -39 75
-24 89 -32 116 -69 17 -23 37 -52 43 -64 22 -42 2 -23 -39 37 -22 33 -43 60
-46 60 -2 0 13 -26 34 -57 21 -32 58 -91 81 -130 54 -92 64 -95 14 -5 -22 39
-30 61 -19 53 14 -12 76 -123 76 -138 0 -2 -5 -1 -11 3 -8 5 -8 1 0 -14 6 -12
17 -24 24 -28 9 -5 9 -4 0 7 -7 7 -13 17 -13 21 0 34 54 -41 121 -167 42 -80
79 -130 79 -107 0 7 -20 56 -45 108 -25 53 -42 100 -39 105 8 14 -26 70 -38
63 -8 -5 -9 -1 -5 10 4 11 3 15 -4 11 -6 -4 -9 0 -7 8 2 9 -6 23 -17 31 -11 9
-15 16 -8 16 7 0 10 7 7 15 -4 8 -10 12 -15 9 -5 -3 -6 1 -3 9 3 8 -2 17 -11
21 -9 3 -14 10 -10 16 8 13 -25 61 -38 53 -6 -3 -7 -1 -3 5 4 6 2 21 -4 32 -6
11 -7 20 -2 20 5 0 15 -13 22 -30 7 -16 23 -41 36 -56 14 -14 43 -61 64 -105
22 -43 43 -79 46 -79 3 0 -31 70 -75 156 -45 86 -81 160 -81 166 0 25 33 -20
71 -96 55 -110 128 -243 129 -233 0 6 -92 196 -121 249 -13 25 -11 30 7 26 26
-5 178 -296 254 -486 7 -18 15 -31 17 -29 10 11 -229 523 -252 539 -6 5 -4 8
5 8 12 1 11 3 -2 11 -10 5 -23 19 -29 31 -8 15 -8 19 0 14 6 -4 14 0 17 8 3 9
11 16 16 16 6 0 7 -7 4 -16 -4 -11 1 -22 13 -31 12 -7 18 -20 15 -28 -4 -8 -2
-15 3 -15 9 0 42 -62 88 -165 15 -33 37 -82 50 -110 13 -27 31 -70 41 -95 9
-25 21 -49 26 -55 13 -14 -12 49 -94 240 -87 201 -85 197 -56 155 26 -37 102
-205 150 -329 16 -42 26 -62 23 -46 -6 30 -43 130 -71 193 -7 18 -14 38 -14
45 0 7 -9 33 -21 56 -11 24 -18 45 -15 48 6 6 56 -100 117 -251 24 -58 44
-104 46 -102 5 4 -114 305 -157 400 -17 37 -28 76 -25 84 7 19 78 -119 126
-246 50 -130 44 -89 -7 54 -26 71 -49 139 -51 152 -3 12 -9 25 -14 28 -5 3 -9
13 -9 22 0 32 19 -4 75 -143 32 -77 61 -142 66 -143 5 -2 7 -7 4 -12 -2 -4 7
-41 22 -81 27 -79 41 -103 28 -54 -4 17 -9 43 -12 58 -5 34 -80 262 -94 288
-5 11 -7 19 -4 19 13 0 56 -113 106 -277 29 -95 54 -171 56 -169 6 5 -24 115
-58 220 -17 49 -28 93 -27 98 2 5 14 -23 27 -62 12 -39 25 -70 27 -67 3 2 -21
83 -52 178 -32 96 -58 182 -59 191 -1 10 -4 21 -8 24 -10 11 -8 24 3 24 6 0
10 -7 10 -15 0 -8 6 -15 13 -15 18 0 34 -44 130 -370 19 -63 40 -139 47 -168
7 -29 14 -51 17 -49 8 9 -78 325 -147 542 -27 82 -31 119 -10 86 12 -20 83
-239 116 -356 15 -55 31 -104 35 -109 8 -9 -36 162 -77 299 -47 160 -48 166
-33 176 11 7 11 9 -3 9 -22 0 -24 16 -4 23 17 7 40 -18 31 -33 -3 -5 -1 -10 5
-10 6 0 8 -4 5 -10 -3 -5 -2 -10 3 -10 5 0 9 -6 9 -12 1 -7 17 -65 36 -128 19
-63 40 -142 48 -174 7 -33 14 -55 16 -49 2 6 -15 84 -37 174 -23 90 -42 172
-43 182 -1 9 -5 17 -9 17 -4 0 -7 3 -6 8 1 4 -2 18 -6 31 -5 15 -4 27 4 35 8
6 10 7 7 0 -3 -6 3 -18 14 -27 11 -10 17 -22 14 -27 -3 -6 -2 -10 3 -10 11 0
11 2 68 -220 42 -164 54 -201 54 -170 0 13 -76 343 -85 368 -2 6 -1 12 4 12 5
0 18 -37 30 -82 62 -235 104 -405 135 -546 19 -87 35 -148 35 -138 1 21 -69
337 -122 554 -18 72 -30 132 -26 132 3 0 10 -15 14 -32 4 -18 9 -28 11 -22 4
10 -35 162 -54 213 -4 10 -1 11 15 3 11 -6 25 -24 31 -39 13 -32 55 -200 72
-288 7 -33 18 -89 26 -125 l13 -65 -5 55 c-4 47 -14 101 -61 324 -4 19 -2 27
4 23 6 -4 16 -34 22 -68 7 -33 15 -59 18 -56 4 5 -1 34 -42 222 -8 38 -15 78
-15 88 0 36 22 11 42 -48 11 -33 23 -64 27 -70 4 -5 18 -37 31 -70 13 -33 29
-67 35 -75 11 -14 22 -74 60 -320 l14 -95 -4 75 c-3 67 -3 70 6 30 5 -25 12
-56 15 -69 3 -13 7 -21 10 -18 3 2 -18 116 -47 253 -28 137 -55 269 -60 294
-17 84 -22 148 -14 177 l8 28 14 -40 13 -40 -7 40 c-16 87 4 210 31 199 8 -3
17 -17 20 -32 3 -15 13 -49 20 -77 19 -66 20 -20 1 65 -18 84 -17 122 2 50 8
-30 16 -98 17 -150 4 -103 34 -352 45 -360 3 -3 7 -39 8 -80 4 -112 12 -165
26 -151 7 7 7 42 -2 123 -26 232 -51 427 -72 551 -16 100 -19 138 -11 170 14
58 1 143 -33 222 -8 17 -16 44 -20 60 -4 17 -15 49 -26 72 -10 24 -18 46 -17
50 3 12 -13 77 -22 88 -4 6 -13 26 -18 45 -34 112 -118 314 -148 355 -19 27
-85 66 -179 105 -30 13 -243 23 -280 14z m101 -33 c5 -4 30 -16 56 -26 45 -17
128 -91 128 -114 0 -5 15 -42 34 -83 18 -40 39 -91 45 -113 7 -22 19 -56 26
-75 18 -44 78 -240 80 -260 1 -8 8 -31 17 -50 24 -56 39 -127 43 -207 7 -123
-4 -135 -250 -247 -82 -38 -181 -83 -220 -101 -83 -39 -265 -111 -390 -154
-49 -18 -104 -38 -120 -45 -59 -26 -140 -39 -163 -27 -45 24 -130 171 -222
386 -29 66 -62 143 -75 171 -13 28 -34 82 -46 120 -12 38 -30 95 -40 127 -11
31 -19 85 -19 118 0 68 17 105 70 152 32 29 180 110 270 148 30 13 76 36 102
52 53 32 301 139 420 181 42 15 109 33 150 40 96 18 93 17 104 7z m661 -1298
c-3 -10 -5 -2 -5 17 0 19 2 27 5 18 2 -10 2 -26 0 -35z m10 -55 c-3 -8 -6 -5
-6 6 -1 11 2 17 5 13 3 -3 4 -12 1 -19z m-327 -29 c0 -6 -4 -7 -10 -4 -5 3
-10 11 -10 16 0 6 5 7 10 4 6 -3 10 -11 10 -16z m78 -74 c-3 -3 -9 2 -12 12
-6 14 -5 15 5 6 7 -7 10 -15 7 -18z m127 -91 c9 -50 1 -52 -12 -4 -5 22 -7 40
-3 40 4 0 11 -16 15 -36z m-606 -30 c-15 -19 -30 -18 -23 1 4 9 0 15 -7 15
-11 0 -11 2 1 10 21 13 44 -8 29 -26z m101 16 c0 -5 -2 -10 -4 -10 -3 0 -8 5
-11 10 -3 6 -1 10 4 10 6 0 11 -4 11 -10z m-176 -46 c3 -8 2 -12 -4 -9 -6 3
-10 10 -10 16 0 14 7 11 14 -7z m-80 -56 c-11 -17 -24 -6 -24 19 0 26 1 26 14
8 8 -11 12 -23 10 -27z m-100 16 c4 -9 4 -19 2 -21 -8 -8 -26 8 -26 23 0 19
16 18 24 -2z m-15 -110 c12 -20 20 -38 18 -40 -2 -2 -14 14 -26 36 -28 50 -21
53 8 4z m79 -109 c-3 -3 -9 2 -12 12 -6 14 -5 15 5 6 7 -7 10 -15 7 -18z m42
-66 c0 -6 -4 -7 -10 -4 -5 3 -10 11 -10 16 0 6 5 7 10 4 6 -3 10 -11 10 -16z
m49 -64 c0 -5 -6 1 -14 15 -8 14 -14 30 -14 35 0 6 6 -1 14 -15 8 -14 14 -29
14 -35z m-20 -5 c11 -24 11 -24 -3 -6 -9 11 -16 24 -16 30 0 12 5 7 19 -24z
m31 -51 c0 -6 -4 -7 -10 -4 -5 3 -10 11 -10 16 0 6 5 7 10 4 6 -3 10 -11 10
-16z"/>
<path d="M2959 5587 c-73 -35 -220 -98 -329 -140 -30 -11 -71 -31 -90 -44 -19
-13 -40 -23 -46 -23 -6 0 -24 -6 -40 -14 -83 -41 -202 -94 -224 -101 -37 -10
-213 -87 -228 -98 -17 -13 -8 -58 35 -177 91 -252 190 -472 247 -542 22 -29
36 -38 60 -38 48 0 183 36 265 69 41 17 78 31 83 31 4 0 46 18 93 40 47 22 87
40 89 40 7 0 126 54 251 115 61 29 127 61 148 70 55 25 66 62 43 140 -3 11
-10 38 -16 60 -6 22 -15 54 -20 70 -5 17 -22 75 -38 130 -36 123 -79 253 -92
280 -5 11 -19 44 -31 73 -14 35 -31 58 -50 67 -36 19 -54 18 -110 -8z m16
-124 c-20 -54 -45 -111 -55 -128 -19 -32 -130 -356 -130 -381 0 -25 -26 -27
-75 -5 -25 11 -74 25 -108 31 -34 6 -105 21 -157 35 -52 14 -144 36 -205 50
-145 33 -225 57 -225 65 0 4 8 14 19 24 17 16 380 178 651 291 69 29 143 60
165 70 102 46 150 63 153 54 2 -5 -13 -53 -33 -106z m131 24 c15 -34 31 -78
35 -97 14 -69 42 -165 50 -175 4 -6 12 -29 18 -50 5 -22 19 -67 30 -100 35
-99 43 -126 38 -131 -2 -3 -87 36 -188 86 -105 52 -191 89 -203 87 -15 -2 2
-14 59 -41 123 -57 246 -120 293 -150 36 -23 41 -29 32 -46 -16 -29 -12 -35
10 -15 15 14 20 15 20 4 -1 -28 -40 -60 -127 -103 -94 -47 -290 -136 -298
-136 -3 0 -42 -18 -88 -39 -94 -45 -163 -71 -296 -112 -132 -41 -156 -39 -141
9 4 15 20 68 35 117 14 50 30 99 35 110 11 25 34 99 61 192 l21 72 46 -5 c56
-7 85 -15 175 -48 l67 -24 11 20 c6 12 24 64 40 117 39 133 85 264 109 311 16
32 65 161 86 229 7 23 39 -13 70 -82z m-896 -441 c74 -19 161 -39 192 -46 31
-7 61 -16 67 -19 11 -7 -11 -90 -67 -256 -60 -178 -82 -251 -82 -268 0 -24
-13 -21 -26 6 -5 12 -42 90 -81 172 -40 83 -78 168 -86 190 -8 22 -33 89 -56
149 -22 60 -41 111 -41 114 0 2 10 1 23 -2 12 -4 83 -22 157 -40z"/>
<path d="M5992 5184 c-28 -14 -57 -34 -62 -44 -5 -10 -16 -25 -24 -33 -20 -19
-49 -69 -82 -137 -14 -30 -36 -75 -48 -100 -11 -25 -31 -61 -43 -81 -20 -34
-48 -118 -86 -264 -41 -151 -48 -175 -55 -175 -4 0 -16 -30 -26 -67 -33 -119
-57 -195 -101 -323 -24 -69 -46 -136 -50 -150 -4 -14 -28 -95 -55 -180 -141
-446 -169 -535 -166 -537 9 -9 46 94 91 255 4 13 9 22 11 20 2 -3 -12 -60 -32
-127 -19 -68 -33 -125 -31 -127 2 -3 27 76 55 173 28 100 70 220 96 275 25 53
48 109 52 125 4 15 10 33 14 38 4 6 26 63 50 128 23 64 47 120 53 124 15 9 10
-5 -101 -307 -94 -255 -152 -423 -148 -427 2 -2 12 19 22 47 10 27 22 50 27
50 4 0 5 5 2 10 -4 6 3 25 13 43 35 55 96 219 203 542 43 127 55 153 46 93 -3
-21 -2 -38 4 -38 5 0 9 -4 9 -9 0 -8 -187 -505 -260 -691 -12 -30 -17 -50 -12
-45 5 6 37 82 72 170 34 88 68 174 76 190 7 17 38 93 68 170 67 170 73 162 11
-13 -25 -70 -64 -179 -86 -242 -23 -63 -54 -149 -70 -190 -97 -256 -229 -615
-228 -624 0 -6 16 30 35 79 19 50 56 146 83 215 27 69 79 205 116 303 37 97
70 175 72 173 5 -5 -11 -52 -73 -211 -52 -135 -75 -205 -68 -205 3 0 12 16 20
36 8 20 18 34 21 31 5 -6 -50 -165 -73 -207 -21 -39 -16 -7 6 46 11 26 18 49
16 52 -3 3 -9 -6 -14 -19 -5 -13 -18 -49 -30 -79 -11 -30 -57 -149 -102 -263
-45 -115 -80 -211 -77 -213 2 -2 44 99 92 225 61 155 94 228 103 227 8 -1 20
14 26 32 6 18 15 30 19 26 6 -6 127 235 127 253 0 3 16 39 35 80 19 41 35 79
35 85 0 5 6 22 14 36 8 15 31 69 52 120 20 51 39 91 41 88 2 -2 -3 -21 -12
-42 -15 -36 -132 -332 -177 -449 -11 -27 -15 -45 -10 -40 9 10 17 30 148 355
97 240 106 260 117 260 11 0 11 -2 -51 -175 -56 -158 -118 -321 -132 -347 -6
-10 -10 -24 -10 -32 0 -8 -13 -44 -30 -81 -40 -90 -37 -97 5 -10 19 39 34 63
35 55 0 -13 1 -13 10 0 13 21 12 39 -1 20 -9 -12 -10 -11 -4 5 22 63 28 74 35
70 5 -3 20 25 34 62 28 72 46 106 46 87 0 -12 -53 -146 -70 -176 -6 -10 -12
-34 -15 -54 -2 -20 -25 -74 -51 -120 -31 -58 -40 -81 -27 -74 10 7 29 37 43
68 30 69 128 253 141 267 14 14 2 -15 -39 -93 -18 -34 -30 -68 -26 -74 4 -6 3
-8 -3 -5 -6 4 -15 -5 -22 -19 -6 -15 -7 -23 -1 -19 16 10 12 -1 -35 -95 -25
-50 -43 -90 -40 -90 4 0 62 114 130 253 68 139 140 280 159 312 20 32 33 62
30 66 -3 5 0 17 6 26 10 16 11 16 6 -2 -6 -20 -6 -20 9 -1 17 23 20 40 5 31
-6 -4 -3 10 7 29 9 20 18 34 21 32 2 -2 -2 -14 -8 -26 -6 -12 -9 -24 -7 -27 3
-2 22 27 42 67 21 39 39 69 42 67 2 -2 -48 -109 -110 -238 -155 -318 -193
-400 -201 -429 -4 -14 6 -1 22 28 15 29 30 50 34 47 6 -6 56 85 181 325 32 63
64 120 69 125 11 11 -34 -84 -83 -177 -17 -32 -26 -58 -22 -58 5 0 24 31 43
70 23 47 37 66 42 57 5 -7 6 -1 2 14 -3 17 -1 30 7 35 9 5 11 2 6 -12 -7 -18
-6 -18 7 -1 10 13 15 15 18 5 5 -12 89 142 88 159 -1 5 -12 -14 -26 -41 -20
-38 -28 -46 -36 -35 -7 10 -7 7 -3 -11 5 -20 4 -22 -5 -10 -9 12 -10 10 -5 -9
5 -16 4 -21 -4 -17 -6 4 -9 2 -5 -7 3 -8 -2 -14 -11 -14 -19 0 -19 0 5 48 12
22 24 38 28 35 4 -2 26 29 47 71 22 41 47 80 55 86 8 7 2 -9 -13 -36 -16 -26
-25 -52 -22 -57 9 -14 -18 -83 -92 -233 -74 -149 -82 -179 -17 -57 25 47 51
92 58 100 7 8 20 33 28 55 28 70 117 249 138 275 36 46 20 0 -40 -114 -33 -63
-60 -121 -60 -130 0 -9 -16 -49 -36 -88 -31 -62 -35 -75 -24 -93 7 -11 9 -17
5 -13 -5 4 -26 -34 -48 -85 -40 -95 -55 -121 -43 -77 6 19 5 21 -3 10 -6 -8
-8 -23 -5 -34 4 -12 2 -16 -5 -12 -10 7 -16 -7 -11 -29 1 -5 -5 -14 -14 -20
-13 -10 -102 -185 -127 -253 -17 -45 6 -12 47 66 21 40 46 78 56 83 10 5 18
18 18 27 0 19 192 413 230 472 25 40 22 29 -14 -52 -28 -63 -21 -82 8 -22 9
20 19 34 22 31 3 -3 -2 -19 -10 -36 -19 -35 -20 -45 -6 -36 6 4 25 37 42 73
18 37 37 74 44 82 6 8 35 60 64 115 28 55 58 106 66 114 24 26 24 6 0 -30 -61
-90 -191 -327 -216 -395 -19 -50 1 -20 56 84 32 59 75 135 96 170 21 34 38 66
38 70 0 4 10 18 21 32 20 24 20 24 9 2 -6 -13 -9 -26 -6 -29 8 -8 -83 -177
-160 -298 -85 -133 -87 -135 -80 -135 3 0 17 20 32 45 14 25 32 48 39 53 13 7
35 40 75 115 17 31 40 50 40 32 0 -11 -62 -125 -71 -131 -19 -12 -79 -155
-104 -249 -19 -71 -25 -116 -22 -154 3 -49 -1 -64 -41 -145 -25 -50 -45 -98
-45 -106 0 -8 -7 -21 -16 -28 -9 -8 -10 -11 -3 -7 15 8 15 5 -4 -40 -12 -30
-18 -35 -26 -24 -7 10 -8 8 -4 -10 3 -15 -12 -67 -41 -140 -60 -153 -113 -302
-113 -315 1 -6 11 7 22 29 12 22 21 43 20 47 -1 5 3 8 9 8 6 0 8 9 4 21 -5 16
-4 19 5 14 7 -5 11 -4 8 1 -8 12 17 35 28 26 4 -4 4 1 1 11 -4 10 -3 16 2 13
5 -3 14 1 21 9 7 8 16 13 20 10 4 -2 18 23 30 58 12 34 30 80 40 102 10 22 30
67 44 100 15 32 30 62 34 65 4 3 20 34 37 70 35 77 45 91 45 62 0 -11 -13 -43
-29 -71 -42 -70 -136 -267 -155 -324 -9 -27 -25 -65 -36 -85 -20 -36 -20 -36
-15 -7 3 17 2 23 -1 15 -4 -8 -11 -23 -16 -34 -7 -13 -7 -16 1 -12 15 10 14
-9 -1 -26 -7 -7 -18 -26 -25 -43 -10 -26 -126 -296 -156 -365 -7 -14 -21 -38
-33 -55 -11 -16 -25 -37 -29 -45 -7 -12 -6 -13 7 -3 8 7 17 11 20 8 3 -3 13
14 24 37 10 24 28 57 40 73 12 17 66 111 119 210 54 99 124 223 155 275 31 52
81 138 110 191 78 144 112 176 45 44 -30 -60 -65 -128 -78 -150 -44 -76 -87
-158 -84 -162 2 -2 25 28 52 67 27 38 52 70 57 70 5 0 -2 -15 -16 -32 -34 -45
-98 -160 -92 -166 10 -9 98 84 145 153 27 39 65 90 85 115 88 106 109 130 113
126 4 -4 -14 -27 -52 -70 -39 -44 -156 -208 -151 -213 3 -4 8 -4 9 -2 2 2 22
29 44 59 44 60 109 133 98 112 -4 -8 -44 -63 -89 -123 -140 -187 -178 -241
-174 -244 3 -4 161 194 198 249 8 11 28 37 45 57 16 20 39 47 49 60 39 48 86
99 86 92 0 -5 7 0 14 10 9 12 16 14 21 8 3 -6 2 -11 -4 -11 -24 0 -351 -436
-496 -662 -35 -56 -6 -26 38 40 187 273 392 532 431 544 12 3 14 6 7 7 -9 1 0
15 23 36 21 19 43 32 49 28 6 -4 0 -10 -15 -15 -17 -6 -25 -14 -22 -23 5 -11
-140 -198 -201 -261 -6 -6 -27 -31 -46 -54 -18 -23 -51 -61 -71 -84 -21 -22
-38 -44 -38 -48 0 -5 -15 -25 -33 -45 -18 -21 -44 -56 -56 -78 l-23 -40 27 30
c45 49 116 132 222 260 116 139 291 320 301 311 3 -4 -31 -44 -76 -89 -45 -45
-83 -86 -84 -92 -2 -5 -6 -9 -10 -7 -5 1 -8 -3 -8 -10 0 -6 -35 -50 -78 -97
-43 -47 -109 -124 -147 -171 -37 -47 -79 -97 -93 -112 -14 -16 -23 -28 -20
-28 3 0 43 42 89 93 140 157 391 417 413 429 14 7 8 -3 -15 -28 -65 -69 -91
-98 -128 -144 -30 -38 -113 -135 -185 -218 -11 -12 -17 -22 -14 -22 3 0 64 66
134 148 166 190 288 317 342 354 37 25 48 28 86 23 58 -9 90 9 157 87 29 35
58 68 64 73 24 20 101 149 139 230 39 86 50 146 35 210 -11 51 -17 60 -71 100
-32 24 -86 60 -121 81 -34 20 -71 45 -82 54 -11 9 -51 34 -90 55 -215 119
-245 126 -389 98 l-29 -5 27 46 c15 25 24 46 22 46 -3 0 -19 -24 -35 -52 -17
-29 -51 -73 -77 -98 l-46 -45 26 50 c14 28 30 57 35 65 5 8 17 32 25 52 9 20
28 51 42 67 14 17 27 39 29 50 5 25 35 71 46 71 15 0 10 -16 -11 -35 -11 -10
-17 -21 -14 -26 3 -5 -7 -26 -21 -46 -28 -42 -33 -62 -10 -43 8 7 15 9 15 4 0
-5 7 -1 15 9 7 11 11 25 9 32 -3 7 0 16 7 21 8 5 10 3 4 -7 -4 -8 4 0 19 16
14 17 25 34 26 39 0 6 -7 1 -16 -10 -14 -18 -15 -18 -4 4 6 12 15 20 20 17 5
-3 11 -1 14 4 4 5 25 12 49 16 58 10 79 25 131 98 43 60 78 129 141 277 15 36
36 83 46 105 93 208 156 383 165 459 7 62 -13 104 -69 141 -42 29 -292 137
-392 170 -40 13 -90 32 -111 43 -22 11 -84 34 -139 51 -55 18 -129 43 -165 56
-101 38 -145 40 -208 9z m288 -64 c89 -28 187 -62 218 -76 31 -14 109 -45 172
-69 199 -74 314 -130 342 -165 18 -22 19 -34 13 -114 -6 -76 -14 -106 -60
-215 -67 -155 -205 -412 -271 -503 -26 -36 -28 -36 -83 -32 -161 14 -448 97
-640 185 -70 32 -185 118 -196 147 -23 58 -11 214 26 347 46 162 113 357 130
379 11 13 19 31 19 39 0 14 22 20 190 52 68 13 70 14 20 10 -30 -2 -84 -7
-120 -11 -62 -7 -64 -6 -50 11 13 16 102 63 122 64 4 1 80 -22 168 -49z m-665
-832 c-4 -18 -15 -51 -25 -73 -9 -22 -34 -89 -55 -148 -20 -59 -39 -106 -41
-104 -5 5 116 357 123 357 2 0 1 -15 -2 -32z m-8 -160 c-3 -8 -6 -5 -6 6 -1
11 2 17 5 13 3 -3 4 -12 1 -19z m87 -135 c-12 -39 -26 -79 -34 -98 -4 -11 -20
-54 -35 -95 -51 -139 -46 -95 7 58 29 83 56 152 60 152 4 0 5 -8 2 -17z m44 9
c-1 -4 -15 -37 -30 -73 -15 -35 -43 -104 -62 -154 -19 -49 -35 -84 -36 -76 0
8 16 55 35 105 20 50 45 117 58 149 12 31 25 57 30 57 5 0 7 -4 5 -8z m-74
-17 c-4 -8 -8 -15 -10 -15 -2 0 -4 7 -4 15 0 8 4 15 10 15 5 0 7 -7 4 -15z
m147 -48 c-6 -6 -11 -17 -11 -25 0 -7 -20 -59 -44 -115 -24 -56 -46 -111 -50
-121 -4 -10 -9 -16 -12 -13 -6 5 18 71 73 202 39 93 47 108 51 95 2 -6 -1 -17
-7 -23z m-161 8 c0 -8 -4 -15 -10 -15 -5 0 -7 7 -4 15 4 8 8 15 10 15 2 0 4
-7 4 -15z m71 -62 c-12 -20 -14 -14 -5 12 4 9 9 14 11 11 3 -2 0 -13 -6 -23z
m219 -64 c-58 -147 -272 -599 -285 -599 -2 0 7 26 21 58 14 31 48 107 74 167
98 225 200 439 206 432 3 -2 -5 -29 -16 -58z m-259 -35 c-17 -38 -30 -64 -31
-58 0 6 7 29 16 50 9 22 20 50 25 63 5 13 12 22 14 19 3 -3 -8 -36 -24 -74z
m419 46 c-6 -11 -13 -20 -16 -20 -2 0 0 9 6 20 6 11 13 20 16 20 2 0 0 -9 -6
-20z m140 0 c0 -5 -4 -10 -10 -10 -5 0 -10 5 -10 10 0 6 5 10 10 10 6 0 10 -4
10 -10z m-301 -89 c-18 -39 -34 -69 -37 -67 -2 3 10 37 28 76 43 91 51 84 9
-9z m57 51 c-18 -16 -18 -16 -6 6 6 13 14 21 18 18 3 -4 -2 -14 -12 -24z m-27
-209 c-57 -109 -114 -219 -128 -245 -13 -26 -26 -46 -29 -44 -4 4 123 254 176
349 12 20 33 60 47 87 14 28 28 50 31 50 3 0 -41 -89 -97 -197z m-8 131 c-12
-26 -24 -45 -27 -42 -3 3 5 26 17 52 29 59 37 52 10 -10z m487 36 c-7 -10 -14
-17 -17 -15 -4 4 18 35 25 35 2 0 -1 -9 -8 -20z m-647 -116 c-63 -155 -89
-212 -90 -197 -1 7 6 27 14 45 18 41 93 220 106 255 5 14 12 24 14 21 3 -2
-17 -58 -44 -124z m-198 31 c-3 -9 -8 -14 -10 -11 -3 3 -2 9 2 15 9 16 15 13
8 -4z m860 -10 c-3 -9 -8 -14 -10 -11 -3 3 -2 9 2 15 9 16 15 13 8 -4z m-572
-22 c-6 -10 -40 -81 -76 -157 -36 -77 -68 -137 -70 -134 -3 3 18 52 46 109 28
57 62 128 75 158 13 30 27 52 30 49 3 -4 1 -14 -5 -25z m30 4 c-10 -9 -11 -8
-5 6 3 10 9 15 12 12 3 -3 0 -11 -7 -18z m201 -132 c-48 -99 -74 -138 -51 -77
20 52 92 192 97 187 3 -2 -18 -52 -46 -110z m63 66 c-21 -43 -29 -39 -8 4 9
19 18 33 21 31 2 -2 -4 -18 -13 -35z m-630 -38 c-9 -15 -14 -20 -11 -10 4 11
9 31 13 45 5 19 8 22 11 10 2 -9 -4 -29 -13 -45z m36 24 c-10 -9 -11 -8 -5 6
3 10 9 15 12 12 3 -3 0 -11 -7 -18z m741 -19 c-7 -7 -12 -8 -12 -2 0 14 12 26
19 19 2 -3 -1 -11 -7 -17z m-746 -47 c0 -11 -4 -17 -8 -15 -10 6 -30 -74 -22
-88 5 -7 3 -8 -6 -3 -10 6 -12 3 -8 -13 4 -12 3 -20 -1 -17 -4 2 -15 -12 -24
-31 -23 -48 -21 -57 4 -14 11 19 18 28 16 20 -10 -31 -160 -371 -163 -367 -5
4 20 73 54 149 17 36 28 69 25 71 -10 10 116 327 130 327 2 0 3 -9 3 -19z
m1104 -22 c90 -42 334 -192 411 -252 53 -41 67 -116 40 -206 -36 -116 -197
-351 -242 -351 -17 0 -39 6 -183 46 -27 7 -56 20 -65 28 -9 8 -29 18 -46 21
-62 15 -213 95 -263 140 -57 51 -78 100 -63 151 18 64 96 242 129 294 19 30
62 81 96 113 70 66 78 67 186 16z m-1153 9 c-3 -8 -6 -5 -6 6 -1 11 2 17 5 13
3 -3 4 -12 1 -19z m166 -78 c-5 -19 -23 -39 -23 -25 0 9 20 45 24 45 2 0 2 -9
-1 -20z m-221 -72 c-7 -7 -12 -8 -12 -2 0 14 12 26 19 19 2 -3 -1 -11 -7 -17z
m241 -33 c-3 -9 -8 -14 -10 -11 -3 3 -2 9 2 15 9 16 15 13 8 -4z m-273 -60
c-7 -20 -14 -34 -17 -31 -3 2 1 20 8 40 17 46 25 38 9 -9z m318 -40 c-23 -46
-44 -83 -46 -81 -4 5 44 110 66 144 29 44 21 20 -20 -63z m-343 -35 c-4 -12
-9 -19 -12 -17 -3 3 -2 15 2 27 4 12 9 19 12 17 3 -3 2 -15 -2 -27z m686 -333
c-26 -53 -142 -322 -147 -343 -4 -13 -10 -27 -15 -29 -12 -8 13 59 94 248 39
93 73 163 75 157 3 -7 -1 -22 -7 -33z m109 -93 c0 -3 -7 -18 -15 -32 -12 -23
-56 -114 -181 -377 -34 -72 -217 -411 -226 -420 -8 -7 -9 -5 -6 5 17 47 131
292 186 397 35 68 61 127 58 132 -3 5 1 12 10 15 8 3 13 10 9 16 -9 14 91 203
133 253 15 17 32 23 32 11z m80 -74 c0 -5 -5 -10 -11 -10 -5 0 -7 5 -4 10 3 6
8 10 11 10 2 0 4 -4 4 -10z m-20 -29 c0 -5 -9 -19 -20 -32 l-21 -24 16 33 c15
31 25 41 25 23z m-25 -100 c-3 -6 -11 -11 -17 -11 -6 0 -6 6 2 15 14 17 26 13
15 -4z m-55 -81 c-42 -66 -51 -58 -9 9 17 29 34 50 36 47 3 -3 -9 -28 -27 -56z
m170 56 c0 -3 -4 -8 -10 -11 -5 -3 -10 -1 -10 4 0 6 5 11 10 11 6 0 10 -2 10
-4z m-477 -191 c-3 -9 -8 -14 -10 -11 -3 3 -2 9 2 15 9 16 15 13 8 -4z"/>
<path d="M6090 4975 c-8 -2 -47 -8 -87 -15 -47 -7 -77 -18 -89 -31 -16 -18
-16 -22 2 -75 27 -80 27 -80 67 -66 18 6 87 12 153 13 150 2 224 -15 364 -84
114 -56 187 -118 236 -202 14 -25 30 -45 35 -45 11 0 149 71 149 77 0 12 -63
99 -118 163 -76 89 -208 178 -310 210 -37 11 -87 27 -112 35 -41 12 -255 27
-290 20z m319 -55 c157 -45 296 -131 386 -239 33 -40 66 -84 74 -98 14 -28 8
-37 -60 -77 -27 -16 -28 -16 -40 6 -28 54 -125 155 -178 185 -120 70 -169 91
-256 113 -79 20 -105 22 -215 16 -69 -3 -134 -8 -146 -12 -17 -4 -23 1 -33 33
-7 21 -15 44 -17 50 -22 51 329 68 485 23z"/>
<path d="M6040 4707 c-60 -16 -80 -53 -56 -104 9 -18 16 -41 16 -49 0 -13 6
-14 28 -8 15 5 63 9 107 9 77 0 85 -3 196 -56 113 -55 159 -93 159 -131 0 -8
9 -23 19 -32 19 -17 21 -17 64 8 24 14 51 34 60 44 15 16 14 21 -6 61 -35 70
-144 174 -218 209 -124 59 -261 77 -369 49z m335 -65 c94 -45 143 -85 201
-163 41 -56 42 -73 7 -96 -16 -10 -31 -21 -34 -26 -3 -5 -24 18 -46 50 -34 50
-51 63 -124 100 -128 65 -208 86 -290 78 -63 -6 -68 -5 -79 15 -10 18 -9 24 1
31 11 7 12 9 1 9 -8 0 -12 8 -10 18 4 23 51 31 178 29 102 -2 108 -4 195 -45z"/>
<path d="M6076 4462 c-4 -6 -13 -9 -21 -5 -22 8 -20 -18 11 -125 3 -10 9 -9
27 3 47 30 170 -11 227 -78 23 -26 27 -27 50 -15 67 36 80 49 73 77 -11 48
-41 77 -115 111 -60 28 -88 35 -159 38 -55 3 -89 0 -93 -6z m214 -43 c76 -29
131 -72 129 -102 0 -7 -14 -23 -30 -36 l-30 -24 -32 31 c-55 51 -125 82 -188
82 -55 0 -57 1 -68 31 -14 40 -15 37 12 42 67 13 131 6 207 -24z"/>
<path d="M6150 4270 c-22 -6 -20 -8 17 -14 53 -9 67 -25 54 -59 -18 -47 -72
-61 -111 -29 -21 17 -22 19 -6 56 19 47 12 60 -15 27 -57 -70 29 -159 111
-116 91 47 48 160 -50 135z"/>
<path d="M5472 3225 c-17 -37 -14 -45 4 -12 9 16 14 31 11 33 -2 2 -9 -7 -15
-21z"/>
<path d="M6635 3356 c-35 -15 -118 -109 -130 -146 -15 -46 -6 -111 22 -163 28
-50 136 -157 160 -157 14 0 73 -109 73 -135 0 -8 7 -15 15 -15 8 0 15 6 15 13
0 6 5 29 11 50 10 37 10 37 63 37 42 0 62 6 99 31 73 48 91 81 96 170 3 69 0
82 -25 125 -46 81 -74 112 -128 145 -88 55 -205 74 -271 45z m235 -43 c68 -39
99 -71 136 -145 49 -97 43 -169 -20 -236 -44 -48 -81 -64 -142 -63 -44 0 -54
-3 -59 -19 -9 -30 -22 -24 -35 15 -9 28 -21 40 -51 52 -44 17 -127 103 -154
160 -51 104 15 224 142 259 62 17 126 9 183 -23z"/>
<path d="M6724 3210 c-64 -26 -91 -143 -42 -183 36 -29 84 -47 124 -47 29 0
44 8 75 39 25 25 39 48 39 64 0 27 -53 97 -73 97 -5 0 -3 -8 6 -18 8 -9 22
-30 31 -46 13 -26 13 -33 0 -57 -28 -54 -91 -64 -159 -26 -35 20 -40 27 -43
63 -3 35 2 46 27 72 35 34 86 47 127 32 27 -9 28 -9 10 5 -21 16 -88 19 -122
5z"/>
<path d="M6138 2618 c-22 -34 -42 -74 -31 -63 14 15 55 85 50 85 -3 0 -11 -10
-19 -22z"/>
<path d="M6075 2510 c-9 -16 -13 -30 -11 -30 3 0 12 14 21 30 9 17 13 30 11
30 -3 0 -12 -13 -21 -30z"/>
<path d="M5734 4855 c-48 -101 -270 -742 -260 -752 5 -5 16 27 120 345 57 173
118 341 150 408 30 63 52 114 50 114 -3 0 -30 -52 -60 -115z"/>
<path d="M5326 4855 c-9 -26 -7 -32 5 -12 6 10 9 21 6 23 -2 3 -7 -2 -11 -11z"/>
<path d="M5356 4851 c4 -16 3 -21 -5 -17 -7 5 -8 1 -4 -10 5 -15 7 -15 15 0 6
10 5 23 -2 34 -9 14 -10 13 -4 -7z"/>
<path d="M5310 4811 c0 -6 4 -13 10 -16 6 -3 7 1 4 9 -7 18 -14 21 -14 7z"/>
<path d="M5316 4729 c-15 -39 -25 -73 -23 -76 2 -2 16 29 31 69 14 39 24 73
22 75 -2 2 -15 -29 -30 -68z"/>
<path d="M4142 4765 c0 -16 2 -22 5 -12 2 9 2 23 0 30 -3 6 -5 -1 -5 -18z"/>
<path d="M4112 4711 c-1 -22 3 -43 8 -46 6 -4 10 12 10 39 0 56 -16 62 -18 7z"/>
<path d="M4120 4636 c0 -9 5 -16 10 -16 6 0 10 4 10 9 0 6 -4 13 -10 16 -5 3
-10 -1 -10 -9z"/>
<path d="M4112 4601 c2 -7 7 -12 11 -12 12 1 9 15 -3 20 -7 2 -11 -2 -8 -8z"/>
<path d="M3597 4410 c19 -101 42 -193 44 -175 3 24 2 32 -5 65 -3 14 -7 43
-10 64 -3 22 -9 42 -14 45 -5 3 -12 13 -15 21 -4 8 -4 -1 0 -20z"/>
<path d="M4081 4384 c0 -11 3 -14 6 -6 3 7 2 16 -1 19 -3 4 -6 -2 -5 -13z"/>
<path d="M3642 4190 c0 -14 2 -19 5 -12 2 6 2 18 0 25 -3 6 -5 1 -5 -13z"/>
<path d="M3652 4140 c0 -14 2 -19 5 -12 2 6 2 18 0 25 -3 6 -5 1 -5 -13z"/>
<path d="M3420 4124 c1 -20 59 -236 65 -242 4 -4 5 2 2 13 -3 11 -18 67 -32
125 -24 95 -35 129 -35 104z"/>
<path d="M4168 4034 c-2 -53 0 -98 5 -101 4 -2 7 41 7 96 0 56 -2 101 -4 101
-3 0 -6 -43 -8 -96z"/>
<path d="M3502 4090 c0 -14 2 -19 5 -12 2 6 2 18 0 25 -3 6 -5 1 -5 -13z"/>
<path d="M3662 4100 c-1 -8 5 -42 12 -75 8 -33 14 -49 14 -35 0 28 -25 133
-26 110z"/>
<path d="M3512 4040 c0 -14 2 -19 5 -12 2 6 2 18 0 25 -3 6 -5 1 -5 -13z"/>
<path d="M5441 4029 c-6 -18 -9 -34 -7 -36 2 -2 9 10 15 28 6 18 9 34 7 36 -2
2 -9 -10 -15 -28z"/>
<path d="M3522 3990 c0 -14 2 -19 5 -12 2 6 2 18 0 25 -3 6 -5 1 -5 -13z"/>
<path d="M3532 3940 c0 -14 2 -19 5 -12 2 6 2 18 0 25 -3 6 -5 1 -5 -13z"/>
<path d="M3692 3935 c0 -16 2 -22 5 -12 2 9 2 23 0 30 -3 6 -5 -1 -5 -18z"/>
<path d="M3748 3932 c-22 -4 -23 -25 -4 -41 8 -7 12 -20 9 -30 -3 -10 0 -22 6
-25 6 -4 11 -22 12 -39 0 -18 2 -27 5 -22 2 6 0 44 -4 85 -6 64 -10 75 -24 72z"/>
<path d="M3542 3890 c0 -14 2 -19 5 -12 2 6 2 18 0 25 -3 6 -5 1 -5 -13z"/>
<path d="M3702 3875 c0 -16 2 -22 5 -12 2 9 2 23 0 30 -3 6 -5 -1 -5 -18z"/>
<path d="M5386 3875 c-9 -26 -7 -32 5 -12 6 10 9 21 6 23 -2 3 -7 -2 -11 -11z"/>
<path d="M3421 3864 c0 -11 3 -14 6 -6 3 7 2 16 -1 19 -3 4 -6 -2 -5 -13z"/>
<path d="M4120 3839 c0 -17 4 -28 10 -24 6 3 10 17 10 31 0 13 -4 24 -10 24
-5 0 -10 -14 -10 -31z"/>
<path d="M3232 3840 c0 -8 6 -31 13 -50 7 -19 13 -28 13 -20 0 8 -6 31 -13 50
-7 19 -13 28 -13 20z"/>
<path d="M3551 3834 c0 -11 3 -14 6 -6 3 7 2 16 -1 19 -3 4 -6 -2 -5 -13z"/>
<path d="M3136 3820 c3 -14 11 -32 16 -40 6 -10 7 -7 2 10 -3 14 -11 32 -16
40 -6 10 -7 7 -2 -10z"/>
<path d="M3431 3824 c0 -11 3 -14 6 -6 3 7 2 16 -1 19 -3 4 -6 -2 -5 -13z"/>
<path d="M3522 3825 c0 -11 3 -29 8 -40 11 -25 11 1 0 35 -6 20 -8 21 -8 5z"/>
<path d="M3712 3820 c0 -14 4 -38 8 -55 7 -27 8 -27 8 -5 0 14 -4 39 -8 55 -7
27 -8 27 -8 5z"/>
<path d="M2120 3784 c-213 -101 -439 -246 -467 -299 -27 -51 46 -230 172 -420
50 -75 91 -118 131 -138 17 -9 44 -33 59 -54 16 -21 32 -40 35 -43 3 -3 46
-56 94 -117 49 -62 91 -113 93 -113 7 0 -10 24 -87 120 -41 52 -88 112 -103
132 -27 37 -37 62 -15 40 18 -18 31 -15 24 6 -11 31 113 -111 165 -189 27 -43
58 -79 68 -82 11 -2 -17 43 -71 115 -50 66 -88 122 -85 124 8 9 206 -224 375
-441 56 -72 0 10 -76 113 -47 62 -83 115 -80 117 3 3 43 -40 89 -95 46 -55 87
-100 91 -100 7 0 -19 37 -137 198 -21 29 -98 129 -115 149 -13 16 -13 26 0 18
6 -3 10 1 10 9 0 9 -5 16 -11 16 -5 0 -8 4 -4 9 3 5 -4 13 -16 16 -15 5 -18 9
-9 15 14 9 60 -27 60 -47 0 -7 4 -13 9 -13 5 0 24 -25 41 -55 17 -30 38 -58
45 -63 8 -4 26 -23 40 -42 44 -59 27 -22 -36 81 -34 55 -59 102 -56 105 3 3
13 -8 23 -25 10 -17 22 -31 26 -31 13 0 10 9 -14 40 -12 16 -19 32 -16 35 3 3
19 -16 37 -42 35 -54 41 -51 11 7 -14 28 -16 40 -8 42 9 3 8 12 -5 31 -10 15
-13 27 -8 27 5 0 13 -9 16 -20 3 -11 10 -20 14 -20 4 0 22 -23 40 -51 35 -57
56 -61 23 -4 -24 39 -7 51 17 13 29 -46 341 -663 363 -718 6 -14 12 -20 15
-13 2 7 -14 47 -36 90 -22 43 -62 123 -88 178 -26 55 -92 187 -145 294 -54
107 -97 196 -94 198 2 3 10 -5 16 -17 9 -16 14 -19 20 -11 5 9 9 8 13 -4 4 -9
3 -13 -3 -10 -6 3 -10 3 -10 0 0 -10 40 -85 46 -85 2 0 0 9 -6 21 -7 11 -9 23
-7 26 6 5 33 -40 116 -197 33 -63 61 -111 61 -106 0 5 -29 64 -64 130 -35 67
-81 155 -103 196 -21 41 -41 76 -44 78 -4 2 -5 11 -2 20 2 9 -7 32 -21 51 -21
28 -23 37 -13 49 10 13 8 14 -11 8 -14 -5 -22 -3 -22 4 0 6 10 10 22 8 29 -4
74 -82 218 -373 60 -121 109 -217 110 -214 0 7 -35 88 -70 164 -10 22 -35 76
-55 120 -35 77 -67 143 -84 175 -37 69 -78 168 -67 164 44 -17 301 -556 362
-763 3 -8 7 -12 10 -9 13 14 -125 354 -234 577 -38 77 -66 141 -63 141 10 0
110 -196 160 -311 22 -52 41 -89 41 -82 0 14 -86 216 -125 292 -52 103 -94
201 -86 201 14 0 109 -184 137 -265 15 -44 34 -85 43 -91 9 -7 34 -57 55 -113
22 -55 41 -99 43 -97 7 7 -37 127 -94 255 -30 69 -58 142 -63 161 -9 43 -80
204 -126 286 -19 33 -34 67 -34 75 0 15 -17 48 -101 204 -96 176 -116 201
-183 234 -72 35 -120 37 -186 5z m185 -42 c39 -28 116 -125 136 -172 5 -13 26
-51 46 -83 20 -33 36 -72 35 -87 -1 -42 -65 -102 -162 -153 -389 -204 -384
-201 -438 -173 -32 17 -86 85 -138 176 -20 36 -48 83 -60 105 -61 103 -60 102
-33 131 44 47 144 112 315 204 158 85 172 91 214 85 26 -3 62 -17 85 -33z
m325 -547 c0 -5 -5 -3 -10 5 -5 8 -10 20 -10 25 0 6 5 3 10 -5 5 -8 10 -19 10
-25z m-373 -281 c-3 -3 -12 -4 -19 -1 -8 3 -5 6 6 6 11 1 17 -2 13 -5z m143
-10 c0 -14 -3 -14 -15 -4 -8 7 -15 14 -15 16 0 2 7 4 15 4 8 0 15 -7 15 -16z
m115 6 c3 -5 1 -10 -4 -10 -6 0 -11 5 -11 10 0 6 2 10 4 10 3 0 8 -4 11 -10z
m-243 -125 c30 -37 21 -30 -36 27 -42 42 -76 80 -76 84 0 12 66 -54 112 -111z
m-17 65 c3 -5 1 -10 -4 -10 -6 0 -11 5 -11 10 0 6 2 10 4 10 3 0 8 -4 11 -10z"/>
<path d="M2153 3713 c-53 -27 -57 -38 -34 -81 13 -24 40 -46 47 -39 4 3 -3 19
-15 35 -29 41 -27 48 16 65 45 17 56 14 72 -19 14 -31 10 -38 -29 -54 -38 -16
-40 -35 -2 -25 52 12 74 34 67 63 -6 25 -51 82 -64 82 -3 0 -29 -12 -58 -27z"/>
<path d="M2002 3559 c-34 -17 -48 -33 -68 -76 -53 -111 -12 -211 99 -245 49
-15 62 -15 101 -4 143 43 187 187 87 287 -59 60 -145 74 -219 38z m150 -20
c64 -16 111 -97 94 -164 -11 -44 -72 -102 -119 -113 -72 -19 -149 14 -181 75
-23 45 -20 87 9 149 19 41 32 55 53 60 15 3 32 7 37 9 11 4 52 -2 107 -16z"/>
<path d="M2041 3444 c-39 -32 -39 -57 -2 -95 52 -52 121 -29 121 41 0 24 -1
24 -20 -7 -31 -51 -84 -45 -103 10 -5 13 2 28 22 48 36 36 24 38 -18 3z"/>
<path d="M2296 3566 c7 -19 -7 -21 -24 -4 -9 9 -12 8 -12 -4 0 -17 26 -32 41
-22 12 7 12 31 -1 39 -6 3 -7 -1 -4 -9z"/>
<path d="M4184 3635 c0 -99 2 -138 3 -87 2 51 2 132 0 180 -1 48 -3 6 -3 -93z"/>
<path d="M2931 3795 c0 -5 13 -35 29 -65 16 -30 29 -50 29 -45 0 6 -13 35 -29
65 -16 30 -29 51 -29 45z"/>
<path d="M3441 3784 c0 -11 3 -14 6 -6 3 7 2 16 -1 19 -3 4 -6 -2 -5 -13z"/>
<path d="M4120 3717 c0 -48 4 -87 8 -87 10 0 9 156 -1 166 -4 4 -7 -32 -7 -79z"/>
<path d="M3562 3770 c0 -14 2 -19 5 -12 2 6 2 18 0 25 -3 6 -5 1 -5 -13z"/>
<path d="M5346 3765 c-9 -26 -7 -32 5 -12 6 10 9 21 6 23 -2 3 -7 -2 -11 -11z"/>
<path d="M3452 3740 c0 -14 2 -19 5 -12 2 6 2 18 0 25 -3 6 -5 1 -5 -13z"/>
<path d="M3677 3735 c4 -16 7 -50 6 -75 -1 -34 1 -40 8 -25 6 14 7 4 4 -30 -3
-27 -1 -65 5 -84 5 -19 8 -36 6 -39 -2 -2 -21 2 -43 8 -34 10 -48 8 -128 -20
-49 -18 -144 -60 -210 -95 -66 -34 -156 -82 -200 -105 -44 -23 -90 -51 -102
-63 -22 -21 -22 -24 -9 -87 8 -36 26 -92 41 -125 63 -143 93 -204 133 -273 23
-40 42 -76 42 -81 0 -14 34 -38 108 -76 40 -20 83 -51 96 -68 25 -32 101 -189
146 -299 13 -32 25 -56 27 -54 6 6 -68 186 -118 286 -26 52 -46 96 -44 99 12
12 44 -36 97 -144 32 -66 55 -109 52 -95 -7 26 -52 129 -85 193 -22 43 -23 51
-8 41 12 -7 15 -14 85 -184 44 -104 56 -148 29 -100 -21 36 -17 12 5 -35 14
-30 18 -33 14 -12 -11 49 3 28 31 -48 15 -42 29 -74 31 -72 3 2 -32 98 -77
213 -101 261 -96 244 -71 244 19 0 52 -51 52 -82 0 -8 4 -18 8 -23 9 -10 57
-128 112 -273 18 -46 34 -81 36 -79 5 4 -36 119 -121 345 -26 68 -45 126 -42
128 3 3 22 -39 43 -93 43 -110 42 -108 50 -101 3 4 -9 48 -26 98 -17 50 -30
94 -27 96 5 5 82 -188 91 -230 4 -15 9 -26 12 -24 2 3 -6 41 -19 86 -13 45
-21 79 -17 77 3 -2 19 -36 35 -76 47 -117 39 -63 -10 68 -25 66 -45 123 -45
126 0 3 7 7 15 11 21 8 44 -41 106 -237 29 -93 55 -165 56 -160 2 5 -15 70
-37 143 -22 74 -40 140 -40 147 0 8 -9 38 -19 69 -11 30 -15 54 -10 52 11 -4
64 -126 115 -268 57 -160 38 -70 -25 115 -33 96 -56 177 -51 180 5 3 21 -33
36 -80 19 -56 31 -81 37 -72 5 7 6 0 2 -18 -5 -24 -4 -27 6 -18 10 10 8 30
-10 97 -13 47 -21 93 -19 103 4 18 21 -30 57 -162 29 -103 25 -47 -4 70 -26
103 -31 146 -17 130 13 -15 40 -114 77 -280 18 -82 34 -143 34 -134 2 27 -64
351 -85 422 -3 10 0 17 9 17 14 0 42 -96 87 -300 12 -52 27 -122 35 -155 7
-33 19 -86 25 -117 6 -32 14 -58 17 -58 3 0 3 10 0 23 -4 12 -18 83 -32 157
-30 159 -56 287 -80 388 -9 40 -14 76 -11 79 3 3 7 -5 10 -18 35 -160 59 -248
67 -243 5 3 9 17 8 32 0 22 -2 24 -8 8 -4 -10 -7 37 -8 105 0 158 -17 313 -43
392 -11 34 -36 116 -56 182 -41 135 -70 198 -114 248 -16 19 -30 40 -30 47 0
7 -6 10 -13 7 -24 -9 -39 10 -44 57 -3 25 -10 46 -15 46 -5 0 -7 9 -3 20 7 23
-13 140 -27 155 -6 6 -6 -1 -1 -20z m3 -286 c93 -56 132 -128 184 -345 39
-159 41 -194 14 -224 -81 -89 -444 -262 -552 -263 -51 -1 -64 16 -154 196
-115 232 -129 265 -137 329 -7 52 -22 42 311 213 67 34 130 65 140 68 11 3 44
14 74 26 69 26 77 26 120 0z m319 -779 c0 -23 -1 -23 -9 -5 -5 11 -9 31 -9 45
0 23 1 23 9 5 5 -11 9 -31 9 -45z m18 18 c-3 -8 -6 -5 -6 6 -1 11 2 17 5 13 3
-3 4 -12 1 -19z m-10 -90 c-3 -7 -5 -2 -5 12 0 14 2 19 5 13 2 -7 2 -19 0 -25z
m10 -50 c-3 -8 -6 -5 -6 6 -1 11 2 17 5 13 3 -3 4 -12 1 -19z"/>
<path d="M3408 3333 c0 -10 -1 -24 -1 -31 1 -7 -16 -21 -37 -32 -37 -19 -38
-19 -55 0 -26 29 -44 25 -92 -22 -48 -48 -52 -58 -23 -76 27 -17 12 -45 -38
-71 l-37 -19 3 -76 4 -76 29 0 c45 0 90 -56 59 -75 -18 -11 -11 -51 13 -71 72
-60 85 -66 116 -49 40 20 120 20 126 0 3 -8 7 -22 10 -30 3 -12 11 -12 57 2
89 26 123 45 126 73 5 36 31 60 64 60 63 0 98 46 98 129 0 41 -4 51 -20 56
-11 3 -20 14 -20 22 0 9 -5 32 -12 50 -10 27 -10 38 0 54 11 18 7 26 -34 74
-46 55 -62 63 -80 45 -19 -19 -80 10 -98 46 -16 34 -16 34 -86 34 -59 0 -70
-3 -72 -17z m142 -36 c4 -23 15 -32 63 -52 48 -19 59 -21 64 -9 6 17 23 6 54
-37 16 -23 17 -32 8 -52 -9 -20 -8 -30 5 -48 9 -13 16 -37 16 -55 0 -23 6 -34
25 -42 27 -12 31 -34 15 -76 -16 -42 -47 -68 -69 -57 -14 8 -26 3 -55 -23 -20
-19 -36 -42 -36 -53 0 -14 -14 -26 -47 -41 -82 -36 -91 -37 -95 -5 -3 25 -6
28 -38 25 -20 -2 -47 1 -62 7 -19 7 -31 6 -47 -6 -28 -19 -59 -11 -96 23 l-28
26 22 17 23 18 -24 46 c-16 33 -29 47 -45 48 -13 1 -29 2 -35 3 -9 1 -13 20
-13 61 0 58 1 60 26 60 21 -1 31 8 49 42 l23 43 -21 17 -21 18 29 33 c35 38
52 40 73 10 l15 -23 41 23 c22 12 47 22 55 22 18 0 20 17 7 40 -16 24 -2 31
57 28 54 -3 57 -5 62 -31z"/>
<path d="M3453 3087 c-28 -29 -32 -56 -16 -89 25 -51 101 -50 128 2 30 59 13
94 -51 104 -34 5 -44 2 -61 -17z m88 -6 c16 -2 18 -35 4 -62 -13 -23 -22 -29
-49 -29 -34 0 -46 13 -46 48 0 27 30 51 58 47 15 -2 30 -4 33 -4z"/>
<path d="M3762 3740 c0 -14 2 -19 5 -12 2 6 2 18 0 25 -3 6 -5 1 -5 -13z"/>
<path d="M3655 3681 c3 -35 5 -87 5 -114 0 -28 3 -47 6 -44 10 9 5 146 -6 187
-8 28 -9 23 -5 -29z"/>
<path d="M3732 3700 c0 -19 2 -27 5 -17 2 9 2 25 0 35 -3 9 -5 1 -5 -18z"/>
<path d="M3783 3690 c0 -25 2 -35 4 -22 2 12 2 32 0 45 -2 12 -4 2 -4 -23z"/>
<path d="M3271 3715 c1 -19 18 -51 18 -35 0 8 -4 22 -9 30 -5 8 -9 11 -9 5z"/>
<path d="M3461 3694 c0 -11 3 -14 6 -6 3 7 2 16 -1 19 -3 4 -6 -2 -5 -13z"/>
<path d="M5311 3669 c-6 -18 -9 -34 -7 -36 2 -2 9 10 15 28 6 18 9 34 7 36 -2
2 -9 -10 -15 -28z"/>
<path d="M3472 3650 c0 -14 2 -19 5 -12 2 6 2 18 0 25 -3 6 -5 1 -5 -13z"/>
<path d="M3266 3635 c2 -16 13 -57 24 -90 11 -33 17 -46 14 -30 -2 17 -13 57
-24 90 -11 33 -17 47 -14 30z"/>
<path d="M3747 3609 c3 -31 9 -71 13 -90 15 -62 10 10 -5 81 l-14 65 6 -56z"/>
<path d="M3482 3595 c0 -16 2 -22 5 -12 2 9 2 23 0 30 -3 6 -5 -1 -5 -18z"/>
<path d="M4563 3575 c0 -22 2 -30 4 -17 2 12 2 30 0 40 -3 9 -5 -1 -4 -23z"/>
<path d="M3792 3580 c0 -14 2 -19 5 -12 2 6 2 18 0 25 -3 6 -5 1 -5 -13z"/>
<path d="M4123 3559 c-2 -23 3 -25 10 -4 4 8 3 16 -1 19 -4 3 -9 -4 -9 -15z"/>
<path d="M3090 3551 c0 -6 4 -13 10 -16 6 -3 7 1 4 9 -7 18 -14 21 -14 7z"/>
<path d="M2961 3535 c0 -5 8 -26 19 -45 11 -19 19 -30 19 -25 0 6 -8 26 -19
45 -11 19 -19 31 -19 25z"/>
<path d="M4492 3520 c0 -14 2 -19 5 -12 2 6 2 18 0 25 -3 6 -5 1 -5 -13z"/>
<path d="M4552 3460 c0 -14 2 -19 5 -12 2 6 2 18 0 25 -3 6 -5 1 -5 -13z"/>
<path d="M4912 3450 c0 -14 2 -19 5 -12 2 6 2 18 0 25 -3 6 -5 1 -5 -13z"/>
<path d="M4174 3105 c0 -176 2 -247 3 -157 2 90 2 234 0 320 -1 86 -3 13 -3
-163z"/>
<path d="M4942 3325 c0 -16 2 -22 5 -12 2 9 2 23 0 30 -3 6 -5 -1 -5 -18z"/>
<path d="M6105 3279 c-9 -17 -15 -33 -13 -35 3 -2 12 12 21 31 21 43 13 47 -8
4z"/>
<path d="M4932 3270 c0 -14 2 -19 5 -12 2 6 2 18 0 25 -3 6 -5 1 -5 -13z"/>
<path d="M5836 3263 c-6 -14 -5 -15 5 -6 7 7 10 15 7 18 -3 3 -9 -2 -12 -12z"/>
<path d="M4915 3200 c-4 -23 -5 -43 -2 -46 2 -3 7 14 11 37 4 23 5 44 2 46 -2
2 -7 -14 -11 -37z"/>
<path d="M5775 3149 c-26 -50 -45 -94 -43 -98 2 -4 24 37 50 91 26 54 45 98
43 98 -3 0 -25 -41 -50 -91z"/>
<path d="M5276 3184 c-9 -26 -14 -49 -12 -51 2 -2 11 17 20 43 9 26 14 49 12
51 -2 2 -11 -17 -20 -43z"/>
<path d="M4583 3165 c0 -22 2 -30 4 -17 2 12 2 30 0 40 -3 9 -5 -1 -4 -23z"/>
<path d="M4982 3180 c0 -14 2 -19 5 -12 2 6 2 18 0 25 -3 6 -5 1 -5 -13z"/>
<path d="M6073 3178 c-15 -18 -35 -58 -29 -58 2 0 13 16 25 35 20 35 22 46 4
23z"/>
<path d="M4952 3058 c-12 -50 -21 -93 -18 -95 2 -2 14 37 26 87 12 50 21 93
18 95 -2 2 -14 -37 -26 -87z"/>
<path d="M4695 3129 c-4 -6 -5 -12 -2 -15 2 -3 7 2 10 11 7 17 1 20 -8 4z"/>
<path d="M4476 2967 c-10 -93 -16 -171 -13 -173 6 -7 40 288 35 316 -2 14 -12
-51 -22 -143z"/>
<path d="M5245 3099 c-5 -15 -10 -18 -15 -9 -5 7 -10 -2 -14 -25 -4 -20 -10
-44 -12 -53 -5 -14 -3 -14 10 2 8 10 13 23 10 27 -3 5 5 22 17 39 13 16 20 32
17 36 -4 3 -9 -4 -13 -17z"/>
<path d="M5191 2974 c0 -11 3 -14 6 -6 3 7 2 16 -1 19 -3 4 -6 -2 -5 -13z"/>
<path d="M5876 2975 c-9 -26 -7 -32 5 -12 6 10 9 21 6 23 -2 3 -7 -2 -11 -11z"/>
<path d="M5477 2973 c-4 -3 -7 -11 -7 -17 0 -6 5 -5 12 2 6 6 9 14 7 17 -3 3
-9 2 -12 -2z"/>
<path d="M4385 2840 c-4 -61 -5 -113 -2 -116 2 -3 8 45 12 106 4 61 5 113 2
116 -2 3 -8 -45 -12 -106z"/>
<path d="M4722 2925 c0 -16 2 -22 5 -12 2 9 2 23 0 30 -3 6 -5 -1 -5 -18z"/>
<path d="M5455 2930 c-3 -5 -1 -10 4 -10 6 0 11 5 11 10 0 6 -2 10 -4 10 -3 0
-8 -4 -11 -10z"/>
<path d="M5856 2925 c-9 -26 -7 -32 5 -12 6 10 9 21 6 23 -2 3 -7 -2 -11 -11z"/>
<path d="M4283 2890 c0 -25 2 -35 4 -22 2 12 2 32 0 45 -2 12 -4 2 -4 -23z"/>
<path d="M4880 2863 c-7 -32 -15 -65 -18 -73 -3 -10 -2 -12 5 -5 11 11 37 124
30 131 -2 2 -10 -22 -17 -53z"/>
<path d="M5171 2904 c0 -11 3 -14 6 -6 3 7 2 16 -1 19 -3 4 -6 -2 -5 -13z"/>
<path d="M5831 2859 c-6 -18 -9 -34 -7 -36 2 -2 9 10 15 28 6 18 9 34 7 36 -2
2 -9 -10 -15 -28z"/>
<path d="M2060 2875 c0 -4 17 -26 38 -49 20 -22 50 -57 65 -76 16 -19 24 -26
19 -15 -8 16 -57 75 -118 144 -2 2 -4 1 -4 -4z"/>
<path d="M5151 2834 c0 -11 3 -14 6 -6 3 7 2 16 -1 19 -3 4 -6 -2 -5 -13z"/>
<path d="M4302 2815 c0 -16 2 -22 5 -12 2 9 2 23 0 30 -3 6 -5 -1 -5 -18z"/>
<path d="M4273 2795 c0 -22 2 -30 4 -17 2 12 2 30 0 40 -3 9 -5 -1 -4 -23z"/>
<path d="M5806 2795 c-9 -26 -7 -32 5 -12 6 10 9 21 6 23 -2 3 -7 -2 -11 -11z"/>
<path d="M2510 2788 c0 -7 45 -77 57 -88 10 -9 -25 54 -41 75 -8 11 -16 17
-16 13z"/>
<path d="M4446 2718 c-4 -35 -9 -79 -11 -98 -4 -31 -4 -32 4 -8 10 31 25 168
18 168 -2 0 -7 -28 -11 -62z"/>
<path d="M5746 2763 c-6 -14 -5 -15 5 -6 7 7 10 15 7 18 -3 3 -9 -2 -12 -12z"/>
<path d="M5786 2745 c-9 -26 -7 -32 5 -12 6 10 9 21 6 23 -2 3 -7 -2 -11 -11z"/>
<path d="M5121 2724 c0 -11 3 -14 6 -6 3 7 2 16 -1 19 -3 4 -6 -2 -5 -13z"/>
<path d="M2620 2724 c0 -6 7 -19 16 -30 14 -18 14 -18 3 6 -14 31 -19 36 -19
24z"/>
<path d="M4371 2694 c0 -11 3 -14 6 -6 3 7 2 16 -1 19 -3 4 -6 -2 -5 -13z"/>
<path d="M5766 2695 c-9 -26 -7 -32 5 -12 6 10 9 21 6 23 -2 3 -7 -2 -11 -11z"/>
<path d="M2410 2684 c0 -6 7 -19 16 -30 14 -18 14 -18 3 6 -14 31 -19 36 -19
24z"/>
<path d="M5101 2654 c0 -11 3 -14 6 -6 3 7 2 16 -1 19 -3 4 -6 -2 -5 -13z"/>
<path d="M4032 2625 c0 -16 2 -22 5 -12 2 9 2 23 0 30 -3 6 -5 -1 -5 -18z"/>
<path d="M4042 2560 c0 -19 2 -27 5 -17 2 9 2 25 0 35 -3 9 -5 1 -5 -18z"/>
<path d="M5716 2565 c-9 -26 -7 -32 5 -12 6 10 9 21 6 23 -2 3 -7 -2 -11 -11z"/>
<path d="M2911 2550 c0 -3 6 -25 13 -50 8 -25 15 -36 15 -25 0 17 -26 88 -28
75z"/>
<path d="M5696 2515 c-9 -26 -7 -32 5 -12 6 10 9 21 6 23 -2 3 -7 -2 -11 -11z"/>
<path d="M2340 2486 c0 -2 8 -10 18 -17 15 -13 16 -12 3 4 -13 16 -21 21 -21
13z"/>
<path d="M5676 2465 c-9 -26 -7 -32 5 -12 6 10 9 21 6 23 -2 3 -7 -2 -11 -11z"/>
<path d="M2540 2445 c0 -2 28 -40 63 -83 34 -43 70 -89 80 -102 10 -14 15 -18
11 -10 -9 18 -145 200 -150 200 -2 0 -4 -2 -4 -5z"/>
<path d="M2840 2445 c0 -5 5 -17 10 -25 5 -8 10 -10 10 -5 0 6 -5 17 -10 25
-5 8 -10 11 -10 5z"/>
<path d="M2660 2400 c6 -11 13 -20 16 -20 2 0 0 9 -6 20 -6 11 -13 20 -16 20
-2 0 0 -9 6 -20z"/>
<path d="M2810 2405 c0 -5 5 -17 10 -25 5 -8 10 -10 10 -5 0 6 -5 17 -10 25
-5 8 -10 11 -10 5z"/>
<path d="M5095 2370 c-10 -22 -15 -43 -12 -46 4 -4 10 4 15 17 29 75 26 94 -3
29z"/>
<path d="M3921 2384 c0 -11 3 -14 6 -6 3 7 2 16 -1 19 -3 4 -6 -2 -5 -13z"/>
<path d="M5646 2385 c-9 -26 -7 -32 5 -12 6 10 9 21 6 23 -2 3 -7 -2 -11 -11z"/>
<path d="M2695 2340 c9 -16 18 -30 21 -30 2 0 -2 14 -11 30 -9 17 -18 30 -21
30 -2 0 2 -13 11 -30z"/>
<path d="M5626 2335 c-9 -26 -7 -32 5 -12 6 10 9 21 6 23 -2 3 -7 -2 -11 -11z"/>
<path d="M5066 2295 c-9 -26 -7 -32 5 -12 6 10 9 21 6 23 -2 3 -7 -2 -11 -11z"/>
<path d="M2745 2250 c14 -27 28 -50 30 -50 3 0 -6 23 -20 50 -14 28 -28 50
-30 50 -3 0 6 -22 20 -50z"/>
<path d="M5601 2269 c-6 -18 -9 -34 -7 -36 2 -2 9 10 15 28 6 18 9 34 7 36 -2
2 -9 -10 -15 -28z"/>
<path d="M6151 2272 c-30 -42 -26 -50 5 -12 15 17 24 33 21 36 -2 3 -14 -8
-26 -24z"/>
<path d="M5046 2245 c-9 -26 -7 -32 5 -12 6 10 9 21 6 23 -2 3 -7 -2 -11 -11z"/>
<path d="M3992 2215 c0 -16 2 -22 5 -12 2 9 2 23 0 30 -3 6 -5 -1 -5 -18z"/>
<path d="M5571 2189 c-6 -18 -9 -34 -7 -36 2 -2 9 10 15 28 6 18 9 34 7 36 -2
2 -9 -10 -15 -28z"/>
<path d="M4002 2155 c0 -16 2 -22 5 -12 2 9 2 23 0 30 -3 6 -5 -1 -5 -18z"/>
<path d="M3861 2154 c0 -11 3 -14 6 -6 3 7 2 16 -1 19 -3 4 -6 -2 -5 -13z"/>
<path d="M4998 2128 c-9 -18 -19 -44 -23 -58 -6 -24 -5 -24 9 -6 9 11 16 27
16 36 0 9 5 21 11 27 6 6 10 16 8 22 -3 7 -12 -3 -21 -21z"/>
<path d="M2921 2134 c0 -11 3 -14 6 -6 3 7 2 16 -1 19 -3 4 -6 -2 -5 -13z"/>
<path d="M2816 2117 c3 -10 9 -15 12 -12 3 3 0 11 -7 18 -10 9 -11 8 -5 -6z"/>
<path d="M2896 2095 c4 -8 8 -15 10 -15 2 0 4 7 4 15 0 8 -4 15 -10 15 -5 0
-7 -7 -4 -15z"/>
<path d="M3761 2050 c0 -8 4 -24 9 -35 5 -13 9 -14 9 -5 0 8 -4 24 -9 35 -5
13 -9 14 -9 5z"/>
<path d="M5766 2014 c-9 -26 -14 -49 -12 -51 2 -2 11 17 20 43 9 26 14 49 12
51 -2 2 -11 -17 -20 -43z"/>
<path d="M2870 2008 c0 -3 14 -37 31 -75 17 -37 44 -104 60 -147 29 -82 58
-128 45 -72 -14 58 -136 322 -136 294z"/>
<path d="M2951 1980 c14 -31 19 -36 19 -24 0 6 -7 19 -16 30 -14 18 -14 18 -3
-6z"/>
<path d="M2971 1935 c0 -5 6 -21 14 -35 8 -14 14 -20 14 -15 0 6 -6 21 -14 35
-8 14 -14 21 -14 15z"/>
<path d="M3000 1861 c0 -6 4 -13 10 -16 6 -3 7 1 4 9 -7 18 -14 21 -14 7z"/>
<path d="M5696 1705 c-9 -26 -7 -32 5 -12 6 10 9 21 6 23 -2 3 -7 -2 -11 -11z"/>
<path d="M5662 1625 c-17 -37 -14 -45 4 -12 9 16 14 31 11 33 -2 2 -9 -7 -15
-21z"/>
</g>
</svg>
