<svg width="24" height="24" viewBox="0 0 24 24" fill="none" xmlns="http://www.w3.org/2000/svg">
<path d="M10.4 21.3125C10.85 21.4708 11.3333 21.1417 11.3333 20.6667V4.94167C11.3333 4.76667 11.2667 4.59167 11.125 4.48333C10.3083 3.83333 8.43333 3 6 3C3.89583 3 1.92917 3.55417 0.754167 4.00417C0.283333 4.1875 0 4.65417 0 5.15833V20.5875C0 21.0833 0.533333 21.4292 1.00417 21.275C2.31667 20.8375 4.39583 20.3333 6 20.3333C7.4125 20.3333 9.29167 20.9167 10.4 21.3125ZM13.6 21.3125C14.7083 20.9167 16.5875 20.3333 18 20.3333C19.6042 20.3333 21.6833 20.8375 22.9958 21.275C23.4667 21.4333 24 21.0833 24 20.5875V5.15833C24 4.65417 23.7167 4.1875 23.2458 4.00833C22.0708 3.55417 20.1042 3 18 3C15.5667 3 13.6917 3.83333 12.875 4.48333C12.7375 4.59167 12.6667 4.76667 12.6667 4.94167V20.6667C12.6667 21.1417 13.1542 21.4708 13.6 21.3125Z" fill="#2B3944"/>
</svg>
