<svg width="24" height="24" viewBox="0 0 24 24" fill="none" xmlns="http://www.w3.org/2000/svg">
<path d="M12.5 12C14.0913 12 15.6174 11.3679 16.7426 10.2426C17.8679 9.11742 18.5 7.5913 18.5 6C18.5 4.4087 17.8679 2.88258 16.7426 1.75736C15.6174 0.632141 14.0913 0 12.5 0C10.9087 0 9.38258 0.632141 8.25736 1.75736C7.13214 2.88258 6.5 4.4087 6.5 6C6.5 7.5913 7.13214 9.11742 8.25736 10.2426C9.38258 11.3679 10.9087 12 12.5 12ZM10.3578 14.25C5.74063 14.25 2 17.9906 2 22.6078C2 23.3766 2.62344 24 3.39219 24H21.6078C22.3766 24 23 23.3766 23 22.6078C23 17.9906 19.2594 14.25 14.6422 14.25H10.3578Z" fill="#2B3944"/>
</svg>
