<svg width="24" height="24" viewBox="0 0 24 24" fill="none" xmlns="http://www.w3.org/2000/svg">
<path d="M21.3785 5.58637C22.1984 4.76644 22.1984 3.43487 21.3785 2.61495C20.5586 1.79502 19.227 1.79502 18.4071 2.61495L11.5 9.52858L4.58637 2.62151C3.76644 1.80158 2.43487 1.80158 1.61495 2.62151C0.795018 3.44143 0.795018 4.773 1.61495 5.59292L8.52858 12.5L1.62151 19.4136C0.801578 20.2336 0.801578 21.5651 1.62151 22.3851C2.44143 23.205 3.773 23.205 4.59292 22.3851L11.5 15.4714L18.4136 22.3785C19.2336 23.1984 20.5651 23.1984 21.3851 22.3785C22.205 21.5586 22.205 20.227 21.3851 19.4071L14.4714 12.5L21.3785 5.58637Z" fill="#2B3944"/>
</svg>
