<svg width="24" height="24" viewBox="0 0 24 24" fill="none" xmlns="http://www.w3.org/2000/svg">
<g clip-path="url(#clip0_36_508)">
<path d="M16.5 12C16.5 13.0406 16.4438 14.0437 16.3453 15H7.65469C7.55156 14.0437 7.5 13.0406 7.5 12C7.5 10.9594 7.55625 9.95625 7.65469 9H16.3453C16.4484 9.95625 16.5 10.9594 16.5 12ZM17.85 9H23.6203C23.8687 9.96094 24 10.9641 24 12C24 13.0359 23.8687 14.0391 23.6203 15H17.85C17.9484 14.0344 18 13.0312 18 12C18 10.9688 17.9484 9.96562 17.85 9ZM23.1281 7.5H17.6578C17.1891 4.50469 16.2609 1.99688 15.0656 0.39375C18.7359 1.36406 21.7219 4.02656 23.1234 7.5H23.1281ZM16.1391 7.5H7.86094C8.14687 5.79375 8.5875 4.28438 9.12656 3.06094C9.61875 1.95469 10.1672 1.15313 10.6969 0.646875C11.2219 0.15 11.6578 0 12 0C12.3422 0 12.7781 0.15 13.3031 0.646875C13.8328 1.15313 14.3812 1.95469 14.8734 3.06094C15.4172 4.27969 15.8531 5.78906 16.1391 7.5ZM6.34219 7.5H0.871875C2.27813 4.02656 5.25938 1.36406 8.93438 0.39375C7.73906 1.99688 6.81094 4.50469 6.34219 7.5ZM0.379688 9H6.15C6.05156 9.96562 6 10.9688 6 12C6 13.0312 6.05156 14.0344 6.15 15H0.379688C0.13125 14.0391 0 13.0359 0 12C0 10.9641 0.13125 9.96094 0.379688 9ZM9.12656 20.9344C8.58281 19.7156 8.14687 18.2062 7.86094 16.5H16.1391C15.8531 18.2062 15.4125 19.7156 14.8734 20.9344C14.3812 22.0406 13.8328 22.8422 13.3031 23.3484C12.7781 23.85 12.3422 24 12 24C11.6578 24 11.2219 23.85 10.6969 23.3531C10.1672 22.8469 9.61875 22.0453 9.12656 20.9391V20.9344ZM6.34219 16.5C6.81094 19.4953 7.73906 22.0031 8.93438 23.6063C5.25938 22.6359 2.27813 19.9734 0.871875 16.5H6.34219ZM23.1281 16.5C21.7219 19.9734 18.7406 22.6359 15.0703 23.6063C16.2656 22.0031 17.1891 19.4953 17.6625 16.5H23.1281Z" fill="#2B3944"/>
</g>
<defs>
<clipPath id="clip0_36_508">
<rect width="24" height="24" fill="white"/>
</clipPath>
</defs>
</svg>
