<?xml version="1.0" encoding="utf-8"?>
<!-- Generator: Adobe Illustrator 21.0.0, SVG Export Plug-In . SVG Version: 6.00 Build 0)  -->
<svg version="1.1" id="Layer_1" xmlns="http://www.w3.org/2000/svg" xmlns:xlink="http://www.w3.org/1999/xlink" x="0px" y="0px"
	 width="112.8px" height="112.4px" viewBox="0 0 112.8 112.4" style="enable-background:new 0 0 112.8 112.4;" xml:space="preserve"
	>
<style type="text/css">
	.st0{opacity:0.1;}
	.st1{fill:#193F87;}
</style>
<g class="st0">
	<path class="st1" d="M45.4,1L43,20.4c-7.1-0.5-12.2,0.9-15.4,4.2c-3.2,3.4-5.1,7.9-5.8,13.5c-0.7,5.7-0.9,11.8-0.5,18.3h24.2v56H0
		V45.8C0,29.6,4.1,17.3,12.3,9.2C20.6,1.1,31.6-1.7,45.4,1z M112.8,1l-2.4,19.4c-7.1-0.5-12.2,0.9-15.4,4.2
		c-3.2,3.4-5.1,7.9-5.8,13.5c-0.7,5.7-0.9,11.8-0.5,18.3h24.2v56H67.4V45.8c0-16.3,4.1-28.5,12.3-36.6C88,1.1,99-1.7,112.8,1z"/>
</g>
<g>
</g>
<g>
</g>
<g>
</g>
<g>
</g>
<g>
</g>
<g>
</g>
</svg>
