<svg width="1132" height="240" viewBox="0 0 1132 240" fill="none" xmlns="http://www.w3.org/2000/svg">
<path d="M111.238 0.561844C87.6351 2.22362 62.8643 12.1328 44.3631 27.2735C38.6467 31.9511 27.9516 43.0912 24.0178 48.5074C11.5402 65.6177 3.91845 83.9588 0.968089 104.27C-0.322696 113.256 -0.322696 129.873 0.968089 138.675C3.42673 154.923 9.08159 170.741 17.3795 184.405C19.5308 187.851 27.6443 199.299 28.0131 199.299C28.0746 199.299 27.7672 196.16 27.2755 192.406C26.1691 183.051 26.6609 155.846 28.0131 147.291C32.6231 119.103 42.9493 93.3141 58.5617 71.157C70.9163 53.6774 89.8479 35.5209 107.366 24.3808C118.614 17.2412 132.198 10.5941 144.184 6.40886C147.441 5.30101 150.269 4.19315 150.453 4.0085C151.006 3.45457 136.992 1.11577 129.493 0.50029C121.441 -0.176727 120.827 -0.176727 111.238 0.561844Z" fill="white"/>
<path d="M227.9 71.7724C226.855 80.8199 222.553 91.7754 216.345 101.131C212.595 106.793 202.822 117.195 196.43 122.365C169.077 144.337 128.571 157.262 85.7296 157.631L73.8667 157.754V161.263C73.8667 165.756 76.5097 181.327 78.5381 188.836C84.9306 212.347 96.6706 229.088 111.484 235.92C127.035 243.059 148.056 240.782 171.352 229.457C198.397 216.348 219.848 193.391 231.465 165.263C243.328 136.644 242.775 100.269 230.113 71.8956L228.331 67.895L227.9 71.7724Z" fill="white"/>
<path d="M194.379 27.4895C230.227 68.8551 188.031 118.326 148.426 133.641C125.108 142.641 100.095 144.827 75.5237 147.329C75.247 147.357 74.9675 147.32 74.7082 147.22C74.4488 147.12 74.2173 146.96 74.0327 146.754C73.8481 146.548 73.7157 146.302 73.6466 146.035C73.5775 145.769 73.5737 145.49 73.6353 145.222C82.8236 104.118 103.384 42.3418 144.63 21.7935C160.717 13.7773 181.067 12.1515 194.379 27.4895Z" fill="#74AFE9"/>
<path d="M725.997 149.874C728.498 149.874 731.035 149.228 733.607 147.937C736.251 146.645 738.894 144.636 741.538 141.91C744.253 139.184 747.04 135.669 749.898 131.364C752.756 126.988 755.685 121.786 758.686 115.76L759.758 113.5L764.152 116.836L763.081 119.096C759.222 126.772 755.364 133.337 751.506 138.789C747.719 144.242 743.967 148.69 740.252 152.133C736.608 155.577 733 158.088 729.427 159.666C725.854 161.245 722.425 162.034 719.138 162.034C714.494 162.034 710.35 161.065 706.705 159.128C703.061 157.191 699.989 154.573 697.488 151.273C694.987 147.901 693.094 144.027 691.808 139.65C690.45 135.202 689.771 130.539 689.771 125.66C689.771 117.912 690.843 110.882 692.987 104.568C695.059 98.1831 697.845 92.7307 701.347 88.2109C704.919 83.6912 708.956 80.1758 713.458 77.6648C717.959 75.1538 722.639 73.8983 727.498 73.8983C732.428 73.8983 736.179 75.1538 738.751 77.6648C741.395 80.1758 742.717 83.3324 742.717 87.1348C742.717 90.7937 741.681 94.2373 739.609 97.4657C737.537 100.622 734.714 103.743 731.142 106.828C727.641 109.841 723.568 112.854 718.924 115.868C714.279 118.809 709.385 121.858 704.24 125.015C704.741 128.745 705.598 132.153 706.813 135.238C708.027 138.251 709.564 140.87 711.421 143.094C713.279 145.246 715.423 146.932 717.852 148.152C720.281 149.3 722.996 149.874 725.997 149.874ZM729.32 90.3632C729.32 87.4935 728.534 85.2336 726.962 83.5835C725.461 81.9335 723.604 81.1084 721.389 81.1084C719.531 81.1084 717.566 81.79 715.494 83.1531C713.422 84.4445 711.528 86.5609 709.814 89.5023C708.099 92.372 706.67 96.0667 705.527 100.587C704.383 105.106 703.812 110.595 703.812 117.051V119.527C706.241 118.235 708.92 116.549 711.85 114.469C714.851 112.316 717.638 109.949 720.21 107.366C722.782 104.783 724.926 102.057 726.64 99.1875C728.427 96.2461 729.32 93.3046 729.32 90.3632Z" fill="#74AFE9"/>
<path d="M364.059 125.238C364.059 133.689 362.169 141.22 358.39 147.829C354.719 154.439 349.698 159.639 343.328 163.432C337.065 167.224 329.993 169.12 322.11 169.12C314.228 169.12 307.102 167.224 300.731 163.432C294.361 159.639 289.286 154.439 285.507 147.829C281.836 141.22 280 133.689 280 125.238C280 116.787 281.836 109.256 285.507 102.647C289.286 96.0375 294.361 90.8367 300.731 87.0444C307.102 83.2521 314.228 81.356 322.11 81.356C329.993 81.356 337.065 83.2521 343.328 87.0444C349.698 90.8367 354.719 96.0375 358.39 102.647C362.169 109.256 364.059 116.787 364.059 125.238ZM351.102 125.238C351.102 118.954 349.806 113.428 347.215 108.66C344.731 103.893 341.276 100.155 336.849 97.446C332.53 94.7373 327.617 93.3829 322.11 93.3829C316.604 93.3829 311.637 94.7373 307.21 97.446C302.891 100.155 299.436 103.893 296.844 108.66C294.253 113.428 292.957 118.954 292.957 125.238C292.957 131.414 294.253 136.886 296.844 141.653C299.436 146.421 302.891 150.213 307.21 153.03C311.637 155.739 316.604 157.093 322.11 157.093C327.617 157.093 332.53 155.739 336.849 153.03C341.276 150.213 344.731 146.421 347.215 141.653C349.806 136.886 351.102 131.414 351.102 125.238Z" fill="white"/>
<path d="M424.848 82.1686C432.191 82.1686 438.777 84.0106 444.608 87.6945C450.439 91.3784 455.028 96.4709 458.375 102.972C461.83 109.473 463.558 116.949 463.558 125.401C463.558 133.744 461.83 141.22 458.375 147.829C455.028 154.33 450.439 159.477 444.608 163.269C438.885 166.953 432.407 168.795 425.172 168.795C421.177 168.795 417.398 168.199 413.835 167.007C410.38 165.707 407.194 164.082 404.279 162.131C401.472 160.073 399.096 157.797 397.153 155.305C395.209 152.705 393.805 150.159 392.942 147.667L396.505 145.391V193.336C396.505 195.178 395.911 196.75 394.723 198.05C393.535 199.35 391.97 200 390.026 200C388.191 200 386.625 199.35 385.329 198.05C384.142 196.858 383.548 195.287 383.548 193.336V89.4823C383.548 87.6403 384.142 86.1234 385.329 84.9315C386.625 83.6313 388.191 82.9812 390.026 82.9812C391.97 82.9812 393.535 83.6313 394.723 84.9315C395.911 86.1234 396.505 87.6403 396.505 89.4823V103.947L394.075 102.647C394.831 99.9381 396.127 97.3377 397.962 94.8456C399.906 92.3536 402.227 90.1865 404.927 88.3446C407.734 86.3943 410.812 84.8774 414.159 83.7939C417.614 82.7103 421.177 82.1686 424.848 82.1686ZM423.391 94.1955C417.992 94.1955 413.187 95.5499 408.976 98.2587C404.873 100.967 401.634 104.651 399.258 109.31C396.991 113.97 395.857 119.333 395.857 125.401C395.857 131.36 396.991 136.723 399.258 141.491C401.634 146.258 404.873 149.996 408.976 152.705C413.187 155.414 417.992 156.768 423.391 156.768C428.789 156.768 433.54 155.414 437.643 152.705C441.747 149.996 444.986 146.258 447.361 141.491C449.737 136.723 450.924 131.36 450.924 125.401C450.924 119.333 449.737 113.97 447.361 109.31C444.986 104.651 441.747 100.967 437.643 98.2587C433.54 95.5499 428.789 94.1955 423.391 94.1955Z" fill="white"/>
<path d="M521.744 169.12C513.106 169.12 505.548 167.278 499.069 163.594C492.591 159.91 487.516 154.872 483.845 148.479C480.282 141.978 478.5 134.502 478.5 126.051C478.5 116.624 480.336 108.606 484.007 101.997C487.786 95.279 492.645 90.1865 498.583 86.7193C504.63 83.1437 511.001 81.356 517.695 81.356C522.662 81.356 527.467 82.2769 532.11 84.1189C536.753 85.9609 540.856 88.6696 544.419 92.2452C547.982 95.7124 550.844 99.9381 553.003 104.922C555.163 109.798 556.296 115.27 556.404 121.337C556.404 123.071 555.757 124.534 554.461 125.726C553.165 126.917 551.653 127.513 549.926 127.513H485.95L483.035 116.299H545.391L542.799 118.574V114.999C542.368 110.556 540.856 106.764 538.264 103.622C535.781 100.372 532.704 97.8795 529.033 96.1458C525.469 94.4122 521.69 93.5454 517.695 93.5454C514.456 93.5454 511.217 94.1413 507.977 95.3332C504.846 96.4167 501.985 98.2587 499.393 100.859C496.91 103.351 494.858 106.602 493.239 110.611C491.727 114.62 490.971 119.441 490.971 125.075C490.971 131.36 492.213 136.886 494.696 141.653C497.288 146.421 500.851 150.213 505.386 153.03C509.921 155.739 515.212 157.093 521.258 157.093C525.037 157.093 528.331 156.606 531.138 155.63C533.945 154.655 536.375 153.463 538.426 152.055C540.478 150.538 542.206 149.021 543.609 147.504C545.013 146.529 546.363 146.041 547.658 146.041C549.278 146.041 550.574 146.583 551.545 147.667C552.625 148.75 553.165 150.05 553.165 151.567C553.165 153.409 552.301 155.034 550.574 156.443C547.55 159.802 543.447 162.782 538.264 165.382C533.082 167.874 527.575 169.12 521.744 169.12Z" fill="white"/>
<path d="M617.504 81.356C624.846 81.356 630.623 82.8729 634.834 85.9067C639.045 88.9405 642.014 93.0037 643.742 98.0962C645.577 103.189 646.495 108.877 646.495 115.161V160.831C646.495 162.673 645.847 164.244 644.552 165.544C643.364 166.845 641.852 167.495 640.017 167.495C638.181 167.495 636.615 166.845 635.32 165.544C634.132 164.244 633.538 162.673 633.538 160.831V115.486C633.538 111.369 632.89 107.685 631.595 104.435C630.407 101.076 628.355 98.4212 625.44 96.4709C622.633 94.4122 618.745 93.3829 613.779 93.3829C609.244 93.3829 605.087 94.4122 601.307 96.4709C597.528 98.4212 594.505 101.076 592.237 104.435C589.97 107.685 588.836 111.369 588.836 115.486V160.831C588.836 162.673 588.188 164.244 586.893 165.544C585.705 166.845 584.193 167.495 582.358 167.495C580.522 167.495 578.956 166.845 577.661 165.544C576.473 164.244 575.879 162.673 575.879 160.831V89.9698C575.879 88.1279 576.473 86.611 577.661 85.4191C578.956 84.1189 580.522 83.4688 582.358 83.4688C584.301 83.4688 585.867 84.1189 587.055 85.4191C588.242 86.611 588.836 88.1279 588.836 89.9698V101.509L585.597 105.085C586.137 102.268 587.379 99.4505 589.322 96.6334C591.266 93.7079 593.695 91.1075 596.61 88.8322C599.526 86.5568 602.765 84.769 606.328 83.4688C609.891 82.0602 613.617 81.356 617.504 81.356Z" fill="white"/>
<path d="M811.987 74.1695C817.489 74.1695 822.452 74.7661 826.875 75.9593C831.298 77.1525 834.804 78.7797 837.393 80.8407C839.982 82.9017 841.276 85.2339 841.276 87.8373C841.276 89.2475 840.791 90.6034 839.82 91.9051C838.849 93.2068 837.555 93.8576 835.936 93.8576C834.426 93.8576 833.185 93.5864 832.215 93.0441C831.352 92.5017 830.489 91.7966 829.625 90.9288C828.87 90.061 827.792 89.3017 826.389 88.6508C825.095 87.8915 823.207 87.2949 820.726 86.861C818.244 86.4271 815.763 86.2102 813.282 86.2102C807.349 86.2102 802.116 87.6203 797.586 90.4407C793.163 93.261 789.656 97.0576 787.067 101.831C784.478 106.603 783.184 112.027 783.184 118.102C783.184 124.176 784.424 129.6 786.906 134.373C789.387 139.146 792.839 142.942 797.262 145.763C801.685 148.583 806.809 149.993 812.635 149.993C816.41 149.993 819.431 149.668 821.696 149.017C823.962 148.366 825.85 147.607 827.36 146.739C829.302 145.654 830.758 144.569 831.729 143.485C832.808 142.4 834.21 141.858 835.936 141.858C837.77 141.858 839.173 142.454 840.144 143.647C841.222 144.841 841.762 146.305 841.762 148.041C841.762 149.993 840.413 152.054 837.716 154.224C835.019 156.393 831.352 158.237 826.713 159.756C822.182 161.275 817.004 162.034 811.178 162.034C802.979 162.034 795.806 160.136 789.656 156.339C783.507 152.434 778.707 147.173 775.255 140.556C771.91 133.831 770.238 126.346 770.238 118.102C770.238 109.858 771.964 102.427 775.416 95.8102C778.976 89.1932 783.885 83.9322 790.142 80.0271C796.399 76.122 803.681 74.1695 811.987 74.1695Z" fill="white"/>
<path d="M872.921 153.736C872.921 155.58 872.273 157.153 870.979 158.454C869.684 159.756 868.12 160.407 866.286 160.407C864.452 160.407 862.942 159.756 861.755 158.454C860.569 157.153 859.975 155.58 859.975 153.736V46.5085C859.975 44.6644 860.569 43.1458 861.755 41.9525C863.05 40.6508 864.614 40 866.448 40C868.39 40 869.954 40.6508 871.141 41.9525C872.327 43.1458 872.921 44.6644 872.921 46.5085V153.736Z" fill="white"/>
<path d="M966.963 75.4712C968.797 75.4712 970.308 76.122 971.494 77.4237C972.789 78.6169 973.436 80.1356 973.436 81.9797V153.736C973.436 155.58 972.789 157.153 971.494 158.454C970.308 159.756 968.797 160.407 966.963 160.407C965.022 160.407 963.457 159.756 962.271 158.454C961.084 157.153 960.491 155.58 960.491 153.736V138.278L963.565 137.953C963.565 140.339 962.756 142.942 961.138 145.763C959.52 148.583 957.308 151.241 954.504 153.736C951.699 156.122 948.354 158.129 944.471 159.756C940.695 161.275 936.596 162.034 932.173 162.034C924.837 162.034 918.256 160.136 912.431 156.339C906.605 152.434 901.967 147.173 898.514 140.556C895.17 133.939 893.498 126.4 893.498 117.939C893.498 109.369 895.17 101.831 898.514 95.322C901.967 88.7051 906.605 83.5525 912.431 79.8644C918.256 76.0678 924.729 74.1695 931.849 74.1695C936.488 74.1695 940.803 74.9288 944.794 76.4475C948.786 77.9661 952.238 80.0271 955.151 82.6305C958.171 85.2339 960.491 88.1085 962.109 91.2542C963.835 94.4 964.698 97.5458 964.698 100.692L960.491 99.7153V81.9797C960.491 80.1356 961.084 78.6169 962.271 77.4237C963.457 76.122 965.022 75.4712 966.963 75.4712ZM933.629 149.993C939.023 149.993 943.77 148.583 947.869 145.763C952.076 142.942 955.313 139.146 957.578 134.373C959.951 129.492 961.138 124.014 961.138 117.939C961.138 111.973 959.951 106.603 957.578 101.831C955.313 96.9492 952.076 93.1525 947.869 90.4407C943.77 87.6203 939.023 86.2102 933.629 86.2102C928.343 86.2102 923.596 87.5661 919.389 90.278C915.29 92.9898 912.053 96.7322 909.68 101.505C907.307 106.278 906.12 111.756 906.12 117.939C906.12 124.014 907.253 129.492 909.518 134.373C911.891 139.146 915.128 142.942 919.227 145.763C923.434 148.583 928.235 149.993 933.629 149.993Z" fill="white"/>
<path d="M992.734 147.064C991.763 145.654 991.332 144.19 991.44 142.671C991.548 141.044 992.465 139.634 994.191 138.441C995.269 137.681 996.51 137.356 997.912 137.464C999.423 137.573 1000.77 138.278 1001.96 139.58C1004.98 143.159 1008.43 146.034 1012.31 148.203C1016.2 150.264 1020.94 151.295 1026.55 151.295C1029.14 151.186 1031.73 150.753 1034.32 149.993C1036.91 149.234 1039.07 147.932 1040.79 146.088C1042.63 144.136 1043.55 141.586 1043.55 138.441C1043.55 135.403 1042.63 133.017 1040.79 131.281C1038.96 129.437 1036.59 127.973 1033.67 126.888C1030.76 125.695 1027.58 124.664 1024.13 123.797C1020.57 122.82 1017.06 121.736 1013.61 120.542C1010.16 119.241 1007.03 117.668 1004.22 115.824C1001.53 113.871 999.315 111.485 997.589 108.664C995.971 105.736 995.162 102.21 995.162 98.0881C995.162 93.2068 996.456 88.9763 999.045 85.3966C1001.74 81.8169 1005.3 79.0508 1009.73 77.0983C1014.26 75.1458 1019.16 74.1695 1024.45 74.1695C1027.47 74.1695 1030.6 74.5492 1033.84 75.3085C1037.18 75.9593 1040.42 77.1525 1043.55 78.8881C1046.67 80.5153 1049.42 82.7932 1051.8 85.722C1052.77 86.8068 1053.31 88.1627 1053.42 89.7898C1053.52 91.4169 1052.82 92.8814 1051.31 94.1831C1050.13 95.0508 1048.78 95.4305 1047.27 95.322C1045.86 95.2136 1044.68 94.6712 1043.71 93.6949C1041.44 90.9831 1038.58 88.922 1035.13 87.5119C1031.79 85.9932 1028.06 85.2339 1023.97 85.2339C1021.38 85.2339 1018.84 85.6136 1016.36 86.3729C1013.88 87.1322 1011.77 88.4339 1010.05 90.278C1008.43 92.0136 1007.62 94.4542 1007.62 97.6C1007.73 100.529 1008.7 102.915 1010.53 104.759C1012.37 106.603 1014.85 108.122 1017.98 109.315C1021.11 110.4 1024.56 111.485 1028.33 112.569C1031.79 113.437 1035.08 114.468 1038.21 115.661C1041.44 116.746 1044.35 118.21 1046.94 120.054C1049.53 121.898 1051.58 124.285 1053.09 127.214C1054.6 130.034 1055.36 133.614 1055.36 137.953C1055.36 142.942 1053.96 147.281 1051.15 150.969C1048.35 154.549 1044.62 157.315 1039.99 159.268C1035.45 161.112 1030.55 162.034 1025.26 162.034C1019.33 162.034 1013.45 160.895 1007.62 158.617C1001.9 156.339 996.942 152.488 992.734 147.064Z" fill="white"/>
<path d="M1069.38 147.064C1068.41 145.654 1067.97 144.19 1068.08 142.671C1068.19 141.044 1069.11 139.634 1070.83 138.441C1071.91 137.681 1073.15 137.356 1074.55 137.464C1076.07 137.573 1077.41 138.278 1078.6 139.58C1081.62 143.159 1085.07 146.034 1088.96 148.203C1092.84 150.264 1097.59 151.295 1103.2 151.295C1105.79 151.186 1108.37 150.753 1110.96 149.993C1113.55 149.234 1115.71 147.932 1117.44 146.088C1119.27 144.136 1120.19 141.586 1120.19 138.441C1120.19 135.403 1119.27 133.017 1117.44 131.281C1115.6 129.437 1113.23 127.973 1110.32 126.888C1107.4 125.695 1104.22 124.664 1100.77 123.797C1097.21 122.82 1093.7 121.736 1090.25 120.542C1086.8 119.241 1083.67 117.668 1080.87 115.824C1078.17 113.871 1075.96 111.485 1074.23 108.664C1072.61 105.736 1071.8 102.21 1071.8 98.0881C1071.8 93.2068 1073.1 88.9763 1075.69 85.3966C1078.38 81.8169 1081.94 79.0508 1086.37 77.0983C1090.9 75.1458 1095.81 74.1695 1101.09 74.1695C1104.11 74.1695 1107.24 74.5492 1110.48 75.3085C1113.82 75.9593 1117.06 77.1525 1120.19 78.8881C1123.32 80.5153 1126.07 82.7932 1128.44 85.722C1129.41 86.8068 1129.95 88.1627 1130.06 89.7898C1130.17 91.4169 1129.47 92.8814 1127.95 94.1831C1126.77 95.0508 1125.42 95.4305 1123.91 95.322C1122.51 95.2136 1121.32 94.6712 1120.35 93.6949C1118.08 90.9831 1115.23 88.922 1111.77 87.5119C1108.43 85.9932 1104.71 85.2339 1100.61 85.2339C1098.02 85.2339 1095.48 85.6136 1093 86.3729C1090.52 87.1322 1088.42 88.4339 1086.69 90.278C1085.07 92.0136 1084.26 94.4542 1084.26 97.6C1084.37 100.529 1085.34 102.915 1087.18 104.759C1089.01 106.603 1091.49 108.122 1094.62 109.315C1097.75 110.4 1101.2 111.485 1104.98 112.569C1108.43 113.437 1111.72 114.468 1114.85 115.661C1118.08 116.746 1121 118.21 1123.59 120.054C1126.17 121.898 1128.22 124.285 1129.73 127.214C1131.25 130.034 1132 133.614 1132 137.953C1132 142.942 1130.6 147.281 1127.79 150.969C1124.99 154.549 1121.27 157.315 1116.63 159.268C1112.1 161.112 1107.19 162.034 1101.9 162.034C1095.97 162.034 1090.09 160.895 1084.26 158.617C1078.55 156.339 1073.58 152.488 1069.38 147.064Z" fill="white"/>
</svg>
