<svg width="2264" height="480" viewBox="0 0 2264 480" fill="none" xmlns="http://www.w3.org/2000/svg">
<path d="M222.476 1.12369C175.27 4.44724 125.729 24.2656 88.7261 54.547C77.2934 63.9022 55.9033 86.1825 48.0356 97.0149C23.0805 131.235 7.83691 167.918 1.93618 208.539C-0.645392 226.511 -0.645392 259.747 1.93618 277.349C6.85345 309.846 18.1632 341.482 34.759 368.809C39.0616 375.702 55.2886 398.598 56.0262 398.598C56.1491 398.598 55.5345 392.32 54.551 384.811C52.3383 366.101 53.3217 311.693 56.0262 294.583C65.2461 238.205 85.8987 186.628 117.123 142.314C141.833 107.355 179.696 71.0417 214.731 48.7615C237.228 34.4825 264.396 21.1882 288.368 12.8177C294.883 10.602 300.538 8.38629 300.907 8.017C302.013 6.90915 273.984 2.23154 258.987 1.00058C242.883 -0.353455 241.653 -0.353455 222.476 1.12369Z" fill="#2B3944"/>
<path d="M455.801 143.545C453.711 161.64 445.106 183.551 432.69 202.261C425.191 213.586 405.645 234.389 392.86 244.729C338.155 288.674 257.143 314.524 171.459 315.263L147.733 315.509V322.525C147.733 331.511 153.019 362.654 157.076 377.672C169.861 424.694 193.341 458.176 222.968 471.84C254.069 486.119 296.112 481.564 342.703 458.915C396.793 432.696 439.697 386.781 462.931 330.527C486.657 273.287 485.55 200.538 460.226 143.791L456.661 135.79L455.801 143.545Z" fill="#2B3944"/>
<path d="M388.757 54.9789C460.454 137.71 376.062 236.653 296.853 267.282C250.216 285.282 200.19 289.653 151.047 294.658C150.494 294.714 149.935 294.639 149.416 294.439C148.898 294.239 148.435 293.92 148.065 293.508C147.696 293.096 147.431 292.604 147.293 292.071C147.155 291.538 147.147 290.98 147.271 290.444C165.647 208.237 206.768 84.6835 289.26 43.5871C321.434 27.5546 362.134 24.303 388.757 54.9789Z" fill="#0073E6"/>
<path d="M1451.99 299.747C1457 299.747 1462.07 298.456 1467.21 295.873C1472.5 293.29 1477.79 289.273 1483.08 283.82C1488.51 278.368 1494.08 271.337 1499.8 262.728C1505.51 253.975 1511.37 243.573 1517.37 231.52L1519.52 227L1528.3 233.672L1526.16 238.192C1518.44 253.545 1510.73 266.674 1503.01 277.579C1495.44 288.484 1487.93 297.38 1480.5 304.267C1473.22 311.154 1466 316.176 1458.85 319.333C1451.71 322.489 1444.85 324.068 1438.28 324.068C1428.99 324.068 1420.7 322.131 1413.41 318.257C1406.12 314.383 1399.98 309.145 1394.98 302.545C1389.97 295.801 1386.19 288.053 1383.62 279.301C1380.9 270.404 1379.54 261.078 1379.54 251.321C1379.54 235.825 1381.69 221.763 1385.97 209.136C1390.12 196.366 1395.69 185.461 1402.69 176.422C1409.84 167.382 1417.91 160.352 1426.92 155.33C1435.92 150.308 1445.28 147.797 1455 147.797C1464.86 147.797 1472.36 150.308 1477.5 155.33C1482.79 160.352 1485.43 166.665 1485.43 174.27C1485.43 181.587 1483.36 188.475 1479.22 194.931C1475.07 201.245 1469.43 207.486 1462.28 213.656C1455.28 219.683 1447.14 225.709 1437.85 231.735C1428.56 237.618 1418.77 243.716 1408.48 250.03C1409.48 257.491 1411.2 264.306 1413.63 270.476C1416.05 276.503 1419.13 281.74 1422.84 286.188C1426.56 290.492 1430.85 293.864 1435.7 296.303C1440.56 298.599 1445.99 299.747 1451.99 299.747ZM1458.64 180.726C1458.64 174.987 1457.07 170.467 1453.92 167.167C1450.92 163.867 1447.21 162.217 1442.78 162.217C1439.06 162.217 1435.13 163.58 1430.99 166.306C1426.84 168.889 1423.06 173.122 1419.63 179.005C1416.2 184.744 1413.34 192.133 1411.05 201.173C1408.77 210.213 1407.62 221.189 1407.62 234.103V239.053C1412.48 236.47 1417.84 233.098 1423.7 228.937C1429.7 224.633 1435.28 219.898 1440.42 214.732C1445.56 209.567 1449.85 204.114 1453.28 198.375C1456.85 192.492 1458.64 186.609 1458.64 180.726Z" fill="#0073E6"/>
<path d="M728.118 250.476C728.118 267.379 724.339 282.44 716.781 295.658C709.438 308.877 699.396 319.279 686.655 326.863C674.13 334.448 659.985 338.24 644.221 338.24C628.457 338.24 614.204 334.448 601.463 326.863C588.721 319.279 578.572 308.877 571.014 295.658C563.671 282.44 560 267.379 560 250.476C560 233.573 563.671 218.513 571.014 205.294C578.572 192.075 588.721 181.673 601.463 174.089C614.204 166.504 628.457 162.712 644.221 162.712C659.985 162.712 674.13 166.504 686.655 174.089C699.396 181.673 709.438 192.075 716.781 205.294C724.339 218.513 728.118 233.573 728.118 250.476ZM702.204 250.476C702.204 237.907 699.612 226.856 694.43 217.321C689.463 207.786 682.552 200.31 673.698 194.892C665.06 189.475 655.234 186.766 644.221 186.766C633.207 186.766 623.274 189.475 614.42 194.892C605.782 200.31 598.871 207.786 593.688 217.321C588.506 226.856 585.914 237.907 585.914 250.476C585.914 262.828 588.506 273.771 593.688 283.306C598.871 292.841 605.782 300.426 614.42 306.06C623.274 311.477 633.207 314.186 644.221 314.186C655.234 314.186 665.06 311.477 673.698 306.06C682.552 300.426 689.463 292.841 694.43 283.306C699.612 273.771 702.204 262.828 702.204 250.476Z" fill="#2B3944"/>
<path d="M849.697 164.337C864.381 164.337 877.554 168.021 889.216 175.389C900.877 182.757 910.055 192.942 916.75 205.944C923.66 218.946 927.115 233.898 927.115 250.801C927.115 267.487 923.66 282.44 916.75 295.658C910.055 308.66 900.877 318.954 889.216 326.538C877.77 333.906 864.813 337.59 850.345 337.59C842.354 337.59 834.796 336.398 827.67 334.014C820.759 331.414 814.389 328.164 808.558 324.263C802.943 320.146 798.192 315.595 794.305 310.611C790.418 305.41 787.611 300.317 785.883 295.333L793.01 290.783V386.673C793.01 390.357 791.822 393.499 789.446 396.099C787.071 398.7 783.94 400 780.052 400C776.381 400 773.25 398.7 770.659 396.099C768.283 393.716 767.095 390.574 767.095 386.673V178.965C767.095 175.281 768.283 172.247 770.659 169.863C773.25 167.263 776.381 165.962 780.052 165.962C783.94 165.962 787.071 167.263 789.446 169.863C791.822 172.247 793.01 175.281 793.01 178.965V207.894L788.151 205.294C789.662 199.876 792.254 194.675 795.925 189.691C799.812 184.707 804.455 180.373 809.854 176.689C815.468 172.789 821.623 169.755 828.318 167.588C835.228 165.421 842.354 164.337 849.697 164.337ZM846.781 188.391C835.984 188.391 826.374 191.1 817.952 196.517C809.746 201.935 803.267 209.303 798.516 218.621C793.981 227.939 791.714 238.666 791.714 250.801C791.714 262.72 793.981 273.446 798.516 282.981C803.267 292.516 809.746 299.992 817.952 305.41C826.374 310.827 835.984 313.536 846.781 313.536C857.579 313.536 867.081 310.827 875.287 305.41C883.493 299.992 889.972 292.516 894.723 282.981C899.473 273.446 901.849 262.72 901.849 250.801C901.849 238.666 899.473 227.939 894.723 218.621C889.972 209.303 883.493 201.935 875.287 196.517C867.081 191.1 857.579 188.391 846.781 188.391Z" fill="#2B3944"/>
<path d="M1043.49 338.24C1026.21 338.24 1011.1 334.556 998.139 327.188C985.182 319.82 975.032 309.744 967.69 296.958C960.563 283.956 957 269.004 957 252.101C957 233.248 960.671 217.212 968.013 203.994C975.572 190.558 985.29 180.373 997.167 173.439C1009.26 166.287 1022 162.712 1035.39 162.712C1045.32 162.712 1054.93 164.554 1064.22 168.238C1073.51 171.922 1081.71 177.339 1088.84 184.49C1095.96 191.425 1101.69 199.876 1106.01 209.844C1110.33 219.596 1112.59 230.539 1112.81 242.675C1112.81 246.142 1111.51 249.067 1108.92 251.451C1106.33 253.835 1103.31 255.027 1099.85 255.027H971.901L966.07 232.598H1090.78L1085.6 237.149V229.998C1084.74 221.113 1081.71 213.528 1076.53 207.244C1071.56 200.743 1065.41 195.759 1058.07 192.292C1050.94 188.824 1043.38 187.091 1035.39 187.091C1028.91 187.091 1022.43 188.283 1015.95 190.666C1009.69 192.833 1003.97 196.517 998.787 201.718C993.82 206.702 989.717 213.203 986.477 221.221C983.454 229.239 981.942 238.882 981.942 250.151C981.942 262.72 984.426 273.771 989.393 283.306C994.575 292.841 1001.7 300.426 1010.77 306.06C1019.84 311.477 1030.42 314.186 1042.52 314.186C1050.07 314.186 1056.66 313.211 1062.28 311.261C1067.89 309.31 1072.75 306.927 1076.85 304.11C1080.96 301.076 1084.41 298.042 1087.22 295.008C1090.03 293.058 1092.73 292.083 1095.32 292.083C1098.56 292.083 1101.15 293.166 1103.09 295.333C1105.25 297.5 1106.33 300.101 1106.33 303.134C1106.33 306.818 1104.6 310.069 1101.15 312.886C1095.1 319.604 1086.89 325.563 1076.53 330.764C1066.16 335.748 1055.15 338.24 1043.49 338.24Z" fill="#2B3944"/>
<path d="M1235.01 162.712C1249.69 162.712 1261.25 165.746 1269.67 171.813C1278.09 177.881 1284.03 186.007 1287.48 196.192C1291.15 206.377 1292.99 217.754 1292.99 230.323V321.662C1292.99 325.346 1291.69 328.489 1289.1 331.089C1286.73 333.689 1283.7 334.99 1280.03 334.99C1276.36 334.99 1273.23 333.689 1270.64 331.089C1268.26 328.489 1267.08 325.346 1267.08 321.662V230.973C1267.08 222.738 1265.78 215.37 1263.19 208.869C1260.81 202.152 1256.71 196.842 1250.88 192.942C1245.27 188.824 1237.49 186.766 1227.56 186.766C1218.49 186.766 1210.17 188.824 1202.61 192.942C1195.06 196.842 1189.01 202.152 1184.47 208.869C1179.94 215.37 1177.67 222.738 1177.67 230.973V321.662C1177.67 325.346 1176.38 328.489 1173.79 331.089C1171.41 333.689 1168.39 334.99 1164.72 334.99C1161.04 334.99 1157.91 333.689 1155.32 331.089C1152.95 328.489 1151.76 325.346 1151.76 321.662V179.94C1151.76 176.256 1152.95 173.222 1155.32 170.838C1157.91 168.238 1161.04 166.938 1164.72 166.938C1168.6 166.938 1171.73 168.238 1174.11 170.838C1176.48 173.222 1177.67 176.256 1177.67 179.94V203.018L1171.19 210.17C1172.27 204.535 1174.76 198.901 1178.64 193.267C1182.53 187.416 1187.39 182.215 1193.22 177.664C1199.05 173.114 1205.53 169.538 1212.66 166.938C1219.78 164.12 1227.23 162.712 1235.01 162.712Z" fill="#2B3944"/>
<path d="M1623.97 148.339C1634.98 148.339 1644.9 149.532 1653.75 151.919C1662.59 154.305 1669.61 157.559 1674.79 161.681C1679.96 165.803 1682.55 170.468 1682.55 175.675C1682.55 178.495 1681.58 181.207 1679.64 183.81C1677.7 186.414 1675.11 187.715 1671.87 187.715C1668.85 187.715 1666.37 187.173 1664.43 186.088C1662.7 185.003 1660.98 183.593 1659.25 181.858C1657.74 180.122 1655.58 178.603 1652.78 177.302C1650.19 175.783 1646.41 174.59 1641.45 173.722C1636.49 172.854 1631.53 172.42 1626.56 172.42C1614.7 172.42 1604.23 175.241 1595.17 180.881C1586.32 186.522 1579.31 194.115 1574.13 203.661C1568.96 213.207 1566.37 224.054 1566.37 236.203C1566.37 248.353 1568.85 259.2 1573.81 268.746C1578.77 278.292 1585.68 285.885 1594.52 291.525C1603.37 297.166 1613.62 299.986 1625.27 299.986C1632.82 299.986 1638.86 299.336 1643.39 298.034C1647.92 296.732 1651.7 295.214 1654.72 293.478C1658.6 291.308 1661.52 289.139 1663.46 286.969C1665.62 284.8 1668.42 283.715 1671.87 283.715C1675.54 283.715 1678.35 284.908 1680.29 287.295C1682.44 289.681 1683.52 292.61 1683.52 296.081C1683.52 299.986 1680.83 304.108 1675.43 308.447C1670.04 312.786 1662.7 316.475 1653.43 319.512C1644.36 322.549 1634.01 324.068 1622.36 324.068C1605.96 324.068 1591.61 320.271 1579.31 312.678C1567.01 304.868 1557.41 294.346 1550.51 281.112C1543.82 267.661 1540.48 252.692 1540.48 236.203C1540.48 219.715 1543.93 204.854 1550.83 191.62C1557.95 178.386 1567.77 167.864 1580.28 160.054C1592.8 152.244 1607.36 148.339 1623.97 148.339Z" fill="#2B3944"/>
<path d="M1745.84 307.471C1745.84 311.159 1744.55 314.305 1741.96 316.908C1739.37 319.512 1736.24 320.814 1732.57 320.814C1728.9 320.814 1725.88 319.512 1723.51 316.908C1721.14 314.305 1719.95 311.159 1719.95 307.471V93.0169C1719.95 89.3288 1721.14 86.2915 1723.51 83.9051C1726.1 81.3017 1729.23 80 1732.9 80C1736.78 80 1739.91 81.3017 1742.28 83.9051C1744.65 86.2915 1745.84 89.3288 1745.84 93.0169V307.471Z" fill="#2B3944"/>
<path d="M1933.93 150.942C1937.59 150.942 1940.61 152.244 1942.99 154.847C1945.58 157.234 1946.87 160.271 1946.87 163.959V307.471C1946.87 311.159 1945.58 314.305 1942.99 316.908C1940.61 319.512 1937.59 320.814 1933.93 320.814C1930.04 320.814 1926.91 319.512 1924.54 316.908C1922.17 314.305 1920.98 311.159 1920.98 307.471V276.556L1927.13 275.905C1927.13 280.678 1925.51 285.885 1922.28 291.525C1919.04 297.166 1914.62 302.481 1909.01 307.471C1903.4 312.244 1896.71 316.258 1888.94 319.512C1881.39 322.549 1873.19 324.068 1864.34 324.068C1849.67 324.068 1836.51 320.271 1824.86 312.678C1813.21 304.868 1803.93 294.346 1797.03 281.112C1790.34 267.878 1787 252.8 1787 235.878C1787 218.739 1790.34 203.661 1797.03 190.644C1803.93 177.41 1813.21 167.105 1824.86 159.729C1836.51 152.136 1849.46 148.339 1863.7 148.339C1872.98 148.339 1881.61 149.858 1889.59 152.895C1897.57 155.932 1904.48 160.054 1910.3 165.261C1916.34 170.468 1920.98 176.217 1924.22 182.508C1927.67 188.8 1929.4 195.092 1929.4 201.383L1920.98 199.431V163.959C1920.98 160.271 1922.17 157.234 1924.54 154.847C1926.91 152.244 1930.04 150.942 1933.93 150.942ZM1867.26 299.986C1878.05 299.986 1887.54 297.166 1895.74 291.525C1904.15 285.885 1910.62 278.292 1915.16 268.746C1919.9 258.983 1922.28 248.027 1922.28 235.878C1922.28 223.946 1919.9 213.207 1915.16 203.661C1910.62 193.898 1904.15 186.305 1895.74 180.881C1887.54 175.241 1878.05 172.42 1867.26 172.42C1856.69 172.42 1847.19 175.132 1838.78 180.556C1830.58 185.98 1824.11 193.464 1819.36 203.01C1814.61 212.556 1812.24 223.512 1812.24 235.878C1812.24 248.027 1814.5 258.983 1819.04 268.746C1823.78 278.292 1830.26 285.885 1838.45 291.525C1846.87 297.166 1856.47 299.986 1867.26 299.986Z" fill="#2B3944"/>
<path d="M1985.47 294.129C1983.53 291.308 1982.66 288.38 1982.88 285.342C1983.09 282.088 1984.93 279.268 1988.38 276.881C1990.54 275.363 1993.02 274.712 1995.82 274.929C1998.85 275.146 2001.54 276.556 2003.92 279.159C2009.96 286.319 2016.86 292.068 2024.63 296.407C2032.4 300.529 2041.89 302.59 2053.11 302.59C2058.29 302.373 2063.46 301.505 2068.64 299.986C2073.82 298.468 2078.14 295.864 2081.59 292.176C2085.26 288.271 2087.09 283.173 2087.09 276.881C2087.09 270.807 2085.26 266.034 2081.59 262.563C2077.92 258.875 2073.17 255.946 2067.35 253.776C2061.52 251.39 2055.16 249.329 2048.25 247.593C2041.13 245.641 2034.12 243.471 2027.22 241.085C2020.31 238.481 2014.06 235.336 2008.45 231.647C2003.05 227.742 1998.63 222.969 1995.18 217.329C1991.94 211.471 1990.32 204.42 1990.32 196.176C1990.32 186.414 1992.91 177.953 1998.09 170.793C2003.48 163.634 2010.6 158.102 2019.45 154.197C2028.51 150.292 2038.33 148.339 2048.9 148.339C2054.94 148.339 2061.2 149.098 2067.67 150.617C2074.36 151.919 2080.83 154.305 2087.09 157.776C2093.35 161.031 2098.85 165.586 2103.6 171.444C2105.54 173.614 2106.62 176.325 2106.83 179.58C2107.05 182.834 2105.64 185.763 2102.62 188.366C2100.25 190.102 2097.55 190.861 2094.53 190.644C2091.73 190.427 2089.36 189.342 2087.41 187.39C2082.88 181.966 2077.16 177.844 2070.26 175.024C2063.57 171.986 2056.13 170.468 2047.93 170.468C2042.75 170.468 2037.68 171.227 2032.72 172.746C2027.76 174.264 2023.55 176.868 2020.1 180.556C2016.86 184.027 2015.24 188.908 2015.24 195.2C2015.46 201.058 2017.4 205.831 2021.07 209.519C2024.74 213.207 2029.7 216.244 2035.96 218.631C2042.21 220.8 2049.12 222.969 2056.67 225.139C2063.57 226.875 2070.15 228.936 2076.41 231.322C2082.88 233.492 2088.71 236.42 2093.89 240.108C2099.06 243.797 2103.16 248.57 2106.18 254.427C2109.2 260.068 2110.72 267.227 2110.72 275.905C2110.72 285.885 2107.91 294.563 2102.3 301.939C2096.69 309.098 2089.25 314.631 2079.97 318.536C2070.91 322.224 2061.09 324.068 2050.52 324.068C2038.65 324.068 2026.89 321.79 2015.24 317.234C2003.81 312.678 1993.88 304.976 1985.47 294.129Z" fill="#2B3944"/>
<path d="M2138.75 294.129C2136.81 291.308 2135.95 288.38 2136.16 285.342C2136.38 282.088 2138.21 279.268 2141.67 276.881C2143.82 275.363 2146.3 274.712 2149.11 274.929C2152.13 275.146 2154.83 276.556 2157.2 279.159C2163.24 286.319 2170.15 292.068 2177.91 296.407C2185.68 300.529 2195.17 302.59 2206.39 302.59C2211.57 302.373 2216.75 301.505 2221.93 299.986C2227.11 298.468 2231.42 295.864 2234.87 292.176C2238.54 288.271 2240.37 283.173 2240.37 276.881C2240.37 270.807 2238.54 266.034 2234.87 262.563C2231.2 258.875 2226.46 255.946 2220.63 253.776C2214.81 251.39 2208.44 249.329 2201.54 247.593C2194.42 245.641 2187.41 243.471 2180.5 241.085C2173.6 238.481 2167.34 235.336 2161.73 231.647C2156.34 227.742 2151.91 222.969 2148.46 217.329C2145.23 211.471 2143.61 204.42 2143.61 196.176C2143.61 186.414 2146.2 177.953 2151.37 170.793C2156.77 163.634 2163.89 158.102 2172.73 154.197C2181.8 150.292 2191.61 148.339 2202.19 148.339C2208.23 148.339 2214.48 149.098 2220.96 150.617C2227.64 151.919 2234.12 154.305 2240.37 157.776C2246.63 161.031 2252.13 165.586 2256.88 171.444C2258.82 173.614 2259.9 176.325 2260.12 179.58C2260.33 182.834 2258.93 185.763 2255.91 188.366C2253.54 190.102 2250.84 190.861 2247.82 190.644C2245.01 190.427 2242.64 189.342 2240.7 187.39C2236.17 181.966 2230.45 177.844 2223.55 175.024C2216.86 171.986 2209.41 170.468 2201.21 170.468C2196.04 170.468 2190.97 171.227 2186 172.746C2181.04 174.264 2176.83 176.868 2173.38 180.556C2170.15 184.027 2168.53 188.908 2168.53 195.2C2168.74 201.058 2170.68 205.831 2174.35 209.519C2178.02 213.207 2182.98 216.244 2189.24 218.631C2195.5 220.8 2202.4 222.969 2209.95 225.139C2216.86 226.875 2223.44 228.936 2229.69 231.322C2236.17 233.492 2241.99 236.42 2247.17 240.108C2252.35 243.797 2256.45 248.57 2259.47 254.427C2262.49 260.068 2264 267.227 2264 275.905C2264 285.885 2261.2 294.563 2255.59 301.939C2249.98 309.098 2242.53 314.631 2233.25 318.536C2224.19 322.224 2214.38 324.068 2203.8 324.068C2191.94 324.068 2180.18 321.79 2168.53 317.234C2157.09 312.678 2147.17 304.976 2138.75 294.129Z" fill="#2B3944"/>
</svg>
