<?xml version="1.0" encoding="utf-8"?>
<!-- Generator: Adobe Illustrator 27.0.1, SVG Export Plug-In . SVG Version: 6.00 Build 0)  -->
<svg version="1.1" id="Layer_1" xmlns="http://www.w3.org/2000/svg" xmlns:xlink="http://www.w3.org/1999/xlink" x="0px" y="0px"
	 viewBox="0 0 32.6 32.6" style="enable-background:new 0 0 32.6 32.6;" xml:space="preserve">
<style type="text/css">
	.st0{fill:#005ED5;}
	.st1{fill:#FFFFFF;}
</style>
<g>
	<circle class="st0" cx="16.3" cy="16.3" r="16.3"/>
	<g>
		<g>
			<path class="st1" d="M17.8,19h-3v-1c0-1.8,0.9-3.5,2.5-4.3c0.7-0.4,1.1-1.1,1.1-1.9c0-1.1-1-2.1-2.1-2.1c-0.6,0-1.1,0.2-1.5,0.6
				s-0.6,0.9-0.6,1.5h-3c0-1.4,0.5-2.7,1.5-3.6c1-1,2.3-1.4,3.7-1.5c2.7,0,5,2.3,5,5c0,1.9-1,3.7-2.7,4.6c-0.5,0.3-0.9,0.9-0.9,1.6
				V19z"/>
		</g>
		<g>
			<rect x="14.8" y="21" class="st1" width="3" height="3.2"/>
		</g>
	</g>
</g>
</svg>
