<?xml version="1.0" encoding="utf-8"?>
<!-- Generator: Adobe Illustrator 27.0.1, SVG Export Plug-In . SVG Version: 6.00 Build 0)  -->
<svg version="1.1" id="Layer_1" xmlns="http://www.w3.org/2000/svg" xmlns:xlink="http://www.w3.org/1999/xlink" x="0px" y="0px"
	 viewBox="0 0 32.6 32.6" style="enable-background:new 0 0 32.6 32.6;" xml:space="preserve">
<style type="text/css">
	.st0{fill:#FFFFFF;}
</style>
<g>
	<g>
		<path class="st0" d="M16.3,32.6C7.3,32.6,0,25.3,0,16.3C0,7.3,7.3,0,16.3,0s16.3,7.3,16.3,16.3C32.6,25.3,25.3,32.6,16.3,32.6z
			 M16.3,1C7.9,1,1,7.9,1,16.3s6.9,15.3,15.3,15.3c8.4,0,15.3-6.9,15.3-15.3S24.7,1,16.3,1z"/>
	</g>
	<g>
		<g>
			<path class="st0" d="M17.8,19h-3v-1c0-1.8,0.9-3.5,2.5-4.3c0.7-0.4,1.1-1.1,1.1-1.9c0-1.1-1-2.1-2.1-2.1c-0.6,0-1.1,0.2-1.5,0.6
				c-0.4,0.4-0.6,0.9-0.6,1.5h-3c0-1.4,0.5-2.7,1.5-3.6s2.3-1.4,3.7-1.5c2.7,0,5,2.3,5,5c0,1.9-1,3.7-2.7,4.6
				c-0.5,0.3-0.9,0.9-0.9,1.6V19z"/>
		</g>
		<g>
			<rect x="14.8" y="21" class="st0" width="3" height="3.2"/>
		</g>
	</g>
</g>
</svg>
