<svg width="480" height="146" viewBox="0 0 480 146" fill="none" xmlns="http://www.w3.org/2000/svg">
<path d="M461.448 146H18.5548C8.30703 146 0 137.693 0 127.441V18.5562C0 8.30707 8.30703 1.52588e-05 18.5548 1.52588e-05H461.448C471.695 1.52588e-05 480 8.30707 480 18.5562V127.441C480 137.693 471.695 146 461.448 146Z" fill="black"/>
<path d="M157.308 88.1918H164.003V103.381C162.044 104.94 159.758 106.139 157.145 106.971C154.533 107.807 151.847 108.224 149.091 108.224C145.208 108.224 141.707 107.379 138.587 105.692C135.466 104.006 133.017 101.674 131.239 98.6992C129.461 95.724 128.573 92.3661 128.573 88.6287C128.573 84.8913 129.461 81.5334 131.239 78.5582C133.017 75.583 135.475 73.2487 138.614 71.5618C141.752 69.8749 145.281 69.0298 149.199 69.0298C152.392 69.0298 155.295 69.5592 157.907 70.6083C160.52 71.6638 162.714 73.2041 164.492 75.2354L160.03 79.5914C157.127 76.6895 153.626 75.2354 149.526 75.2354C146.84 75.2354 144.455 75.7998 142.369 76.9255C140.282 78.0512 138.65 79.6297 137.471 81.661C136.292 83.6923 135.702 86.0138 135.702 88.6287C135.702 91.1671 136.292 93.4535 137.471 95.488C138.65 97.5193 140.282 99.117 142.369 100.278C144.455 101.438 146.822 102.019 149.472 102.019C152.446 102.019 155.058 101.365 157.308 100.058V88.1918Z" fill="white"/>
<path d="M191.921 99.7324C193.554 98.0646 194.37 95.8675 194.37 93.1442C194.37 90.4241 193.554 88.2301 191.921 86.5592C190.288 84.8914 188.22 84.0559 185.717 84.0559C183.213 84.0559 181.154 84.8914 179.539 86.5592C177.925 88.2301 177.118 90.4241 177.118 93.1442C177.118 95.8675 177.925 98.0646 179.539 99.7324C181.154 101.403 183.213 102.236 185.717 102.236C188.22 102.236 190.288 101.403 191.921 99.7324ZM177.771 106.155C175.412 104.886 173.571 103.116 172.247 100.849C170.922 98.5812 170.26 96.0142 170.26 93.1442C170.26 90.2806 170.922 87.7199 172.247 85.4717C173.571 83.2204 175.412 81.4601 177.771 80.1909C180.129 78.9218 182.778 78.284 185.717 78.284C188.691 78.284 191.358 78.9218 193.717 80.1909C196.075 81.4601 197.916 83.2204 199.241 85.4717C200.565 87.7199 201.228 90.2806 201.228 93.1442C201.228 96.0142 200.565 98.5812 199.241 100.849C197.916 103.116 196.075 104.886 193.717 106.155C191.358 107.427 188.691 108.062 185.717 108.062C182.778 108.062 180.129 107.427 177.771 106.155Z" fill="white"/>
<path d="M227.024 99.7324C228.656 98.0646 229.472 95.8675 229.472 93.1442C229.472 90.4241 228.656 88.2301 227.024 86.5592C225.391 84.8914 223.322 84.0559 220.82 84.0559C218.317 84.0559 216.257 84.8914 214.643 86.5592C213.028 88.2301 212.221 90.4241 212.221 93.1442C212.221 95.8675 213.028 98.0646 214.643 99.7324C216.257 101.403 218.317 102.236 220.82 102.236C223.322 102.236 225.391 101.403 227.024 99.7324ZM212.874 106.155C210.515 104.886 208.674 103.116 207.35 100.849C206.025 98.5812 205.364 96.0142 205.364 93.1442C205.364 90.2806 206.025 87.7199 207.35 85.4717C208.674 83.2204 210.515 81.4601 212.874 80.1909C215.232 78.9218 217.88 78.284 220.82 78.284C223.794 78.284 226.463 78.9218 228.819 80.1909C231.178 81.4601 233.018 83.2204 234.344 85.4717C235.667 87.7199 236.33 90.2806 236.33 93.1442C236.33 96.0142 235.667 98.5812 234.344 100.849C233.018 103.116 231.178 104.886 228.819 106.155C226.463 107.427 223.794 108.062 220.82 108.062C217.88 108.062 215.232 107.427 212.874 106.155Z" fill="white"/>
<path d="M262.535 98.291C264.186 96.7476 265.012 94.7418 265.012 92.2736C265.012 89.8437 264.186 87.8666 262.535 86.3423C260.883 84.818 258.769 84.0559 256.193 84.0559C253.582 84.0559 251.449 84.818 249.801 86.3423C248.149 87.8666 247.323 89.8437 247.323 92.2736C247.323 94.7418 248.149 96.7476 249.801 98.291C251.449 99.8313 253.582 100.603 256.193 100.603C258.769 100.603 260.883 99.8313 262.535 98.291ZM271.704 78.6124V103.272C271.704 113.505 266.482 118.62 256.03 118.62C253.238 118.62 250.588 118.266 248.085 117.558C245.583 116.85 243.513 115.827 241.881 114.484L244.929 109.366C246.198 110.418 247.805 111.263 249.746 111.898C251.685 112.533 253.655 112.852 255.651 112.852C258.842 112.852 261.183 112.124 262.672 110.673C264.157 109.223 264.903 107.009 264.903 104.031V102.51C263.74 103.779 262.327 104.742 260.657 105.393C258.989 106.046 257.156 106.375 255.16 106.375C252.402 106.375 249.909 105.785 247.677 104.605C245.445 103.425 243.685 101.764 242.397 99.624C241.109 97.4811 240.465 95.032 240.465 92.2736C240.465 89.5184 241.109 87.0757 242.397 84.9551C243.685 82.8313 245.445 81.189 247.677 80.0283C249.909 78.8675 252.402 78.284 255.16 78.284C257.264 78.284 259.177 78.6316 260.902 79.3204C262.624 80.0092 264.068 81.0615 265.229 82.4774V78.6124H271.704Z" fill="white"/>
<path d="M280.631 67.2887H287.432V107.679H280.631V67.2887Z" fill="white"/>
<path d="M303.459 85.6599C301.955 86.9482 301.04 88.6638 300.711 90.8067H317.201C316.911 88.7021 316.024 86.996 314.536 85.6886C313.047 84.3811 311.197 83.7274 308.985 83.7274C306.807 83.7274 304.964 84.3748 303.459 85.6599ZM323.571 95.3222H300.765C301.164 97.4651 302.21 99.1616 303.896 100.412C305.583 101.665 307.678 102.29 310.18 102.29C313.375 102.29 316.005 101.238 318.075 99.1329L321.719 103.326C320.415 104.886 318.763 106.066 316.767 106.863C314.771 107.663 312.521 108.062 310.018 108.062C306.826 108.062 304.014 107.427 301.582 106.155C299.152 104.886 297.274 103.116 295.951 100.849C294.625 98.5812 293.965 96.0142 293.965 93.1442C293.965 90.3157 294.606 87.7645 295.897 85.4972C297.182 83.2299 298.97 81.4601 301.256 80.1909C303.542 78.9218 306.119 78.284 308.985 78.284C311.816 78.284 314.344 78.9122 316.576 80.1622C318.808 81.4155 320.549 83.1757 321.802 85.443C323.051 87.7135 323.679 90.3348 323.679 93.31C323.679 93.782 323.641 94.4516 323.571 95.3222Z" fill="white"/>
<path d="M368.251 88.7372C369.845 87.4297 370.646 85.561 370.646 83.1311C370.646 80.698 369.845 78.8293 368.251 77.5218C366.654 76.2176 364.314 75.5639 361.231 75.5639H352.957V90.6951H361.231C364.314 90.6951 366.654 90.0414 368.251 88.7372ZM370.183 71.2078C372.632 72.2984 374.51 73.8578 375.817 75.8891C377.121 77.9236 377.775 80.3344 377.775 83.1311C377.775 85.8895 377.121 88.2939 375.817 90.3412C374.51 92.3916 372.632 93.9637 370.183 95.0512C367.735 96.1386 364.859 96.6839 361.556 96.6839H352.957V107.679H345.882V69.5751H361.556C364.859 69.5751 367.735 70.1204 370.183 71.2078Z" fill="white"/>
<path d="M384.741 67.2887H391.545V107.679H384.741V67.2887Z" fill="white"/>
<path d="M415.189 101.936C416.515 101.158 417.449 100.042 417.995 98.5876V95.2138H410.974C407.056 95.2138 405.095 96.5021 405.095 99.0787C405.095 100.313 405.586 101.292 406.565 102.019C407.543 102.746 408.905 103.106 410.646 103.106C412.351 103.106 413.866 102.717 415.189 101.936ZM421.393 81.3613C423.663 83.4117 424.795 86.5049 424.795 90.6409V107.679H418.374V104.143C417.539 105.412 416.353 106.384 414.809 107.054C413.266 107.724 411.408 108.062 409.23 108.062C407.056 108.062 405.149 107.689 403.517 106.946C401.884 106.203 400.622 105.166 399.735 103.843C398.846 102.516 398.399 101.021 398.399 99.3529C398.399 96.7381 399.372 94.643 401.314 93.0645C403.252 91.486 406.31 90.6951 410.483 90.6951H417.995V90.2614C417.995 88.2301 417.386 86.6676 416.171 85.5802C414.953 84.4896 413.148 83.9474 410.754 83.9474C409.122 83.9474 407.518 84.1994 405.94 84.7096C404.358 85.2166 403.026 85.9246 401.938 86.8302L399.27 81.8778C400.794 80.7171 402.627 79.8274 404.77 79.2119C406.909 78.5933 409.176 78.284 411.57 78.284C415.852 78.284 419.126 79.3108 421.393 81.3613Z" fill="white"/>
<path d="M460.172 78.6124L446.565 110.02C445.296 113.177 443.753 115.399 441.939 116.688C440.124 117.976 437.931 118.62 435.355 118.62C433.904 118.62 432.469 118.384 431.054 117.912C429.641 117.44 428.478 116.787 427.572 115.954L430.292 110.945C430.945 111.563 431.717 112.051 432.606 112.415C433.496 112.778 434.392 112.96 435.301 112.96C436.496 112.96 437.485 112.651 438.266 112.035C439.047 111.416 439.764 110.383 440.415 108.932L440.906 107.788L428.226 78.6124H435.301L444.445 100.112L453.64 78.6124H460.172Z" fill="white"/>
<path d="M115.498 71.1345L97.2103 60.5793L82.1699 75.1238L95.9158 88.4151L115.498 77.1073C116.577 76.4854 117.221 75.3693 117.221 74.1225C117.221 72.8756 116.577 71.7595 115.498 71.1345Z" fill="#FFD109"/>
<path d="M94.1073 58.7871L73.9814 47.1668L29.8774 24.5608L79.6922 72.7257L94.1073 58.7871Z" fill="#06EF79"/>
<path d="M30.6089 124.976L74.0567 101.033L92.8117 90.2072L79.692 77.5186L30.6089 124.976Z" fill="#F93646"/>
<path d="M26.9341 26.5124L26.8872 123.78L77.2121 75.1206L26.9341 26.5124Z" fill="#05D5FB"/>
<path d="M147.859 38.8406H142.822V36.602H150.362V48.2574H147.859V38.8406ZM140.748 48.4232C139.212 48.4232 137.779 48.0884 136.452 47.4187C135.124 46.7491 133.966 45.8498 132.979 44.7177C131.991 43.5889 131.222 42.3133 130.674 40.8975C130.125 39.4816 129.851 38.0179 129.851 36.5032C129.851 34.9215 130.125 33.4227 130.674 32.0068C131.222 30.591 131.985 29.3346 132.962 28.2376C133.938 27.1406 135.091 26.2796 136.419 25.6514C137.747 25.0264 139.19 24.7139 140.748 24.7139C143.008 24.7139 144.874 25.1858 146.345 26.1297C147.815 27.0736 148.924 28.3045 149.67 29.8193L147.398 31.3977C146.718 30.0361 145.785 29.0284 144.6 28.3683C143.415 27.7114 142.109 27.3798 140.682 27.3798C139.497 27.3798 138.421 27.6349 137.456 28.1387C136.49 28.6426 135.662 29.3282 134.97 30.1956C134.279 31.0629 133.752 32.0451 133.39 33.1421C133.028 34.2422 132.847 35.3839 132.847 36.567C132.847 37.8202 133.05 39.0001 133.456 40.1066C133.862 41.2164 134.438 42.1921 135.184 43.0372C135.93 43.8854 136.797 44.5487 137.785 45.0302C138.773 45.515 139.837 45.7541 140.979 45.7541C142.317 45.7541 143.59 45.4161 144.797 44.7337C146.004 44.0544 147.146 43.0117 148.222 41.6054V44.6699C146.114 47.17 143.623 48.4232 140.748 48.4232Z" fill="white"/>
<path d="M170.74 45.6234V48.2574H154.871V24.8797H170.443V27.5137H157.834V35.0873H168.797V37.5555H157.834V45.6234H170.74Z" fill="white"/>
<path d="M191.645 27.5137H183.579V48.2574H180.616V27.5137H172.55V24.8797H191.645V27.5137Z" fill="white"/>
<path d="M202.344 48.2574V24.8797H205.307V48.2574H202.344Z" fill="white"/>
<path d="M213.866 30.3454V48.2574H210.904V24.8797H213.406L227.693 43.1552V24.9116H230.658V48.2574H227.958L213.866 30.3454Z" fill="white"/>
<path d="M246.064 36.567C246.064 37.7532 246.256 38.9012 246.641 40.0077C247.024 41.1175 247.566 42.0997 248.271 42.9575C248.972 43.8121 249.817 44.4945 250.805 44.9984C251.794 45.5022 252.89 45.7541 254.096 45.7541C255.349 45.7541 256.468 45.4926 257.456 44.9665C258.441 44.4371 259.283 43.7356 259.975 42.8586C260.663 41.9785 261.193 40.9931 261.553 39.893C261.916 38.796 262.098 37.6863 262.098 36.567C262.098 35.3839 261.904 34.2422 261.521 33.1421C261.135 32.0451 260.587 31.0629 259.876 30.1956C259.162 29.3282 258.317 28.649 257.338 28.1547C256.362 27.6604 255.282 27.4148 254.096 27.4148C252.846 27.4148 251.727 27.6732 250.738 28.1866C249.75 28.7032 248.911 29.4015 248.22 30.2785C247.528 31.1586 246.995 32.1408 246.622 33.225C246.249 34.3124 246.064 35.4253 246.064 36.567ZM254.064 48.4232C252.419 48.4232 250.926 48.0916 249.587 47.4347C248.248 46.7746 247.091 45.8817 246.112 44.7496C245.137 43.6208 244.384 42.3484 243.858 40.9325C243.332 39.5167 243.067 38.0625 243.067 36.567C243.067 35.0108 243.348 33.5216 243.909 32.1057C244.467 30.6898 245.245 29.427 246.246 28.3205C247.244 27.2107 248.411 26.3338 249.75 25.6865C251.089 25.0391 252.549 24.7139 254.131 24.7139C255.776 24.7139 257.268 25.0551 258.607 25.7343C259.946 26.4167 261.097 27.3256 262.063 28.4672C263.029 29.6088 263.775 30.8844 264.301 32.2875C264.83 33.6938 265.092 35.1319 265.092 36.602C265.092 38.1614 264.818 39.6474 264.269 41.0633C263.721 42.4792 262.946 43.742 261.948 44.8485C260.95 45.9582 259.78 46.832 258.441 47.4666C257.102 48.1043 255.645 48.4232 254.064 48.4232Z" fill="white"/>
<path d="M272.169 30.3454V48.2574H269.208V24.8797H271.71L285.997 43.1552V24.9116H288.959V48.2574H286.262L272.169 30.3454Z" fill="white"/>
</svg>
