<?xml version="1.0" encoding="utf-8"?>
<!-- Generator: Adobe Illustrator 27.0.0, SVG Export Plug-In . SVG Version: 6.00 Build 0)  -->
<svg version="1.1" id="Layer_1" xmlns="http://www.w3.org/2000/svg" xmlns:xlink="http://www.w3.org/1999/xlink" x="0px" y="0px"
	 viewBox="0 0 32.6 32.6" style="enable-background:new 0 0 32.6 32.6;" xml:space="preserve">
<style type="text/css">
	.st0{fill:#FFFFFF;}
</style>
<g>
	<g>
		<path class="st0" d="M16.3,32.6C7.3,32.6,0,25.3,0,16.3S7.3,0,16.3,0s16.3,7.3,16.3,16.3S25.3,32.6,16.3,32.6z M16.3,1
			C7.9,1,1,7.9,1,16.3s6.9,15.3,15.3,15.3s15.3-6.9,15.3-15.3S24.7,1,16.3,1z"/>
	</g>
	<g>
		<path class="st0" d="M12.9,12c0-0.6,0.4-1,1-1h7.4V9.8h-8c-1.1,0-2.1,0.9-2.1,2.1v8.8c0,1.1,0.9,2.1,2.1,2.1h8V13h-7.4
			C13.4,13,12.9,12.6,12.9,12z"/>
	</g>
</g>
</svg>
