<svg width="640" height="800" viewBox="0 0 640 800" fill="none" xmlns="http://www.w3.org/2000/svg">
<path d="M296.635 1.49817C233.694 5.92957 167.638 32.354 118.301 72.7292C103.058 85.2029 74.5377 114.91 64.0475 129.353C30.774 174.98 10.4492 223.89 2.58157 278.052C-0.860523 302.015 -0.860523 346.329 2.58157 369.799C9.13794 413.129 24.2176 455.309 46.3453 491.745C52.0822 500.936 73.7182 531.464 74.7016 531.464C74.8655 531.464 74.046 523.094 72.7347 513.082C69.7843 488.135 71.0956 415.59 74.7016 392.777C86.9948 317.607 114.532 248.837 156.165 189.752C189.11 143.14 239.594 94.7223 286.308 65.0153C316.304 45.9766 352.528 28.2509 384.49 17.0902C393.177 14.1359 400.717 11.1816 401.209 10.6893C402.684 9.2121 365.313 2.97528 345.316 1.33405C323.844 -0.471375 322.205 -0.471375 296.635 1.49817Z" fill="white"/>
<path d="M607.734 191.393C604.948 215.52 593.474 244.734 576.92 269.682C566.921 284.781 540.86 312.519 523.813 326.306C450.873 384.899 342.857 419.366 228.613 420.35L196.978 420.679V430.034C196.978 442.015 204.026 483.539 209.435 503.563C226.482 566.259 257.788 610.902 297.29 629.12C338.759 648.159 394.816 642.086 456.938 611.886C529.058 576.927 586.262 515.708 617.241 440.702C648.876 364.383 647.401 267.384 613.635 191.721L608.882 181.053L607.734 191.393Z" fill="white"/>
<path d="M518.342 73.3051C613.938 183.614 501.415 315.537 395.803 356.375C333.62 380.375 266.919 386.204 201.396 392.877C200.658 392.952 199.913 392.852 199.221 392.586C198.53 392.319 197.912 391.894 197.42 391.344C196.928 390.795 196.575 390.138 196.391 389.427C196.206 388.717 196.196 387.973 196.36 387.258C220.863 277.649 275.69 112.911 385.679 58.116C428.578 36.7393 482.844 32.4039 518.342 73.3051Z" fill="#74AFE9"/>
<path d="M335.022 762.405C336.9 762.405 338.805 761.921 340.738 760.952C342.723 759.984 344.709 758.477 346.695 756.433C348.735 754.388 350.828 751.752 352.975 748.523C355.122 745.241 357.322 741.34 359.577 736.82L360.382 735.125L363.683 737.627L362.878 739.322C359.979 745.079 357.081 750.003 354.183 754.092C351.338 758.181 348.52 761.517 345.729 764.1C342.992 766.683 340.281 768.566 337.598 769.75C334.914 770.934 332.338 771.526 329.869 771.526C326.38 771.526 323.267 770.799 320.53 769.346C317.793 767.894 315.485 765.93 313.606 763.454C311.728 760.926 310.305 758.02 309.339 754.738C308.319 751.402 307.81 747.904 307.81 744.245C307.81 738.434 308.615 733.161 310.225 728.426C311.781 723.637 313.875 719.548 316.505 716.158C319.188 712.768 322.221 710.132 325.602 708.249C328.983 706.365 332.499 705.424 336.149 705.424C339.852 705.424 342.67 706.365 344.602 708.249C346.588 710.132 347.581 712.499 347.581 715.351C347.581 718.095 346.803 720.678 345.246 723.099C343.69 725.467 341.57 727.807 338.886 730.121C336.256 732.381 333.197 734.641 329.708 736.901C326.219 739.107 322.543 741.394 318.678 743.761C319.054 746.559 319.698 749.115 320.61 751.429C321.523 753.689 322.677 755.653 324.072 757.321C325.468 758.935 327.078 760.199 328.903 761.114C330.728 761.975 332.767 762.405 335.022 762.405ZM337.517 717.772C337.517 715.62 336.927 713.925 335.746 712.688C334.619 711.45 333.223 710.831 331.56 710.831C330.164 710.831 328.688 711.343 327.132 712.365C325.575 713.333 324.153 714.921 322.865 717.127C321.577 719.279 320.503 722.05 319.644 725.44C318.786 728.83 318.356 732.946 318.356 737.789V739.645C320.181 738.676 322.194 737.412 324.394 735.852C326.649 734.237 328.742 732.462 330.674 730.525C332.606 728.588 334.216 726.543 335.505 724.391C336.846 722.185 337.517 719.979 337.517 717.772Z" fill="#74AFE9"/>
<path d="M63.1429 743.928C63.1429 750.267 61.7235 755.915 58.8847 760.872C56.127 765.829 52.3555 769.729 47.5701 772.574C42.8658 775.418 37.5532 776.84 31.6323 776.84C25.7114 776.84 20.3582 775.418 15.5728 772.574C10.7874 769.729 6.97532 765.829 4.13653 760.872C1.37884 755.915 0 750.267 0 743.928C0 737.59 1.37884 731.942 4.13653 726.985C6.97532 722.028 10.7874 718.127 15.5728 715.283C20.3582 712.439 25.7114 711.017 31.6323 711.017C37.5532 711.017 42.8658 712.439 47.5701 715.283C52.3555 718.127 56.127 722.028 58.8847 726.985C61.7235 731.942 63.1429 737.59 63.1429 743.928ZM53.4099 743.928C53.4099 739.215 52.4366 735.071 50.49 731.495C48.6245 727.92 46.029 725.116 42.7036 723.084C39.4592 721.053 35.7688 720.037 31.6323 720.037C27.4958 720.037 23.7648 721.053 20.4393 723.084C17.195 725.116 14.5995 727.92 12.6529 731.495C10.7063 735.071 9.73301 739.215 9.73301 743.928C9.73301 748.56 10.7063 752.664 12.6529 756.24C14.5995 759.815 17.195 762.66 20.4393 764.772C23.7648 766.804 27.4958 767.82 31.6323 767.82C35.7688 767.82 39.4592 766.804 42.7036 764.772C46.029 762.66 48.6245 759.815 50.49 756.24C52.4366 752.664 53.4099 748.56 53.4099 743.928Z" fill="white"/>
<path d="M108.806 711.626C114.322 711.626 119.269 713.008 123.649 715.771C128.029 718.534 131.476 722.353 133.99 727.229C136.586 732.105 137.884 737.712 137.884 744.05C137.884 750.308 136.586 755.915 133.99 760.872C131.476 765.748 128.029 769.608 123.649 772.452C119.35 775.215 114.484 776.596 109.05 776.596C106.049 776.596 103.21 776.149 100.533 775.255C97.9378 774.28 95.5451 773.061 93.3551 771.598C91.2463 770.054 89.4619 768.348 88.002 766.479C86.542 764.529 85.4876 762.619 84.8388 760.75L87.5153 759.043V795.002C87.5153 796.384 87.0692 797.562 86.177 798.537C85.2849 799.512 84.1088 800 82.6488 800C81.27 800 80.0939 799.512 79.1206 798.537C78.2284 797.643 77.7823 796.465 77.7823 795.002V717.112C77.7823 715.73 78.2284 714.592 79.1206 713.699C80.0939 712.723 81.27 712.236 82.6488 712.236C84.1088 712.236 85.2849 712.723 86.177 713.699C87.0692 714.592 87.5153 715.73 87.5153 717.112V727.96L85.6904 726.985C86.2582 724.953 87.2315 723.003 88.6103 721.134C90.0703 719.265 91.8141 717.64 93.8418 716.258C95.9506 714.796 98.2622 713.658 100.777 712.845C103.372 712.033 106.049 711.626 108.806 711.626ZM107.711 720.647C103.656 720.647 100.047 721.662 96.8834 723.694C93.8012 725.725 91.368 728.488 89.5836 731.983C87.8803 735.477 87.0287 739.5 87.0287 744.05C87.0287 748.52 87.8803 752.542 89.5836 756.118C91.368 759.693 93.8012 762.497 96.8834 764.529C100.047 766.56 103.656 767.576 107.711 767.576C111.767 767.576 115.336 766.56 118.418 764.529C121.5 762.497 123.933 759.693 125.717 756.118C127.502 752.542 128.394 748.52 128.394 744.05C128.394 739.5 127.502 735.477 125.717 731.983C123.933 728.488 121.5 725.725 118.418 723.694C115.336 721.662 111.767 720.647 107.711 720.647Z" fill="white"/>
<path d="M181.592 776.84C175.103 776.84 169.426 775.458 164.559 772.696C159.693 769.933 155.881 766.154 153.123 761.359C150.446 756.484 149.108 750.876 149.108 744.538C149.108 737.468 150.487 731.455 153.245 726.497C156.083 721.459 159.733 717.64 164.194 715.039C168.736 712.358 173.522 711.017 178.55 711.017C182.281 711.017 185.891 711.708 189.378 713.089C192.866 714.471 195.948 716.502 198.625 719.184C201.301 721.784 203.451 724.953 205.073 728.692C206.695 732.348 207.547 736.452 207.628 741.003C207.628 742.303 207.141 743.4 206.168 744.294C205.194 745.188 204.059 745.635 202.761 745.635H154.704L152.515 737.224H199.355L197.408 738.931V736.249C197.084 732.917 195.948 730.073 194.001 727.716C192.136 725.279 189.824 723.409 187.067 722.109C184.39 720.809 181.551 720.159 178.55 720.159C176.117 720.159 173.684 720.606 171.251 721.5C168.898 722.312 166.749 723.694 164.802 725.644C162.937 727.513 161.396 729.951 160.179 732.958C159.044 735.965 158.476 739.581 158.476 743.806C158.476 748.52 159.409 752.664 161.274 756.24C163.221 759.815 165.897 762.66 169.304 764.772C172.711 766.804 176.685 767.82 181.227 767.82C184.066 767.82 186.54 767.454 188.648 766.723C190.757 765.991 192.582 765.097 194.123 764.041C195.664 762.903 196.962 761.766 198.016 760.628C199.071 759.897 200.085 759.531 201.058 759.531C202.275 759.531 203.248 759.937 203.978 760.75C204.789 761.562 205.194 762.538 205.194 763.675C205.194 765.057 204.546 766.276 203.248 767.332C200.977 769.851 197.895 772.086 194.001 774.036C190.108 775.905 185.972 776.84 181.592 776.84Z" fill="white"/>
<path d="M253.524 711.017C259.039 711.017 263.379 712.155 266.542 714.43C269.705 716.705 271.936 719.753 273.233 723.572C274.612 727.391 275.302 731.658 275.302 736.371V770.623C275.302 772.005 274.815 773.183 273.842 774.158C272.949 775.133 271.814 775.621 270.435 775.621C269.056 775.621 267.88 775.133 266.907 774.158C266.015 773.183 265.569 772.005 265.569 770.623V736.615C265.569 733.527 265.082 730.764 264.109 728.326C263.216 725.807 261.675 723.816 259.485 722.353C257.377 720.809 254.457 720.037 250.726 720.037C247.319 720.037 244.196 720.809 241.358 722.353C238.519 723.816 236.248 725.807 234.545 728.326C232.841 730.764 231.99 733.527 231.99 736.615V770.623C231.99 772.005 231.503 773.183 230.53 774.158C229.638 775.133 228.502 775.621 227.123 775.621C225.744 775.621 224.568 775.133 223.595 774.158C222.703 773.183 222.257 772.005 222.257 770.623V717.477C222.257 716.096 222.703 714.958 223.595 714.064C224.568 713.089 225.744 712.601 227.123 712.601C228.583 712.601 229.759 713.089 230.651 714.064C231.544 714.958 231.99 716.096 231.99 717.477V726.132L229.556 728.813C229.962 726.701 230.895 724.588 232.355 722.475C233.815 720.281 235.64 718.331 237.829 716.624C240.019 714.917 242.453 713.577 245.129 712.601C247.806 711.545 250.604 711.017 253.524 711.017Z" fill="white"/>
<path d="M399.615 705.627C403.748 705.627 407.475 706.075 410.798 706.969C414.12 707.864 416.754 709.085 418.699 710.631C420.643 712.176 421.616 713.925 421.616 715.878C421.616 716.936 421.251 717.953 420.522 718.929C419.793 719.905 418.82 720.393 417.605 720.393C416.47 720.393 415.538 720.19 414.809 719.783C414.161 719.376 413.512 718.847 412.864 718.197C412.297 717.546 411.486 716.976 410.433 716.488C409.461 715.919 408.042 715.471 406.179 715.146C404.315 714.82 402.451 714.658 400.587 714.658C396.13 714.658 392.2 715.715 388.796 717.831C385.474 719.946 382.84 722.793 380.895 726.373C378.951 729.953 377.978 734.02 377.978 738.576C377.978 743.132 378.91 747.2 380.774 750.78C382.638 754.359 385.231 757.207 388.553 759.322C391.876 761.437 395.725 762.495 400.101 762.495C402.937 762.495 405.206 762.251 406.908 761.763C408.61 761.275 410.028 760.705 411.162 760.054C412.621 759.241 413.715 758.427 414.444 757.614C415.255 756.8 416.308 756.393 417.605 756.393C418.982 756.393 420.036 756.841 420.765 757.736C421.575 758.631 421.981 759.729 421.981 761.031C421.981 762.495 420.968 764.041 418.942 765.668C416.916 767.295 414.161 768.678 410.676 769.817C407.273 770.956 403.383 771.525 399.007 771.525C392.848 771.525 387.459 770.102 382.84 767.254C378.221 764.325 374.615 760.38 372.022 755.417C369.51 750.373 368.254 744.759 368.254 738.576C368.254 732.393 369.55 726.82 372.144 721.858C374.818 716.895 378.505 712.949 383.205 710.02C387.905 707.092 393.375 705.627 399.615 705.627Z" fill="white"/>
<path d="M445.386 765.302C445.386 766.685 444.9 767.864 443.928 768.841C442.955 769.817 441.78 770.305 440.403 770.305C439.025 770.305 437.89 769.817 436.999 768.841C436.108 767.864 435.662 766.685 435.662 765.302V684.881C435.662 683.498 436.108 682.359 436.999 681.464C437.971 680.488 439.146 680 440.524 680C441.983 680 443.158 680.488 444.049 681.464C444.941 682.359 445.386 683.498 445.386 684.881V765.302Z" fill="white"/>
<path d="M516.029 706.603C517.406 706.603 518.541 707.092 519.432 708.068C520.405 708.963 520.891 710.102 520.891 711.485V765.302C520.891 766.685 520.405 767.864 519.432 768.841C518.541 769.817 517.406 770.305 516.029 770.305C514.57 770.305 513.395 769.817 512.504 768.841C511.612 767.864 511.167 766.685 511.167 765.302V753.708L513.476 753.464C513.476 755.254 512.868 757.207 511.653 759.322C510.437 761.437 508.776 763.431 506.669 765.302C504.562 767.092 502.05 768.597 499.133 769.817C496.297 770.956 493.217 771.525 489.895 771.525C484.384 771.525 479.441 770.102 475.065 767.254C470.689 764.325 467.205 760.38 464.612 755.417C462.1 750.454 460.843 744.8 460.843 738.454C460.843 732.027 462.1 726.373 464.612 721.492C467.205 716.529 470.689 712.664 475.065 709.898C479.441 707.051 484.303 705.627 489.652 705.627C493.136 705.627 496.378 706.197 499.376 707.336C502.374 708.475 504.967 710.02 507.155 711.973C509.424 713.925 511.167 716.081 512.382 718.441C513.679 720.8 514.327 723.159 514.327 725.519L511.167 724.786V711.485C511.167 710.102 511.612 708.963 512.504 708.068C513.395 707.092 514.57 706.603 516.029 706.603ZM490.989 762.495C495.04 762.495 498.606 761.437 501.685 759.322C504.846 757.207 507.277 754.359 508.979 750.78C510.761 747.119 511.653 743.01 511.653 738.454C511.653 733.98 510.761 729.953 508.979 726.373C507.277 722.712 504.846 719.864 501.685 717.831C498.606 715.715 495.04 714.658 490.989 714.658C487.018 714.658 483.452 715.675 480.292 717.708C477.213 719.742 474.782 722.549 472.999 726.129C471.216 729.708 470.325 733.817 470.325 738.454C470.325 743.01 471.175 747.119 472.877 750.78C474.66 754.359 477.091 757.207 480.17 759.322C483.331 761.437 486.937 762.495 490.989 762.495Z" fill="white"/>
<path d="M535.387 760.298C534.658 759.241 534.334 758.142 534.415 757.003C534.496 755.783 535.184 754.725 536.481 753.831C537.291 753.261 538.223 753.017 539.277 753.098C540.411 753.18 541.424 753.708 542.316 754.685C544.585 757.369 547.178 759.525 550.095 761.153C553.012 762.698 556.578 763.471 560.792 763.471C562.737 763.39 564.681 763.064 566.626 762.495C568.571 761.925 570.192 760.949 571.488 759.566C572.866 758.102 573.555 756.19 573.555 753.831C573.555 751.553 572.866 749.763 571.488 748.461C570.111 747.078 568.328 745.98 566.14 745.166C563.952 744.271 561.562 743.498 558.968 742.847C556.294 742.115 553.661 741.302 551.067 740.407C548.474 739.431 546.124 738.251 544.017 736.868C541.991 735.403 540.33 733.614 539.034 731.498C537.818 729.302 537.21 726.658 537.21 723.566C537.21 719.905 538.183 716.732 540.128 714.047C542.154 711.363 544.828 709.288 548.15 707.824C551.554 706.359 555.241 705.627 559.212 705.627C561.481 705.627 563.831 705.912 566.262 706.481C568.774 706.969 571.205 707.864 573.555 709.166C575.905 710.386 577.971 712.095 579.754 714.292C580.483 715.105 580.889 716.122 580.97 717.342C581.051 718.563 580.524 719.661 579.389 720.637C578.498 721.288 577.485 721.573 576.351 721.492C575.297 721.41 574.406 721.003 573.676 720.271C571.975 718.237 569.827 716.692 567.234 715.634C564.722 714.495 561.926 713.925 558.847 713.925C556.902 713.925 554.998 714.21 553.134 714.78C551.27 715.349 549.69 716.325 548.393 717.708C547.178 719.01 546.57 720.841 546.57 723.2C546.651 725.397 547.38 727.186 548.758 728.569C550.136 729.953 551.999 731.092 554.349 731.986C556.699 732.8 559.293 733.614 562.129 734.427C564.722 735.078 567.194 735.851 569.544 736.746C571.975 737.559 574.163 738.658 576.107 740.041C578.052 741.424 579.592 743.214 580.727 745.41C581.861 747.525 582.428 750.21 582.428 753.464C582.428 757.207 581.375 760.461 579.268 763.227C577.161 765.912 574.365 767.986 570.881 769.451C567.477 770.834 563.79 771.525 559.819 771.525C555.362 771.525 550.946 770.671 546.57 768.963C542.275 767.254 538.547 764.366 535.387 760.298Z" fill="white"/>
<path d="M592.959 760.298C592.229 759.241 591.905 758.142 591.986 757.003C592.067 755.783 592.756 754.725 594.053 753.831C594.863 753.261 595.795 753.017 596.848 753.098C597.983 753.18 598.996 753.708 599.887 754.685C602.156 757.369 604.749 759.525 607.667 761.153C610.584 762.698 614.15 763.471 618.363 763.471C620.308 763.39 622.253 763.064 624.198 762.495C626.143 761.925 627.764 760.949 629.06 759.566C630.438 758.102 631.127 756.19 631.127 753.831C631.127 751.553 630.438 749.763 629.06 748.461C627.683 747.078 625.9 745.98 623.712 745.166C621.524 744.271 619.133 743.498 616.54 742.847C613.866 742.115 611.232 741.302 608.639 740.407C606.046 739.431 603.696 738.251 601.589 736.868C599.563 735.403 597.902 733.614 596.605 731.498C595.39 729.302 594.782 726.658 594.782 723.566C594.782 719.905 595.754 716.732 597.699 714.047C599.725 711.363 602.399 709.288 605.722 707.824C609.125 706.359 612.812 705.627 616.783 705.627C619.052 705.627 621.402 705.912 623.833 706.481C626.345 706.969 628.777 707.864 631.127 709.166C633.477 710.386 635.543 712.095 637.326 714.292C638.055 715.105 638.46 716.122 638.541 717.342C638.622 718.563 638.096 719.661 636.961 720.637C636.07 721.288 635.057 721.573 633.922 721.492C632.869 721.41 631.977 721.003 631.248 720.271C629.546 718.237 627.399 716.692 624.806 715.634C622.294 714.495 619.498 713.925 616.419 713.925C614.474 713.925 612.569 714.21 610.706 714.78C608.842 715.349 607.262 716.325 605.965 717.708C604.749 719.01 604.142 720.841 604.142 723.2C604.223 725.397 604.952 727.186 606.33 728.569C607.707 729.953 609.571 731.092 611.921 731.986C614.271 732.8 616.864 733.614 619.701 734.427C622.294 735.078 624.765 735.851 627.115 736.746C629.546 737.559 631.734 738.658 633.679 740.041C635.624 741.424 637.164 743.214 638.298 745.41C639.433 747.525 640 750.21 640 753.464C640 757.207 638.946 760.461 636.84 763.227C634.733 765.912 631.937 767.986 628.452 769.451C625.049 770.834 621.362 771.525 617.391 771.525C612.934 771.525 608.518 770.671 604.142 768.963C599.847 767.254 596.119 764.366 592.959 760.298Z" fill="white"/>
</svg>
