<svg width="240" height="240" viewBox="0 0 240 240" fill="none" xmlns="http://www.w3.org/2000/svg">
<path d="M111.238 0.561844C87.6351 2.22363 62.8643 12.1328 44.3631 27.2735C38.6467 31.9511 27.9516 43.0912 24.0178 48.5074C11.5402 65.6177 3.91845 83.9589 0.968089 104.27C-0.322696 113.256 -0.322696 129.873 0.968089 138.675C3.42673 154.923 9.08159 170.741 17.3795 184.405C19.5308 187.851 27.6443 199.299 28.0131 199.299C28.0746 199.299 27.7672 196.16 27.2755 192.406C26.1691 183.051 26.6609 155.846 28.0131 147.291C32.6231 119.103 42.9493 93.3141 58.5617 71.157C70.9163 53.6774 89.8479 35.5209 107.366 24.3808C118.614 17.2413 132.198 10.5941 144.184 6.40887C147.441 5.30101 150.269 4.19316 150.453 4.00851C151.006 3.45459 136.992 1.11578 129.493 0.500305C121.441 -0.176727 120.827 -0.176727 111.238 0.561844Z" fill="#2B3944"/>
<path d="M227.901 71.7724C226.856 80.8199 222.553 91.7754 216.345 101.131C212.596 106.793 202.823 117.195 196.43 122.365C169.078 144.337 128.572 157.262 85.7301 157.631L73.8672 157.754V161.263C73.8672 165.756 76.5102 181.327 78.5386 188.836C84.9311 212.347 96.6711 229.088 111.484 235.92C127.035 243.059 148.057 240.782 171.352 229.457C198.397 216.348 219.849 193.391 231.466 165.263C243.329 136.644 242.776 100.269 230.114 71.8956L228.331 67.895L227.901 71.7724Z" fill="#2B3944"/>
<path d="M194.379 27.4895C230.227 68.8551 188.031 118.326 148.426 133.641C125.108 142.641 100.095 144.827 75.5237 147.329C75.247 147.357 74.9675 147.32 74.7082 147.22C74.4488 147.12 74.2173 146.96 74.0327 146.754C73.8481 146.548 73.7157 146.302 73.6466 146.035C73.5775 145.769 73.5737 145.49 73.6353 145.222C82.8236 104.118 103.384 42.3418 144.63 21.7935C160.717 13.7773 181.067 12.1515 194.379 27.4895Z" fill="#0073E6"/>
</svg>
