<?xml version="1.0" encoding="iso-8859-1"?>
<!-- Generator: Adobe Illustrator 16.0.0, SVG Export Plug-In . SVG Version: 6.00 Build 0)  -->
<!DOCTYPE svg PUBLIC "-//W3C//DTD SVG 1.1//EN" "http://www.w3.org/Graphics/SVG/1.1/DTD/svg11.dtd">
<svg version="1.1" id="Capa_1" xmlns="http://www.w3.org/2000/svg" xmlns:xlink="http://www.w3.org/1999/xlink" x="0px" y="0px"
	 width="416.979px" height="416.979px" viewBox="0 0 416.979 416.979" style="enable-background:new 0 0 31.6 31.6;"
	 xml:space="preserve">




<g id="svg_1" class="selected" fill="#005ed6" fill-opacity="1" stroke="#ffffff" stroke-opacity="1" opacity="1">
	<path d="M364.33034048841864,54.36179357227248 c-85.34414346365108,-84.69400859349818 -223.7984183340724,-84.77821400280311 -309.248494678267,-0.18920227769751757 c-85.4490275037932,84.59109087101433 -85.53503241670977,221.8230374330679 -0.18984011265725634,306.5180855995204 c85.34309462324967,84.69400859349818 223.7994671744738,84.77821400280311 309.24954351866853,0.18816270474313548 C449.5895278795554,276.2898278737329 449.6755327924716,139.0558021657707 364.33034048841864,54.36179357227248 zM209.6788232988482,338.8284576634429 c-11.566611946874081,0 -20.94324513558049,-9.292742639220327 -20.94324513558049,-20.75819275309895 s9.375584348304992,-20.759232326053336 20.94324513558049,-20.759232326053336 c11.566611946874081,0 20.94324513558049,9.292742639220327 20.94324513558049,20.759232326053336 C230.62101959402727,329.53467545126824 221.2454352457224,338.8284576634429 209.6788232988482,338.8284576634429 zM243.72837809058956,213.84268050400874 c-11.963073618611332,6.9318724598189005 -12.985693009997098,15.459489404614107 -13.03708618966674,40.031875327340465 c-0.0031465212042639237,1.6248525276990038 -0.0083907232113705,3.2642590767593505 -0.017830286824162253,4.913021782409141 c-0.07446766850091256,11.614109046355235 -9.593743151800618,20.978582219427928 -21.295655510458044,20.978582219427928 c-0.0461489776625377,0 -0.09229795532507507,0 -0.13739809258619062,0 c-11.762745101939862,-0.07380967976111952 -21.236920447978452,-9.584862639401658 -21.16350161987895,-21.2447128957497 c0.010488404014213106,-1.5884674742956335 0.013634925218476979,-3.1675787920018275 0.0167814464227409,-4.732136088346676 c0.05244202007106552,-25.254345780800918 0.11642128455776492,-56.681675764721895 34.13660854505901,-76.39197897980384 c27.297120287390722,-15.816062927967115 30.73731680405258,-26.205555034060406 27.53625589891477,-39.838514757825415 c-3.761141679496778,-16.013581789299685 -18.515179606290186,-20.16355702319247 -30.028300692691772,-18.858892965443104 c-3.86602571963891,0.43973935970357136 -23.14685881896664,3.592764130344049 -23.14685881896664,22.49843787873434 c0,11.656731537484902 -9.536056929722447,21.109568411680048 -21.29880203166231,21.109568411680048 c-11.762745101939862,0 -21.297753191260895,-9.452836874195155 -21.297753191260895,-21.109568411680048 c0,-33.863049416037924 25.035820381926392,-60.36280359618841 60.883087621703524,-64.44208786918323 c36.919182130029704,-4.197795589794351 68.30573114256207,16.868110757801663 76.37236266989326,51.23223433785167 C303.3088059337279,179.32366055375581 260.02421140747254,204.40231850526627 243.72837809058956,213.84268050400874 z" id="svg_2" fill="#005ed6" fill-opacity="1" stroke="#ffffff" stroke-opacity="1" opacity="1"></path>
</g>


</svg>