<?xml version="1.0" encoding="utf-8"?>
<!-- Generator: Adobe Illustrator 27.0.0, SVG Export Plug-In . SVG Version: 6.00 Build 0)  -->
<svg version="1.1" id="Layer_1" xmlns="http://www.w3.org/2000/svg" xmlns:xlink="http://www.w3.org/1999/xlink" x="0px" y="0px"
	 viewBox="0 0 32.6 32.6" style="enable-background:new 0 0 32.6 32.6;" xml:space="preserve">
<style type="text/css">
	.st0{fill:#FFFFFF;}
</style>
<g>
	<g>
		<path class="st0" d="M16.3,32.6C7.3,32.6,0,25.3,0,16.3S7.3,0,16.3,0s16.3,7.3,16.3,16.3S25.3,32.6,16.3,32.6z M16.3,1
			C7.9,1,1,7.9,1,16.3s6.9,15.3,15.3,15.3c8.4,0,15.3-6.9,15.3-15.3S24.7,1,16.3,1z"/>
	</g>
	<g>
		<path class="st0" d="M16.4,18.4c-0.5-0.5-0.5-1.4,0-2c0.5-0.5,1.4-0.5,2,0c0.3,0.3,0.4,0.6,0.4,1l3.8,3.8l-1.7-7.7l-6.2-2
			l-2.3-2.3l-3.3,3.3l2.3,2.3l2.1,6.2l7.7,1.7l-3.8-3.8C17,18.8,16.7,18.7,16.4,18.4z"/>
	</g>
</g>
</svg>
