<?xml version="1.0" encoding="utf-8"?>
<!-- Generator: Adobe Illustrator 27.0.1, SVG Export Plug-In . SVG Version: 6.00 Build 0)  -->
<svg version="1.1" id="Layer_1" xmlns="http://www.w3.org/2000/svg" xmlns:xlink="http://www.w3.org/1999/xlink" x="0px" y="0px"
	 viewBox="0 0 23 23" style="enable-background:new 0 0 23 23;" xml:space="preserve">
<style type="text/css">
	.st0{fill:#FFFFFF;}
	.st1{fill:#005AD7;}
</style>
<g>
	<circle class="st0" cx="11.5" cy="11.5" r="11.5"/>
	<g>
		<path class="st1" d="M14.2,9.6c-0.7,0.6-1.7,0.9-2.7,0.9c-1,0-2-0.4-2.7-0.9c-1.8,1-3.1,2.9-3.1,5.1v2.4c0,0.5,0.4,0.9,0.9,0.9
			h9.7c0.5,0,0.9-0.4,0.9-0.9v-2.4C17.3,12.5,16,10.5,14.2,9.6z"/>
		<path class="st1" d="M10.2,9c0.4,0.2,0.8,0.3,1.3,0.3c0.5,0,0.9-0.1,1.3-0.3c1.1-0.5,1.8-1.6,1.8-2.8c0-1.7-1.4-3.1-3.1-3.1
			c-1.7,0-3.1,1.4-3.1,3.1C8.4,7.5,9.1,8.6,10.2,9z"/>
	</g>
</g>
</svg>
